<?xml version="1.0" encoding="UTF-8"?>
<svg id="Vrstva_2" data-name="Vrstva 2" xmlns="http://www.w3.org/2000/svg" viewBox="0 0 178.02 162.3">
  <defs>
    <style>
      .cls-1 {
        fill: none;
        stroke: #1c1c1c;
        stroke-linecap: round;
        stroke-width: 5px;
      }
    </style>
  </defs>
  <g id="Vrstva_1-2" data-name="Vrstva 1">
    <path class="cls-1" d="M174.03,2.5c3.49,41.46,2.64,84.84-22.68,120.77-7.02,9.96-21.76,24.56-35.46,22.99-11.91-1.36-23.17-13.63-29.28-22.74-5.98-8.91-10.04-20.75-7.52-31.58,1.14-4.91,4.38-9.43,9.19-6.11,12.77,8.8,7.13,31.79-5.65,38.4-19.03,9.84-44.03,7.38-61.16,20.55-1.96,1.51-13.52,8.23-10.62,12,3,3.9,11.49,1.38,15.69,2.34,6.43,1.47-13.32-.89-19.92.05-5.21.74-5.2,1.85-1.61-3.67,3.68-5.66,8.13-15.25,5.92-21.84"/>
  </g>
</svg>