<?xml version="1.0" encoding="UTF-8"?>
<svg id="Vrstva_2" data-name="Vrstva 2" xmlns="http://www.w3.org/2000/svg" xmlns:xlink="http://www.w3.org/1999/xlink" viewBox="0 0 371.68 378.24">
  <defs>
    <style>
      .cls-1 {
        fill: none;
      }

      .cls-2 {
        fill: rgba(13, 186, 181, .15);
        isolation: isolate;
        opacity: .44;
      }

      .cls-3 {
        fill: #f0f8ff;
      }

      .cls-4 {
        clip-path: url(#clippath);
      }
    </style>
    <clipPath id="clippath">
      <rect class="cls-1" x="28.84" y="36.62" width="314" height="305" transform="translate(-42.49 323.91) rotate(-76.06)"/>
    </clipPath>
  </defs>
  <g id="Vrstva_1-2" data-name="Vrstva 1">
    <g class="cls-4">
      <g>
        <path class="cls-2" d="M169.5,39.64h-.04c-74.99,18.22-121.07,93.82-102.93,168.89v.04c18.15,75.06,93.64,121.15,168.63,102.95h.04c74.99-18.21,121.07-93.82,102.93-168.89v-.04c-18.15-75.06-93.64-121.15-168.63-102.95Z"/>
        <path class="cls-2" d="M186.55,63.85h-.04C109.95,54.36,40.17,108.81,30.65,185.46v.04c-9.53,76.65,44.82,146.49,121.38,155.97h.04c76.56,9.49,146.35-44.96,155.87-121.61v-.04c9.53-76.65-44.82-146.48-121.38-155.97Z"/>
        <g>
          <path class="cls-3" d="M260.23,153.34l-64.79,92.43-12.23-3.04,64.68-92.46,12.35,3.07Z"/>
          <path class="cls-3" d="M125.1,169.91l74.85-17.69-3.13,12.63-58.52,13.24,45.55,39-3.15,12.7-57.86-50.72,2.27-9.15Z"/>
        </g>
      </g>
    </g>
  </g>
</svg>