<svg width="373" height="380" viewBox="0 0 373 380" fill="none" xmlns="http://www.w3.org/2000/svg">
<g clip-path="url(#clip0_295_38)">
<path opacity="0.44" d="M170.163 40.514L170.125 40.5232C95.1378 58.7293 49.054 134.338 67.1943 209.4L67.2034 209.438C85.3438 284.5 160.839 330.591 235.826 312.384L235.864 312.375C310.852 294.169 356.936 218.56 338.795 143.499L338.786 143.461C320.646 68.3987 245.151 22.3079 170.163 40.514Z" fill="#0DBAB5" fill-opacity="0.25"/>
<path opacity="0.44" d="M187.216 64.7299L187.178 64.7251C110.617 55.2367 40.8321 109.685 31.3085 186.338L31.3037 186.377C21.7801 263.03 76.1243 332.862 152.685 342.35L152.723 342.355C229.284 351.843 299.069 297.395 308.593 220.742L308.597 220.703C318.121 144.05 263.777 74.2182 187.216 64.7299Z" fill="#0DBAB5" fill-opacity="0.25"/>
<g filter="url(#filter0_d_295_38)">
<path d="M260.894 154.214L196.104 246.641L183.872 243.604L248.549 151.149L260.894 154.214Z" fill="#F0F8FF"/>
<path d="M125.761 170.786L200.613 153.092L197.479 165.718L138.962 178.959L184.508 217.958L181.355 230.659L123.49 179.934L125.761 170.786Z" fill="#F0F8FF"/>
</g>
</g>
<defs>
<filter id="filter0_d_295_38" x="123.49" y="151.149" width="141.404" height="99.4912" filterUnits="userSpaceOnUse" color-interpolation-filters="sRGB">
<feFlood flood-opacity="0" result="BackgroundImageFix"/>
<feColorMatrix in="SourceAlpha" type="matrix" values="0 0 0 0 0 0 0 0 0 0 0 0 0 0 0 0 0 0 127 0" result="hardAlpha"/>
<feOffset dx="2" dy="2"/>
<feGaussianBlur stdDeviation="1"/>
<feComposite in2="hardAlpha" operator="out"/>
<feColorMatrix type="matrix" values="0 0 0 0 0 0 0 0 0 0.365234 0 0 0 0 0.353376 0 0 0 0.1 0"/>
<feBlend mode="normal" in2="BackgroundImageFix" result="effect1_dropShadow_295_38"/>
<feBlend mode="normal" in="SourceGraphic" in2="effect1_dropShadow_295_38" result="shape"/>
</filter>
<clipPath id="clip0_295_38">
<rect width="305" height="314" fill="white" transform="translate(76.3252 0.878906) rotate(13.9435)"/>
</clipPath>
</defs>
</svg>
