<?xml version="1.0" encoding="UTF-8"?>
<svg id="Vrstva_2" data-name="Vrstva 2" xmlns="http://www.w3.org/2000/svg" xmlns:xlink="http://www.w3.org/1999/xlink" viewBox="0 0 84 84">
  <defs>
    <style>
      .cls-1 {
        fill: none;
      }

      .cls-2 {
        clip-path: url(#clippath);
      }
    </style>
    <clipPath id="clippath">
      <rect class="cls-1" width="84" height="84"/>
    </clipPath>
  </defs>
  <g id="Vrstva_1-2" data-name="Vrstva 1">
    <g class="cls-2">
      <path d="M68.56,20.06c0,.96-.29,1.9-.82,2.7s-1.29,1.42-2.18,1.79c-.89.37-1.87.46-2.81.28s-1.81-.65-2.49-1.33c-.68-.68-1.14-1.55-1.33-2.49-.19-.94-.09-1.92.28-2.81s.99-1.65,1.79-2.18c.8-.53,1.74-.82,2.7-.82,1.29,0,2.52.51,3.43,1.42s1.42,2.15,1.42,3.44ZM84,42v.06s-.28,17.62-.28,17.62c-.07,6.35-2.63,12.43-7.12,16.92-4.49,4.49-10.57,7.05-16.92,7.12l-17.68.28h-.06s-17.62-.28-17.62-.28c-6.35-.07-12.43-2.63-16.92-7.12C2.9,72.11.35,66.04.28,59.68l-.28-17.68v-.06s.28-17.62.28-17.62c.07-6.35,2.63-12.43,7.12-16.92C11.89,2.9,17.96.35,24.32.28l17.68-.28h.06s17.62.28,17.62.28c6.35.07,12.43,2.63,16.92,7.12,4.49,4.49,7.05,10.57,7.12,16.92l.28,17.68ZM76.18,42l-.27-17.56c-.05-4.32-1.79-8.45-4.84-11.5-3.05-3.05-7.18-4.79-11.5-4.84l-17.56-.27-17.56.27c-4.32.05-8.45,1.79-11.5,4.84-3.05,3.05-4.79,7.18-4.84,11.5l-.27,17.56.27,17.56c.05,4.32,1.79,8.45,4.84,11.5,3.05,3.05,7.18,4.79,11.5,4.84l17.56.27,17.56-.27c4.32-.05,8.45-1.79,11.5-4.84,3.05-3.05,4.79-7.18,4.84-11.5l.27-17.56ZM63.57,42c0,4.27-1.27,8.44-3.64,11.98-2.37,3.55-5.74,6.31-9.68,7.94-3.94,1.63-8.28,2.06-12.46,1.23-4.18-.83-8.03-2.89-11.04-5.9-3.02-3.02-5.07-6.86-5.9-11.04-.83-4.18-.4-8.52,1.23-12.46,1.63-3.94,4.4-7.31,7.94-9.68,3.55-2.37,7.72-3.63,11.98-3.63,5.72,0,11.2,2.28,15.24,6.32,4.04,4.04,6.32,9.53,6.32,15.24ZM55.75,42c0-2.72-.81-5.38-2.32-7.64-1.51-2.26-3.66-4.02-6.17-5.06-2.51-1.04-5.28-1.31-7.94-.78-2.67.53-5.12,1.84-7.04,3.76-1.92,1.92-3.23,4.37-3.76,7.04-.53,2.67-.26,5.43.78,7.94,1.04,2.51,2.8,4.66,5.06,6.17,2.26,1.51,4.92,2.32,7.64,2.32,3.64,0,7.14-1.45,9.72-4.03,2.58-2.58,4.03-6.07,4.03-9.72h0Z"/>
    </g>
  </g>
</svg>