<?xml version="1.0" encoding="UTF-8"?>
<svg id="Vrstva_2" data-name="Vrstva 2" xmlns="http://www.w3.org/2000/svg" xmlns:xlink="http://www.w3.org/1999/xlink" viewBox="0 0 361.68 278.46">
  <defs>
    <style>
      .cls-1 {
        fill: none;
      }

      .cls-2 {
        fill: rgba(13, 186, 181, .15);
        isolation: isolate;
        opacity: .44;
      }

      .cls-3 {
        fill: #f0f8ff;
      }

      .cls-4 {
        clip-path: url(#clippath);
      }
    </style>
    <clipPath id="clippath">
      <rect class="cls-1" x="75.84" y="-21.77" width="210" height="322" transform="translate(3.73 283.18) rotate(-76.7)"/>
    </clipPath>
  </defs>
  <g id="Vrstva_1-2" data-name="Vrstva 1">
    <g class="cls-4">
      <g>
        <path class="cls-2" d="M341.68,69.36L48.32,0,2.25,194.83l293.36,69.37,46.07-194.83Z"/>
        <path class="cls-2" d="M359.45,83.63L66.09,14.27,20.02,209.1l293.36,69.36,46.07-194.83Z"/>
        <g>
          <path class="cls-3" d="M103.45,61.46l-1.49,6.26,10.75,2.56,1.49-6.26-10.75-2.56Z"/>
          <path class="cls-3" d="M244.97,101.73l-22.05-5.21,1.49-6.28,22.05,5.21-1.49,6.28ZM200.89,91.24l-22.05-5.21,1.49-6.28,22.05,5.21-1.49,6.28ZM156.79,80.75l-22.05-5.21,1.49-6.28,22.05,5.21-1.49,6.28Z"/>
          <path class="cls-3" d="M268.49,100.69l-1.49,6.26,10.75,2.56,1.49-6.26-10.75-2.56Z"/>
        </g>
        <g>
          <path class="cls-3" d="M79.56,164.45l-1.49,6.26,10.75,2.56,1.49-6.26-10.75-2.56Z"/>
          <path class="cls-3" d="M177.02,194.24l-22.05-5.21,1.49-6.28,22.05,5.21-1.49,6.28ZM132.92,183.75l-22.05-5.21,1.49-6.28,22.05,5.21-1.49,6.28Z"/>
        </g>
        <g>
          <path class="cls-3" d="M243.69,174.07c-1.03.09-1.96.58-2.63,1.37-1.29,1.56-1.16,3.83.25,5.23.07.08.15.16.24.22.07.06.15.08.22.13-.57-.43-1-.99-1.28-1.68-.36-.96-.34-2.03.09-2.97.88-1.93,3.2-2.8,5.11-1.93-.62-.31-1.3-.43-2.01-.37ZM241.75,181.02c.23.18.5.35.77.47-.29-.11-.54-.29-.77-.47Z"/>
          <path class="cls-3" d="M247.74,176.59c-.21-.55-.58-1.01-1.01-1.41,1.41,1.38,1.57,3.66.28,5.21-.67.8-1.6,1.29-2.63,1.39-.39.04-.78.03-1.16-.06,1.79.42,3.65-.48,4.43-2.18.41-.95.45-1.99.09-2.95ZM246.14,174.69c.24.14.4.33.6.5-.09-.08-.15-.16-.22-.22-.12-.11-.24-.21-.38-.28Z"/>
          <path class="cls-3" d="M285.72,155.81c.76-3.02.36-6.13-1.07-8.85-3.97,2.35-22.08,13.11-33.62,19.88,1.06-13.33,2.83-34.32,3.22-38.9-3.08-.1-6.06.91-8.44,2.9-2.63,2.16-4.23,5.21-4.53,8.62-.9,10.54-2.38,27.61-2.97,34.81-2.06,1.37-3.48,2.57-4.93,3.82-2.07,1.77-4.44,3.78-9.17,6.6l-.93.55-.37-1.03c-1.32-3.64-3.99-6.51-7.51-8.1-3.47-1.55-7.32-1.67-10.84-.32-3.54,1.34-6.35,3.98-7.9,7.43-1.56,3.48-1.62,7.38-.17,10.99,1.39,3.45,4.05,6.27,7.29,7.73,5.25,2.35,11.74,1.04,16.17-3.25,3.51-3.13,7.29-5.92,11.25-8.33,2.65-1.61,5.09-2.73,7.34-3.64.16,2.42.24,5.12-.06,8.21-.44,4.6-1.3,9.24-2.6,13.74-1.93,5.86-.26,12.26,4.15,15.94,2.73,2.3,6.43,3.45,10.14,3.19,3.88-.28,7.38-2.04,9.81-4.96,2.45-2.9,3.58-6.56,3.26-10.32-.35-3.76-2.12-7.18-5.02-9.6-2.97-2.48-6.74-3.65-10.59-3.24l-1.08.12.09-1.07c.48-5.48,1.27-8.47,1.96-11.13.48-1.85.94-3.63,1.28-6.1,6.23-3.65,20.96-12.46,30.06-17.88,2.9-1.74,4.97-4.52,5.77-7.82ZM213.06,193.82c-2.38,1.72-5.19,2.18-7.34,1.45-.95-.33-1.78-.9-2.36-1.73-1.91-2.63-.66-6.79,2.8-9.28,2.18-1.58,4.71-2.11,6.75-1.63,1.21.29,2.23.93,2.95,1.89,1.91,2.65.65,6.81-2.81,9.3ZM250.47,206.18l.26.06c3.04.72,4.93,4.49,4.22,8.55-.74,4.18-3.93,7.13-7.15,6.58-.99-.17-1.85-.67-2.57-1.38-1.61-1.6-2.41-4.34-1.91-7.23.74-4.18,3.93-7.13,7.15-6.58ZM241.06,175.43c.67-.78,1.6-1.27,2.63-1.37.71-.06,1.39.06,2.01.37.11.05.22.12.33.18.04,0,.08.02.11.07.74.43,1.29,1.1,1.6,1.91.36.96.32,2-.09,2.95-.78,1.7-2.65,2.6-4.43,2.18-.14-.03-.26-.06-.37-.11-.12-.03-.21-.07-.31-.11-.36-.15-.69-.35-.99-.61-.09-.06-.18-.15-.24-.22-1.41-1.4-1.54-3.67-.25-5.23Z"/>
        </g>
        <path class="cls-3" d="M179.79,200.96l-108.15-25.57c-3.31-.78-5.38-4.12-4.59-7.43l2.8-11.85,114.16,26.99,1.48-6.26-114.04-26.97,17.31-73.21,196.54,46.47-2.15,9.08,6.15,1.46,6.34-26.8c1.6-6.78-2.61-13.59-9.4-15.2L101.75,48.04c-6.77-1.6-13.59,2.61-15.19,9.38l-25.78,109.05c-1.6,6.76,2.62,13.57,9.38,15.17l108.15,25.57,1.48-6.26ZM92.83,58.91c.79-3.33,4.12-5.39,7.44-4.6l184.47,43.62c3.33.79,5.4,4.12,4.61,7.45l-2.71,11.46-196.52-46.47,2.71-11.46Z"/>
        <path class="cls-3" d="M170.66,114.1l24.11,22.7c2.24,2.12,1.36,5.87-1.59,6.74l-31.73,9.49c-2.96.89-5.76-1.76-5.06-4.75l7.61-32.19c.71-2.99,4.41-4.11,6.65-1.99Z"/>
      </g>
    </g>
  </g>
</svg>