<?xml version="1.0" encoding="UTF-8"?>
<svg id="Vrstva_2" data-name="Vrstva 2" xmlns="http://www.w3.org/2000/svg" xmlns:xlink="http://www.w3.org/1999/xlink" viewBox="0 0 473.75 409.69">
  <defs>
    <style>
      .cls-1 {
        fill: none;
      }

      .cls-2 {
        fill: rgba(13, 186, 181, .15);
        isolation: isolate;
        opacity: .44;
      }

      .cls-3 {
        fill: #f0f8ff;
      }

      .cls-4 {
        clip-path: url(#clippath);
      }
    </style>
    <clipPath id="clippath">
      <rect class="cls-1" x="24.54" y="31.03" width="424.67" height="347.64" transform="translate(-29.08 39.5) rotate(-8.98)"/>
    </clipPath>
  </defs>
  <g id="Vrstva_1-2" data-name="Vrstva 1">
    <g class="cls-4">
      <g>
        <path class="cls-2" d="M272.77,23.19l-170.68,26.98c-5.99.95-11,5.01-13.19,10.68L26.93,222.15c-2.16,5.66-1.15,12.05,2.65,16.75l108.71,134.31c3.8,4.72,9.85,7.04,15.84,6.09l170.68-26.98c5.99-.95,11-5.01,13.18-10.68l61.97-161.29c2.16-5.66,1.15-12.05-2.65-16.74L288.61,29.28c-3.8-4.72-9.85-7.04-15.84-6.09Z"/>
        <path class="cls-2" d="M319.63,30.42l-170.68,26.98c-5.99.95-11,5.01-13.19,10.68l-61.97,161.29c-2.16,5.67-1.15,12.05,2.65,16.75l108.71,134.31c3.8,4.72,9.85,7.04,15.84,6.09l170.68-26.98c5.99-.95,11-5.01,13.19-10.68l61.97-161.29c2.16-5.66,1.15-12.05-2.65-16.75l-108.71-134.31c-3.8-4.72-9.85-7.04-15.84-6.09Z"/>
        <g>
          <path class="cls-3" d="M251.96,194.81l-39.12,20.44-.1,2.24c-.05.75-.17,1.51-.41,2.24-1.43,4.57-6.3,7.11-10.85,5.68-2.21-.7-4.03-2.2-5.09-4.26-1.07-2.07-1.29-4.4-.59-6.61.7-2.21,2.2-4.03,4.26-5.09,2.05-1.07,4.41-1.27,6.61-.59.73.24,1.43.56,2.06.96l1.89,1.21,39.15-20.44-6.33-12.13-75.27,10.01-12.73,24.57-18.13,9.48,24.18,46.31,18.13-9.46,27.28,3.4,51.41-55.83-6.33-12.13ZM164.79,258.29l-16.95-32.48,13.39-6.99,12-23.17,65.82-8.76.2.37-28.41,14.83c-.59-.26-1.2-.5-1.83-.69-4.19-1.32-8.67-.92-12.57,1.1-3.9,2.05-6.75,5.48-8.07,9.68-1.34,4.2-.92,8.65,1.1,12.55s5.46,6.78,9.66,8.09c8.67,2.71,17.93-2.12,20.67-10.79.19-.63.35-1.25.46-1.89l28.41-14.83.2.35-44.99,48.84-25.7-3.22-13.39,6.99Z"/>
          <path class="cls-3" d="M328.93,270.01c-1.06.55-2.17.92-3.31,1.1-1.61.25-3.27.14-4.85-.35-2.74-.86-4.99-2.72-6.3-5.26-1.34-2.56-1.6-5.45-.75-8.19.59-1.86,1.64-3.51,3.07-4.76l-22.93-43.83c4.58,29.71-4.01,60.86-24.53,84.04l-.77.89-4.11-3.62.79-.89c24.14-27.28,30.79-66.17,17.81-99.69-.09.01-.19.03-.28.04-4.54.72-9.23-1.48-11.49-5.75-2.3-4.41-1.32-9.68,2.08-12.98-20.07-30.01-55.9-46.9-92.3-42.61l-1.17.14-.64-5.44,1.17-.14c30.8-3.63,61.24,7.1,83.02,27.84l-22.55-43.11c-.18.05-.39.09-.58.12-4.43.7-9.01-1.44-11.2-5.63-.55-1.06-.92-2.17-1.09-3.27-.7-4.45,1.46-9.02,5.63-11.2,2.53-1.33,5.45-1.6,8.19-.75,2.74.86,4.97,2.72,6.3,5.28,1.33,2.53,1.58,5.43.72,8.17-.59,1.88-1.64,3.51-3.09,4.79l32.92,62.93c1.85-.41,3.77-.31,5.63.26,2.81.87,5.1,2.8,6.46,5.4,2.35,4.47,1.27,9.85-2.27,13.15l33.12,63.32c4.61-1.02,9.54,1.12,11.83,5.51,2.74,5.25.71,11.73-4.54,14.47v.02Z"/>
        </g>
      </g>
    </g>
  </g>
</svg>