<?xml version="1.0" encoding="UTF-8"?>
<svg id="Vrstva_2" data-name="Vrstva 2" xmlns="http://www.w3.org/2000/svg" xmlns:xlink="http://www.w3.org/1999/xlink" viewBox="0 0 499.25 499.25">
  <defs>
    <style>
      .cls-1 {
        fill: none;
      }

      .cls-2 {
        fill: rgba(13, 186, 181, .15);
        isolation: isolate;
        opacity: .44;
      }

      .cls-3 {
        fill: #f0f8ff;
      }

      .cls-4 {
        clip-path: url(#clippath);
      }
    </style>
    <clipPath id="clippath">
      <rect class="cls-1" x="48.37" y="48.37" width="402.52" height="402.52" transform="translate(-59.99 80.03) rotate(-16.29)"/>
    </clipPath>
  </defs>
  <g id="Vrstva_1-2" data-name="Vrstva 1">
    <g class="cls-4">
      <g>
        <path class="cls-2" d="M314.55,21.19L27.3,166.28c-6.76,3.41-9.47,11.66-6.06,18.42l145.09,287.25c3.41,6.76,11.66,9.47,18.42,6.06l287.25-145.09c6.76-3.41,9.47-11.66,6.06-18.42L332.97,27.25c-3.41-6.76-11.66-9.47-18.42-6.06Z"/>
        <path class="cls-2" d="M391.01,58.85L71.03,93.15c-7.53.81-12.98,7.56-12.17,15.09l34.3,319.98c.81,7.53,7.57,12.98,15.09,12.17l319.98-34.3c7.53-.81,12.98-7.57,12.17-15.09l-34.3-319.98c-.81-7.53-7.57-12.98-15.09-12.17Z"/>
        <g>
          <path class="cls-3" d="M227.78,275.49l-44.61,13.04-2.48,20.48c-.6,5.04-.62,8.64.04,10.88.52,1.77,1.81,3.07,3.87,3.88,2.07.86,5.91.65,11.59-.55l.91,3.13-36.26,10.6-.91-3.13c4.56-2.24,7.36-4.28,8.37-6.04,2.1-3.55,3.65-10.03,4.77-19.38l12.8-106.66,2.99-.87,68.1,84.14c5.47,6.76,9.87,10.89,13.15,12.42,3.33,1.51,7.35,1.75,12.14.65l.91,3.13-45.45,13.28-.91-3.13c4.51-1.57,7.41-3.23,8.62-5,1.25-1.78,1.58-3.6,1.04-5.47-.72-2.47-3-6.11-6.86-10.81l-11.79-14.54v-.05ZM223.56,269.88l-33.16-40.86-6.46,52.44,39.57-11.56h.05Z"/>
          <path class="cls-3" d="M331.35,274.91c-6.18,8.49-10.17,13.56-11.9,15.08-2.67,2.3-5.67,3.99-9.13,5-5.37,1.57-10.33,1.04-14.91-1.62-4.58-2.66-7.72-7.01-9.47-12.99-1.1-3.78-1.23-7.34-.31-10.6,1.2-4.56,4.17-9.32,8.91-14.41,4.75-5.08,13.11-11.99,25.03-20.79l-.9-3.08c-2.26-7.75-5.03-12.71-8.35-14.88-3.32-2.17-7.33-2.57-12-1.2-3.55,1.04-6.11,2.85-7.65,5.38-1.59,2.54-2.01,5.1-1.28,7.57l1.63,4.89c.76,2.61.7,4.81-.25,6.61-.95,1.79-2.45,3.05-4.6,3.67-2.15.63-4.05.37-5.77-.69-1.79-1.1-3.03-2.91-3.77-5.43-1.42-4.85-.25-10.06,3.54-15.62,3.81-5.52,10.21-9.62,19.21-12.25,6.91-2.02,12.89-2.5,18.01-1.46,3.88.79,7.1,2.79,9.79,6.11,1.74,2.13,3.71,6.97,5.9,14.48l7.72,26.41c2.17,7.42,3.63,11.91,4.4,13.51.77,1.6,1.57,2.58,2.38,2.95.82.37,1.65.43,2.49.18.89-.26,1.63-.68,2.2-1.3.95-1.09,2.68-3.82,5.05-8.21l1.39,4.76c-3.86,10.35-8.69,16.37-14.48,18.06-2.75.81-5.28.48-7.47-.96-2.19-1.44-4-4.5-5.44-9.1l.03-.06ZM329.74,269.4l-8.66-29.63c-7.55,5.9-12.4,9.9-14.45,12.07-3.76,3.78-6.21,7.34-7.34,10.6-1.12,3.27-1.23,6.54-.29,9.76,1.19,4.06,3.4,7.11,6.61,9.11,3.22,2,6.4,2.49,9.57,1.56,4.29-1.26,9.15-5.76,14.51-13.46h.05Z"/>
        </g>
      </g>
    </g>
  </g>
</svg>