<?xml version="1.0" encoding="UTF-8"?>
<svg id="Vrstva_2" data-name="Vrstva 2" xmlns="http://www.w3.org/2000/svg" xmlns:xlink="http://www.w3.org/1999/xlink" viewBox="0 0 144 80">
  <defs>
    <style>
      .cls-1 {
        stroke: #f28c1b;
        stroke-miterlimit: 10;
        stroke-width: .15px;
      }

      .cls-1, .cls-2 {
        fill: #f28c1b;
      }

      .cls-3 {
        fill: #010202;
      }

      .cls-4 {
        fill: none;
      }

      .cls-5 {
        fill: #030303;
      }

      .cls-6 {
        clip-path: url(#clippath);
      }
    </style>
    <clipPath id="clippath">
      <rect class="cls-4" width="144" height="80"/>
    </clipPath>
  </defs>
  <g id="Vrstva_1-2" data-name="Vrstva 1">
    <g class="cls-6">
      <g>
        <path class="cls-3" d="M5.48,75.83c-.67,0-1.32-.06-1.95-.19-.63-.12-1.21-.31-1.75-.57-.54-.26-1.03-.57-1.46-.95-.14-.1-.23-.24-.28-.39-.05-.15-.06-.29-.02-.42.04-.14.09-.25.19-.34.09-.09.2-.15.33-.16.12,0,.26.04.4.16.64.53,1.33.92,2.04,1.17.72.25,1.55.38,2.5.38,1.33,0,2.32-.29,2.99-.86.66-.57,1-1.33,1-2.27,0-.78-.24-1.39-.72-1.82-.49-.44-1.28-.78-2.38-1.03l-2.12-.49c-1.33-.29-2.32-.79-2.95-1.5-.64-.7-.96-1.64-.96-2.8,0-.72.13-1.37.38-1.95.25-.58.61-1.08,1.06-1.51.46-.42,1.01-.74,1.64-.97.63-.23,1.34-.34,2.1-.34.91,0,1.75.15,2.5.42.77.28,1.46.73,2.08,1.33.12.11.21.24.25.39.05.15.05.29,0,.42-.04.14-.1.24-.19.31-.08.08-.19.13-.32.13-.12,0-.26-.05-.4-.18-.59-.53-1.2-.92-1.83-1.16-.63-.24-1.34-.36-2.1-.36s-1.47.14-2.04.42c-.58.28-1.03.68-1.35,1.19-.33.51-.48,1.13-.48,1.82,0,.81.22,1.46.67,1.94.45.48,1.17.83,2.16,1.05l2.14.49c1.41.32,2.46.81,3.15,1.46.68.65,1.03,1.53,1.03,2.66,0,.67-.12,1.28-.36,1.83-.24.55-.6,1.03-1.06,1.44-.46.41-1.02.71-1.66.93-.65.21-1.38.31-2.21.31l-.03.04Z"/>
        <path class="cls-3" d="M13.99,61.39c-.29,0-.52-.08-.68-.26-.16-.18-.24-.42-.24-.73s.07-.55.24-.71c.17-.16.39-.25.68-.25s.52.08.68.25c.16.17.24.4.24.71s-.07.55-.24.73c-.16.17-.39.26-.68.26ZM13.99,75.74c-.21,0-.37-.07-.49-.21-.11-.14-.17-.32-.17-.56v-10c0-.25.06-.44.17-.56.11-.12.27-.19.49-.19.2,0,.35.06.46.19.11.12.17.31.17.56v10c0,.23-.05.42-.16.56-.11.15-.26.21-.47.21Z"/>
        <path class="cls-3" d="M18.67,75.79c-.21,0-.36-.06-.48-.19-.11-.13-.17-.3-.17-.54v-10.17c0-.25.06-.44.17-.56.11-.12.27-.19.48-.19s.35.06.45.19c.1.12.16.31.16.56v2.22l-.23-.17c.25-.92.68-1.63,1.28-2.12.6-.49,1.32-.74,2.16-.74.9,0,1.62.24,2.15.73.54.48.89,1.21,1.06,2.18h-.32c.23-.88.68-1.57,1.33-2.1.65-.53,1.41-.79,2.3-.79.76,0,1.38.17,1.88.49.49.32.87.81,1.12,1.46.25.65.37,1.46.37,2.44v6.56c0,.23-.06.42-.17.54-.11.12-.27.19-.48.19s-.35-.06-.46-.19c-.11-.13-.17-.3-.17-.54v-6.45c0-1.14-.18-1.97-.53-2.49-.35-.52-.95-.78-1.79-.78-.9,0-1.61.34-2.14,1.04-.53.7-.79,1.64-.79,2.81v5.87c0,.23-.06.42-.17.54-.11.12-.26.19-.47.19s-.36-.06-.48-.19c-.11-.13-.17-.3-.17-.54v-6.45c0-1.14-.18-1.97-.53-2.49-.35-.52-.95-.78-1.77-.78-.91,0-1.62.34-2.16,1.04-.53.7-.79,1.64-.79,2.81v5.87c0,.48-.21.73-.63.73h0Z"/>
        <path class="cls-3" d="M36.38,80c-.21,0-.37-.06-.49-.19-.11-.12-.17-.3-.17-.53v-14.38c0-.25.06-.44.17-.56.11-.13.27-.19.49-.19.2,0,.35.06.46.19.11.12.17.31.17.56v2.39l-.23-.15c.23-.94.69-1.68,1.36-2.22s1.48-.82,2.43-.82,1.7.24,2.38.73c.68.48,1.2,1.16,1.57,2.03.37.88.55,1.91.55,3.1s-.19,2.24-.55,3.12c-.37.88-.89,1.56-1.56,2.03-.67.48-1.47.71-2.39.71s-1.76-.27-2.43-.81c-.67-.54-1.13-1.27-1.36-2.18h.23v6.43c0,.23-.06.42-.17.53-.11.12-.26.19-.46.19v.02ZM40.38,74.64c.68,0,1.28-.19,1.79-.55s.91-.9,1.19-1.6c.28-.7.42-1.54.42-2.52,0-1.48-.31-2.63-.92-3.44s-1.44-1.22-2.47-1.22c-.68,0-1.28.19-1.79.55s-.91.9-1.19,1.59c-.28.7-.42,1.53-.42,2.51,0,1.5.31,2.65.92,3.46.62.81,1.44,1.22,2.47,1.22Z"/>
        <path class="cls-3" d="M50.71,75.83c-.93,0-1.66-.32-2.17-.98-.5-.66-.77-1.58-.77-2.78v-12.32c0-.25.06-.43.17-.55.11-.11.27-.18.48-.18s.35.06.46.18c.11.11.17.3.17.55v12.16c0,.91.16,1.57.48,2.02.33.45.79.67,1.4.67.14,0,.26,0,.35-.02.1-.01.2-.02.29-.02.12-.02.22.01.28.08.07.07.09.22.09.43s-.05.39-.15.49c-.09.11-.26.19-.48.23-.1.02-.2.03-.31.03-.1,0-.21.01-.33.01h.03Z"/>
        <path class="cls-3" d="M58.16,75.83c-1.05,0-1.95-.23-2.7-.7-.76-.47-1.34-1.14-1.74-2.01-.4-.88-.61-1.91-.61-3.12s.21-2.22.61-3.09c.41-.88.97-1.57,1.69-2.07.72-.5,1.55-.75,2.48-.75.68,0,1.29.12,1.81.39.52.26.97.63,1.34,1.09.36.48.65,1.05.85,1.73.2.68.29,1.45.29,2.3,0,.22-.05.39-.16.49-.1.11-.25.17-.43.17h-7.56v-1.05h7.36l-.34.3c0-.91-.12-1.67-.35-2.3-.23-.64-.59-1.11-1.06-1.46-.47-.34-1.05-.51-1.73-.51-.77,0-1.42.2-1.95.59-.53.4-.92.95-1.2,1.64-.26.7-.4,1.49-.4,2.4v.11c0,1.5.33,2.65.98,3.45.65.8,1.58,1.2,2.76,1.2.51,0,1.02-.07,1.49-.23.49-.16.95-.42,1.41-.79.14-.11.28-.17.41-.17s.24.04.34.11c.09.08.15.18.19.29.04.11.03.24-.02.38-.05.14-.14.25-.28.36-.45.41-.98.71-1.62.93-.63.21-1.25.31-1.89.31h0Z"/>
        <path class="cls-3" d="M74.27,75.83c-.95,0-1.76-.17-2.46-.5-.68-.33-1.2-.8-1.56-1.41-.35-.6-.53-1.31-.53-2.14,0-.51.07-.99.19-1.43.12-.44.32-.85.58-1.25.26-.4.59-.79.98-1.18.39-.39.86-.78,1.39-1.19l.67-.51-.17.3c-.71-.88-1.2-1.6-1.48-2.21-.27-.6-.41-1.21-.41-1.83,0-.7.14-1.31.43-1.83.29-.52.69-.93,1.2-1.23.51-.29,1.13-.45,1.82-.45.88,0,1.62.28,2.21.85.6.57.89,1.35.89,2.35,0,.54-.09,1.05-.28,1.53-.19.48-.51.96-.97,1.45-.46.49-1.12,1.04-1.97,1.65l.04-.4,4.09,5.19h-.29c.2-.39.37-.84.53-1.35.16-.51.29-1.08.38-1.7.09-.61.16-1.26.19-1.93.03-.23.09-.41.19-.51.09-.1.24-.17.44-.17.18,0,.32.06.42.19.09.12.13.3.1.54-.03.81-.11,1.57-.25,2.29-.14.72-.32,1.38-.52,1.99-.21.6-.45,1.17-.73,1.68l-.02-.49,2.12,2.69c.14.16.21.31.2.47,0,.16-.07.28-.17.36-.1.08-.24.13-.41.13-.15,0-.27-.03-.36-.08-.09-.05-.2-.16-.33-.31l-1.74-2.22h.35c-.56.84-1.25,1.5-2.07,1.97-.82.47-1.73.7-2.7.7v-.02ZM74.31,74.62c.85,0,1.62-.21,2.29-.61.67-.42,1.24-1.02,1.72-1.81v.54l-4.51-5.64.47.05-.65.49c-.65.5-1.18.96-1.56,1.36-.38.42-.65.83-.81,1.26-.16.43-.24.92-.24,1.46,0,.91.28,1.61.84,2.13.56.51,1.38.77,2.47.77h0ZM74.95,60.15c-.65,0-1.2.22-1.61.65-.41.43-.62.99-.62,1.67,0,.34.05.67.15.97.1.3.27.65.52,1.03.25.39.6.86,1.05,1.44l-.39.07c.71-.53,1.27-.99,1.68-1.4.41-.4.71-.78.89-1.15.18-.36.27-.74.27-1.14,0-.66-.18-1.18-.54-1.56-.36-.39-.83-.58-1.4-.58Z"/>
        <path class="cls-2" d="M91.39,75.83c-.99,0-1.77-.25-2.35-.74-.58-.49-.93-1.19-1.07-2.08-.14-.9-.05-1.94.28-3.12.25-.91.58-1.71.99-2.42.41-.71.89-1.31,1.44-1.81.55-.5,1.16-.89,1.83-1.16.67-.27,1.37-.41,2.11-.41.51,0,1.02.09,1.51.29.49.2.9.52,1.22.97.07.09.1.2.1.32s-.05.25-.12.36c-.07.11-.16.21-.26.28-.1.07-.21.11-.34.11s-.22-.05-.32-.18c-.29-.35-.63-.6-.98-.74-.36-.14-.74-.2-1.11-.2-.57,0-1.1.1-1.6.3-.49.2-.93.5-1.34.89-.4.39-.77.86-1.07,1.44-.31.57-.56,1.22-.77,1.95-.4,1.47-.41,2.62-.04,3.45.38.83,1.14,1.25,2.27,1.25.37,0,.78-.06,1.21-.2.43-.14.9-.38,1.38-.74.16-.12.3-.19.41-.18.11,0,.21.05.27.11.07.07.1.17.1.28s-.03.24-.09.36c-.07.12-.15.23-.28.32-.56.45-1.13.77-1.73.96-.6.19-1.15.28-1.67.28v.02Z"/>
        <path class="cls-2" d="M99.79,75.83c-.93,0-1.57-.32-1.9-.98-.34-.66-.33-1.58,0-2.78l3.37-12.32c.07-.25.17-.43.32-.55.15-.12.32-.18.53-.18.2,0,.34.06.41.18.07.11.08.3.02.55l-3.33,12.16c-.25.91-.27,1.57-.07,2.02.2.45.61.67,1.22.67.14,0,.26,0,.36-.02.1-.01.2-.02.3-.02.13-.02.21.01.26.08.05.07.04.22-.03.43-.07.21-.15.39-.28.49-.13.11-.31.19-.55.23-.1.02-.21.03-.32.03-.1,0-.21.01-.33.01h0Z"/>
        <path class="cls-2" d="M107.25,75.83c-1.05,0-1.89-.23-2.51-.7-.62-.47-1.03-1.14-1.19-2.01-.17-.88-.08-1.91.24-3.12.33-1.21.81-2.22,1.46-3.09.64-.88,1.4-1.57,2.25-2.07.86-.5,1.76-.75,2.69-.75.68,0,1.25.12,1.71.39.46.26.8.63,1.04,1.09.24.48.36,1.05.37,1.73,0,.68-.1,1.45-.34,2.3-.06.22-.16.39-.29.49-.13.11-.29.17-.48.17h-7.56l.29-1.05h7.35l-.42.3c.25-.91.34-1.67.27-2.3-.07-.64-.28-1.11-.66-1.46-.37-.34-.91-.51-1.59-.51-.77,0-1.48.2-2.11.59-.64.4-1.19.95-1.64,1.64-.46.7-.81,1.49-1.06,2.4l-.03.11c-.41,1.5-.4,2.65.04,3.45.44.8,1.25,1.2,2.44,1.2.51,0,1.04-.07,1.56-.23.52-.16,1.07-.42,1.63-.79.17-.11.32-.17.46-.17s.23.04.3.11c.07.08.1.18.1.29s-.04.24-.12.38c-.08.14-.21.25-.38.36-.56.41-1.18.71-1.87.93-.69.21-1.34.31-1.97.31h.02Z"/>
        <path class="cls-2" d="M117.55,75.79c-.21,0-.37-.06-.48-.19-.1-.12-.18-.31-.22-.56l-1.08-9.82c-.02-.19,0-.36.08-.53.07-.17.17-.29.3-.4.13-.1.3-.16.5-.16.18,0,.31.05.37.14.06.09.1.24.12.45l.97,10.05h-.52l6.51-10.05c.12-.2.25-.35.37-.45.12-.09.28-.14.46-.14s.3.05.36.16c.07.1.08.23.05.39-.04.16-.1.32-.22.51l-6.47,9.85c-.15.25-.32.44-.51.56-.19.12-.38.19-.58.19h0Z"/>
        <path class="cls-2" d="M128.95,75.83c-1.05,0-1.89-.23-2.51-.7-.63-.47-1.02-1.14-1.19-2.01-.17-.88-.08-1.91.24-3.12.33-1.21.81-2.22,1.46-3.09.64-.88,1.4-1.57,2.25-2.07.86-.5,1.76-.75,2.69-.75.68,0,1.25.12,1.71.39.46.26.8.63,1.05,1.09.23.48.36,1.05.37,1.73,0,.68-.1,1.45-.34,2.3-.06.22-.16.39-.29.49-.13.11-.29.17-.48.17h-7.56l.29-1.05h7.36l-.42.3c.25-.91.34-1.67.27-2.3-.07-.64-.28-1.11-.65-1.46-.37-.34-.9-.51-1.59-.51-.76,0-1.48.2-2.11.59-.64.4-1.19.95-1.64,1.64-.46.7-.81,1.49-1.06,2.4l-.03.11c-.41,1.5-.39,2.65.04,3.45.44.8,1.25,1.2,2.44,1.2.51,0,1.04-.07,1.56-.23.52-.16,1.07-.42,1.63-.79.17-.11.32-.17.46-.17s.23.04.3.11c.07.08.1.18.11.29,0,.11-.04.24-.12.38-.08.14-.21.25-.38.36-.56.41-1.18.71-1.87.93-.68.21-1.35.31-1.97.31h-.02Z"/>
        <path class="cls-2" d="M136.23,75.79c-.21,0-.35-.06-.43-.19-.07-.12-.08-.3-.02-.54l2.78-10.17c.07-.25.18-.44.32-.56.15-.13.33-.19.53-.19s.33.06.4.19c.07.12.07.31,0,.56l-.57,2.08h-.21c.5-.92,1.15-1.63,1.93-2.13.78-.5,1.63-.76,2.55-.77.18-.02.3.02.38.11s.1.24.05.45c-.05.22-.13.39-.26.5-.13.11-.31.19-.54.22l-.3.02c-1.02.11-1.89.48-2.61,1.09-.72.63-1.21,1.47-1.5,2.52l-1.66,6.05c-.07.23-.17.42-.31.54-.14.13-.32.19-.54.19h0Z"/>
        <path class="cls-1" d="M59.17,42.46c-3.2,0-5.83-.82-7.89-2.49-2.06-1.66-3.39-4.04-3.99-7.16-.6-3.12-.3-6.86.9-11.23,1.2-4.39,2.96-8.15,5.28-11.26,2.32-3.12,4.96-5.51,7.94-7.17,2.98-1.66,6.04-2.48,9.22-2.48,1.99,0,3.77.31,5.33.94,1.57.63,2.87,1.55,3.89,2.76,1.03,1.21,1.75,2.69,2.15,4.44.4,1.75.45,3.73.13,5.96h-6.58c.12-1.22.06-2.29-.21-3.22-.26-.93-.68-1.72-1.27-2.37-.59-.65-1.32-1.14-2.19-1.48-.87-.33-1.85-.51-2.94-.51-1.99,0-3.91.56-5.76,1.68-1.85,1.11-3.5,2.75-4.96,4.89-1.46,2.14-2.61,4.75-3.45,7.82-.85,3.12-1.13,5.74-.83,7.87.3,2.13,1.06,3.74,2.31,4.83,1.24,1.09,2.85,1.64,4.8,1.64,1.09,0,2.17-.17,3.22-.51,1.06-.33,2.05-.82,3.02-1.48.95-.65,1.82-1.44,2.6-2.38.78-.94,1.43-2.01,1.95-3.21h6.61c-.78,1.95-1.81,3.77-3.1,5.48-1.29,1.7-2.78,3.2-4.47,4.49-1.69,1.29-3.52,2.3-5.49,3.03-1.97.73-4.03,1.09-6.19,1.09v.02Z"/>
        <path class="cls-1" d="M80.71,41.92L91.86,1.21h6.54l-9.47,34.56h16.11l-1.68,6.15h-22.65Z"/>
        <path class="cls-1" d="M109.05,41.92L120.21,1.21h23.7l-1.68,6.15h-17.16l-3.01,10.98h15.89l-1.66,6.06h-15.89l-3.11,11.37h17.25l-1.68,6.15h-23.81Z"/>
        <path class="cls-5" d="M2.16,39.5c1.06.69,2.26,1.26,3.59,1.73,1.33.46,2.75.81,4.27,1.04,1.5.23,3,.34,4.45.34,2.31,0,4.38-.3,6.16-.89,1.77-.58,3.32-1.43,4.61-2.51,1.25-1.06,2.26-2.39,2.97-3.91.71-1.52,1.06-3.25,1.06-5.12,0-2.84-.82-5.16-2.44-6.9-1.64-1.76-4.18-3.05-7.56-3.86l-5.86-1.41c-1.89-.44-3.17-1.02-3.94-1.77-.78-.77-1.18-1.76-1.18-2.95,0-1.13.29-2.12.85-2.93.56-.8,1.39-1.45,2.47-1.9,1.06-.44,2.36-.67,3.86-.67,1.36,0,2.74.15,4.06.45,1.34.3,2.6.79,3.73,1.47.86.46,1.61.64,2.19.49.61-.14,1.08-.44,1.48-.92.39-.47.63-1.04.7-1.73.07-.7,0-1.36-.24-2.01-.23-.63-.65-1.16-1.26-1.58-1.42-.99-3.08-1.74-4.93-2.23-1.85-.5-3.74-.75-5.63-.75-2.19,0-4.22.3-6.03.89-1.8.59-3.36,1.45-4.63,2.56-1.26,1.1-2.25,2.46-2.94,4.02-.69,1.56-1.04,3.3-1.04,5.19,0,2.97.78,5.39,2.32,7.2,1.55,1.82,4,3.16,7.26,3.96l5.91,1.4c1.99.44,3.35.99,4.17,1.67.87.71,1.31,1.72,1.31,3,0,1.44-.61,2.64-1.81,3.56-1.19.91-3.03,1.34-5.63,1.34-1.69,0-3.41-.22-5.12-.66-1.71-.44-3.33-1.09-4.81-1.96-.53-.31-1.05-.47-1.52-.47-.18,0-.35.02-.5.06-.63.16-1.1.5-1.47,1.03-.37.56-.61,1.19-.7,1.92-.09.72,0,1.41.29,2.1.28.68.79,1.24,1.53,1.68h0Z"/>
        <path class="cls-5" d="M41.21,1.05c-.72-.7-1.78-1.05-3.17-1.05s-2.38.35-3.08,1.05c-.7.7-1.05,1.67-1.05,2.97s.34,2.35,1.05,3.06c.7.72,1.74,1.07,3.08,1.07s2.44-.36,3.17-1.07c.71-.71,1.07-1.73,1.07-3.06s-.35-2.27-1.06-2.97h0Z"/>
        <path class="cls-5" d="M38.05,42.49c1.22,0,2.15-.38,2.74-1.14.61-.76.92-1.88.92-3.29v-20.03c0-1.46-.31-2.56-.93-3.29-.61-.72-1.52-1.08-2.72-1.08-1.13,0-2.02.36-2.64,1.08-.63.73-.96,1.83-.96,3.28v20.03c0,1.42.33,2.53.96,3.29.63.76,1.52,1.15,2.64,1.15Z"/>
      </g>
    </g>
  </g>
</svg>