<?xml version="1.0" encoding="UTF-8"?>
<svg id="Vrstva_2" data-name="Vrstva 2" xmlns="http://www.w3.org/2000/svg" xmlns:xlink="http://www.w3.org/1999/xlink" viewBox="0 0 491.15 481.1">
  <defs>
    <style>
      .cls-1 {
        fill: none;
      }

      .cls-2 {
        fill: #28c2bd;
      }

      .cls-3 {
        fill: #f39935;
      }

      .cls-4 {
        clip-path: url(#clippath);
      }
    </style>
    <clipPath id="clippath">
      <rect class="cls-1" x="17.58" y="18.05" width="456" height="445" transform="translate(-19 21.08) rotate(-4.73)"/>
    </clipPath>
  </defs>
  <g id="Vrstva_1-2" data-name="Vrstva 1">
    <g class="cls-4">
      <g>
        <path class="cls-2" d="M186.85,212.61c.58,0,1.52.27,2.55.62-.31-.26-.46-.48-.86-.78l-1.72.14.02.02Z"/>
        <path class="cls-2" d="M206.41,239.48s-.08.03-.12.05c.12-.05.24-.1.34-.15q.14-.05-.22.1Z"/>
        <path class="cls-2" d="M223.01,234.99c.21-.02.43-.06.64-.1-.1,0-.31.03-.64.1Z"/>
        <path class="cls-2" d="M179.05,216.68c1.57-.13,3.47-.12,5.3-.15-3.06-.72-6.24-.96-5.3.15Z"/>
        <path class="cls-2" d="M221.29,235.3c.45-.1,1.19-.22,1.72-.31-.51.08-1.09.17-1.72.31Z"/>
        <path class="cls-2" d="M185.6,253.33s.07-.11.13-.18l-.13.18Z"/>
        <path class="cls-2" d="M42.7,171.5c-.69,5.24,1.56,6.82,4.67,7.29-1.82-1.58-3.39-3.75-4.67-7.29Z"/>
        <path class="cls-2" d="M36.64,282.53c-.78-.6-1.8-1.14-2.86-1.57,1.3,1.37,2.63,2.13,2.86,1.57Z"/>
        <path class="cls-2" d="M81.18,224.68c1.46.03,2.68-.08,3.77-.25-1.05-.37-2.3-.39-3.77.25Z"/>
        <path class="cls-2" d="M230.62,161.73l-3.14-1.01c1.61.62,2.55.89,3.14,1.01Z"/>
        <path class="cls-2" d="M288.42,163.52s.16-.03.24-.06c-.08,0-.16.04-.24.06Z"/>
        <path class="cls-2" d="M289.2,163.31c-.18.06-.35.09-.53.15.22-.06.43-.12.53-.15Z"/>
        <path class="cls-2" d="M185.45,253.57s-.02.04.02-.02l.09-.17s.05-.13.07-.17c-.01.1-.36.65-.03.11-.24.39-.18.31-.15.24v.02Z"/>
        <path class="cls-2" d="M324.75,415.95c3.12-2.3,4.25-4.24,4.33-6.06-1.55,1.94-3.23,3.78-4.66,5.86l.33.2Z"/>
        <path class="cls-2" d="M349.16,317.52c.1.24.23.5.31.7.05-.15-.03-.39.04-.56l-.35-.16v.02Z"/>
        <path class="cls-2" d="M321.82,425.61c.08,1.22.1,2.45.51,3.93,1.24-.91.64-2.32-.51-3.93Z"/>
        <path class="cls-2" d="M162.34,195.23c-.37-.43-.8-.81-1.11-1.28.2.44.61.87,1.11,1.28Z"/>
        <path class="cls-2" d="M338.81,312.74c3.43,1.67,6.87,3.22,10.37,4.78-.72-1.6-1.46-3.27-2.38-5.4-5.23-6.56-8.18-2.67-7.97.62h-.02Z"/>
        <path class="cls-2" d="M321.82,425.61c-.24-4.12.86-7.21,2.6-9.87l-5.37-3.67c-6.6,3.87-.13,9.52,2.77,13.54Z"/>
        <path class="cls-2" d="M75.08,175.58c-1.86.4-3.35-.47-4.64-1.95-.64-.74-1.22-1.62-1.75-2.58-.29-.46-.5-1.02-.8-1.39-.34-.31-.7-.61-1.01-.89-2.69-2.36-5.08-4.28-7.04-3.24,2.3,5.38,4.85,10.5,7.58,15.35-2.52-2-6.08-2.43-9.76-2.35-3.68.08-7.47.66-10.29.27,5.06,4.3,11.06,2.72,17.29,2.83,3.11.03,6.2.44,9.24,1.88,3.03,1.43,5.97,3.94,8.94,7.85,6.26,4.95,2.52,11.07-.07,14.23,2.22-3.66,5.11-2.71,7.69-.49,2.6,2.24,5.4,5.58,7.28,7.43-2.96,1.51-4.35,4.27-5.64,6.64-1.37,2.38-3.02,4.49-7.17,5.21,1.44.48,2.41,1.65,2.95,2.94.54,1.29.56,2.72-.14,3.88l-4.18.12c3.54,5.51,4.09-1.73,8.42-.18.67,1.86-1.32,4.19-3.19,6.96-1.86,2.73-3.73,6.01-3.16,9.14-.57-3.09-2.36-5.88-4.6-8.56-2.26-2.66-4.76-5.37-7.05-7.94-3.83,6.33-9.11,6.16-14.87,3.27-5.75-2.81-11.78-8.49-17.08-10.75,2.2,6.7,5.38,11.14,8.91,14.99,3.62,3.78,7.56,7.05,11.49,11.2-3.6,5.89-11.14,7.08-18.21,5.79-3.51-.65-6.9-1.84-9.43-3.19-2.53-1.35-4.29-2.76-4.67-3.61,3.44,6.06,9.4,11.35,14.91,15.55,5.62,4.17,11.13,7.13,14.1,9.23-8.93-1.63-14.64-2.2-19.91-2.74-5.28-.6-10.2-1.15-17.44-4.3-3.83,6.06-2.43,9.17.55,10.96,3.02,1.81,7.82,2.39,11.44,3.84-2.21-2.25-4.31-6.24-1.37-7.94,1.52,11.86,25.5,3.03,37.44,4.33-2.16,4.36-2.79,10.11-4.18,15.47-1.49,5.36-4,10.52-10.89,13.36l14.2-7.1c7.45,5.98-5.01,7.88-8.93,11.6,5.62-1.05,11.28-4.45,16.92-6.23,5.66-1.82,11.01-2.1,16.55,2.19-11.23,6.25-9.88,9.24-8.02,12.27,1.89,3.01,4.4,5.9-4.72,13.18,3.08,2.45,7.51,2.14,11.7,1.99,4.18-.14,7.85-.09,9.64,3.44-1.43,7.69-8.67,11.76-16.4,12.26-3.83.27-7.69-.32-10.64-1.41-2.9-1.09-4.76-2.7-4.88-4.34-4.2-4.48-1.77-5.82,1.15-6.54,2.94-.7,6.41-.88,4.83-2.56-4.15-1.32-8.34-2.82-12.33-4.53-.09,1.98-.04,4.31.15,6.79.21,2.48.38,5.11.34,7.67-.12,5.13-1.14,10.1-5.7,12.97,3.05,1.66,4.73,1.48,5.64.45.89-1.03,1.07-2.92,1.4-4.77.61-3.75,1.55-7.24,8.18-4.36.4,3.28.9,6.6,1.51,9.96,7.09,2.66,9.54-1.25,12.18-4.36,2.67-3.18,5.29-5.53,12.6-1.56-7.85.8-4.51,3.68-.26,7.91,4.08,4.22,9.73,9.32,4.65,16.23,3.06-4.35,6.33-5.6,9.7-5.34.84.06,1.69.23,2.54.46.81.18,1.62.41,2.43.71,1.63.57,3.28,1.35,4.95,2.15,3.32,1.64,6.7,3.17,9.84,3.39,3.14.24,6.01-.85,8.25-4.55-1.81-2.43-3.55-4.89-5.17-7.33-.79,3.08-1.53,6.18-2.23,9.29-4.07-1.41-8.4-1.78-12.59-2.81-2.13-.55-4.04-1.06-6.12-2.28-2.06-1.18-3.96-2.77-5.61-4.9,5.51-1.12,7.2-5.34,9.13-9.24,1.88-3.94,3.98-7.57,9.09-8.49,2.41-.37,3.98-.7,5.13-.72,1.15-.01,1.81.23,2.14.65.63.86-.12,2.51-1.39,4.34-2.51,3.68-7.24,7.92-6.31,8.34,5.23-1.53,10.21-3.28,14.97-5.42-.97-3.66-1.79-7.3-2.45-11.03,8.63.03,18.05,2.85,27.14,6.28,5.53,7.7,4.77,10.38,3.16,13.03-1.51,2.62-3.9,5,.78,11.9,3.04-1.79,4.32-4.12,5.74-5.63,1.44-1.51,2.94-2.24,6.24-1.08-2.91-6.44-6.84,1.9-9.45.57-.51-6.93,2.89-7.89,6.21-8.98,3.41-1.03,6.97-2.07,7.2-8.42,1.95,5.21,1.2,10.51-1.44,15.82,11.65-4.17,20.35-2.58,25.71,13.72,1.21-5.55,2.27-11.09,3.19-16.63,4.34,1.05,5.85,2.43,6.02,4.29.15,1.82-1.08,4.04-2.58,6.33-2.89,4.59-6.73,9.81,1.84,14.16,3.34.39,6.57.16,9.21-1.01,2.55-1.21,4.43-3.4,5.14-6.89l-5.3.44c1.29-4.75,1.54-8.63,2.07-12.21.51-3.6,1.44-6.8,3.56-10.32,4.23.73,4.66,11.78,7.36,1.87,7.06,2.93,9.83,8.57,10.85,15.53,1.05,6.94.17,15.15.86,22.73,6.29,2.77,7.19,10.55,6.8,16.7-.37,6.14-1.84,10.55,1.2,6.18l-3.02-2.97c2.17-7.96,3.89-15.94,5.23-23.89-7.47-7.16-7.14-2.92-6.3,1.17.9,4.08,2.49,7.97-1.89-.22l-6.31.21c-.14-4.71,3.52-6.32,6.99-8.17,3.39-1.88,6.63-3.92,5.58-9.05,1.8,5.09,4.26,17.45-1.79,19.95,3.09,6.09,6.25,12.13,9.54,18.16,4.53.66,2.73-12.87,7.63-4.98,4.91,5.21,4.6,10.77,4.83,15.1.14,2.15.43,4,1.75,5.3.66.65,1.55,1.16,2.83,1.49,1.24.33,2.96.5,4.83.47,8.1-.75,9.68-6.94,10.37-12.86.74-5.95.54-11.82,5.74-12.39-2.82-3.66-4.81-2.2-7.88-1.55.11-7.5-7.02-10.38-4.49-17.2,4.07,5.57,8.34,7.11,12.45,6.73,4.16-.32,7.9-2.75,11.21-4.69,1.66,7.48,9.63,11.43,9.46,16.36,2.81-3.52,5.01-7.38,3.33-13.57-4.67-.11-6.57-1.41-6.99-3.17-.42-1.75.56-4.08,1.5-6.57,1.94-4.99,3.68-10.43-4.72-13.23,10.08-5.24,18.55,3.66,28.9,5.18,1.01,1.83-.68,5.59-1.15,8.71-.45,3.12.32,5.67,6.61,4.84,1.27-9.55-2.23-13.17-6.03-16.97-3.85-3.78-7.98-7.76-9.32-17.22-2.95.04-5.87.03-8.77-.02-5.28-6.9-3.47-9.45-.44-10.84,3.01-1.41,7.24-1.83,6.78-3.87,3.01.44,2.61,2.3,2.72,4.91s.71,6.04,5.99,9.4c3.83-.52,4.73-3.49,5.55-5.97.84-2.48,1.48-4.57,5.19-3.47,2.21,5.85,3.04,7.49,3.73,9.03.67,1.55,1.27,3.06,2.62,8.71,6.3-5.41,8.33-2.77,10.65,1.07,2.31,3.78,4.75,8.76,12.29,7.05,1.73-4.55-7.08-10.29-.39-12.97-11.44-6.6-13.84-10.11-21.84-3.62-4.57-8.19-1.45-9.45,2.72-10.46,4.15-.97,9.22-1.91,7.87-8.31-5.01,2.89-3.76-1.43-6.25,4.78-11.07-10.67-13.98-11.15-20.2-25.05-.62,3.52,1.3,8.73,2.13,13.43.87,4.69.61,8.91-4.17,10.06-11.64-10.58.23-16.16-13.36-31.28-1.94-5.06.02-7.55,3.61-8.54s8.88-.48,13.04.46c-1.95-7.14-1.49-12.27-2.01-17.76-.54-5.49-1.88-11.18-7.45-18.79,3.78-.08,4.1-5.29,4.42-10.72.1-2.8.2-5.65.85-8.08.32-1.21.79-2.33,1.46-3.28.63-.99,1.45-1.8,2.57-2.42,8.44,3.52,10.75-6.76,16.54,3.04-2.05-2.14-.09-9.91-8.29-11.81,2.27,2.04-.26,1.71-.53,3.37l-9.31-6.55c3-.75,1.85-3.84.84-6.68-.96-2.83-1.96-5.52,1.95-5.9,8.8,2.41,2.31,9.29,13.02,11.34-6.79-5.51-10.25-12.38-11.28-17.97-1.11-5.67.52-10.11,4.63-11.53,3.12-2.57,16.81.81,18.73-.41.19-2.22.33-4.52.43-6.82,4.6.2,9.89,1.24,15.79.98,3.86-3.15-.35-6.79-2.56-9.48,5.16-4.61,10.34-5.74,15.43-4.35,5.1,1.41,9.9,5.11,14.09,9.11-1.91,2.07-3.82,4.14-5.77,6.01,5.43,6,1.21,12.11,14.52,11.05-.55-3.68-5.85-4.72-8.5-6.51,2.64-.82,5.3-1.69,7.95-2.61-2.37-2.67-3.8-6.86-6.03-10.67-2.2-3.69-5.2-6.72-10.18-6.52,3.94-3.99,3.81-9.03,3.5-14.1-.15-2.53-.33-5.03-.09-7.63.27-2.54,1.04-5.06,2.71-7.73-2.82,3.67-5.49,3.39-8.36,2.71-2.87-.7-5.98-1.77-9.76-.46-.54,3.52-1.38,6.69-2.23,9.86-.78-1.83-1.91-3.9-3.03-5.95-1.17-2.09-2.44-4.31-3.41-6.44-1.04-2.2-1.85-4.42-2.05-6.61-.29-2.24-.02-4.49,1.1-6.81,3.14-.38,5.22-.58,7.13-1.42,1.91-.85,3.66-2.3,5.89-5.38-3.17,4.26-7.06,1.06-10.93-.7-1.93-.9-3.92-1.51-5.74-.92-1.85.57-3.45,2.35-5.14,5.92,4.62,2.9,7.07,6.63,7.08,12.08-6.36,2.94-10.31,2.33-13.64,1.05-3.36-1.32-6.29-3.54-10.48-4.29-1.1-.95-2.36-2.09-3.71-3.33-1.39-1.24-2.98-2.52-4.58-3.78-3.39-2.42-6.97-4.64-10.57-5.66.39-2.28,3.62-5.87,5.17-8.98,1.56-3.02,1.43-5.86-4.18-5.52-1.07,3.69-3.13,5.94-5.53,7.43-2.42,1.51-5.21,2.3-8.11,3.19-2.91.84-5.88,1.67-8.7,2.9-2.87,1.28-5.57,2.96-8.02,5.22.65-3.44-2.45-2.21-4.75-1.23-2.34.9-4.08,1.73-2.26-3.66,3.82-3.19,8.18.36,16.16-5.79,3.3-3.45,7.15-8.45,11.39-12.36,2.13-1.94,4.39-3.57,6.81-4.5,1.21-.45,2.48-.75,3.79-.77,1.29.02,2.65.26,4,.81-1.33-3.24-2.8-4.7-4.22-5.16-1.42-.49-2.81.03-4.2.89-2.77,1.75-5.65,4.77-8.77,4.82,1.22.38,2.44.82,3.67,1.36-1.89.86-3.42,3.22-4.83,5.06-1.41,1.86-2.67,3.24-3.81,2.35-3.1-4.78-3.88-9.33-4.06-14.79-.19-5.29.23-11.54-1.08-18.82-.64,3.55-2.6,6.31-4.55,8.18-1.95,1.89-3.89,2.86-4.81,2.77-1.63-5.4.12-10.16,2.73-15.33,2.53-5.2,6-10.77,5.9-18.5-6.29,7.03-10.92,2.71-11.26,9.94-3.24-.88-.39-3.94-1.92-7.33-2.23,3.49-4.21,6.21-6.14,7.87-1.92,1.72-3.78,2.39-5.85,1.79,1.3-3.96,3.41-9.87,7.1-6.6-3.69-4.56-2.62-19.06,1.62-26.26,2.62,2.47,5.12,4.98,7.61,7.63,3.46-4.03,1.7-5.67-.72-7.45-2.37-1.76-5.24-3.43-3.93-8.04,4.8-1.17,6.39,5.67,9.81,3.97.19-5.28-2.73-6.33-6.13-5.82s-7.33,2.31-9.78,2.39c-7.14-3.22-2.68-12.55-1.77-17.89-4.22,3.39-5.34,6.49-5.19,9.27.17,2.79,1.69,5.33,3.18,7.93,3.03,5.18,5.51,10.17-1.5,16.62-3.22,5.34-7.04,7.28-10.97,8.13-3.88.88-8.17.64-11.19,1.68,2.15,6.85,1.48,11.59-.25,15.14-1.75,3.58-4.61,5.91-7.43,8.08,3.61.3,3.83,4.28,4.25,7.05.22,1.4.46,2.5,1.21,2.75.77.27,1.88-.43,4.24-2.37l-.93,10.71c-1.65-.3-3.28-1.58-4.97-2.92-1.69-1.32-3.45-2.69-5.1-2.78.78-2.91.06-5.33,1.25-7.09-3.49,1.58-6.89,3.09-10.16,4.9l.8-7.14c-1.62-.24-3.35-.91-5.14-1.72-1.77-.75-3.59-1.6-5.34-2.3-3.49-1.46-6.7-1.96-8.38.24,3.13-1.47,6.93,8.7,4.2,12.22-1.22,4.86-3.43,10.39-6.16,9.91-1.76-5.93-5.28-8.4-7.9-10.85-2.6-2.51-4.45-5.21-2.25-12.11-3.92,4.19-4.75,6.59-5.49,9.23-.7,2.62-1.37,5.31-4.18,10.14,1.41-1.59,2.89-3.11,4.4-4.67,1.64,4.67,2.45,11.28,3.79,17.28,1.31,6.01,3.09,11.41,5.92,13.86-1.59,3.71-.32,9.53.65,14.9.99,5.37,1.73,10.3-.39,12.18-1.98-2.5-3.54-7.24-4.14-11.82-.63-4.57-.27-9.11,1.13-10.81-1.94-.28-5.31-4.78-4.92,2.26-2.01-3.62-2.39-7.27-2.28-10.46.07-3.19.6-5.87.01-7.41-3.74.68,1.69,5.08-.67,8.79-.9,6.25-3.07,2.73-5.67-1.32-2.54-4.01-5.48-8.57-6.9-4.05,1.04-1.04,4.37,1.01,4.72,5.91-3.59,1.46-3.55,4.16-2.93,7.32.61,3.13,1.77,6.82.69,10.15-4.49-5.72-8.38-12.1-11.85-17.09-3.48-5-6.61-8.6-9.96-8.62l2.9-1.43c-5.46-5.27-9.55-6.68-11.55-5.12-1.12,4.36-1.62,9.06-1.64,13.97-.06,4.83.4,9.89,1.03,14.74.59,4.82,1.53,9.67,2.27,14.04.83,4.47,1.52,8.53,1.9,12.2-.12-1.68-.13-3.3-.12-4.98,4.19,2.77,2.17,6.29,6.12,10.04-1.96-1.04-3.98-2.06-6-3.04,3.58,3.78,6.16,4.69,8.55,5.7,2.41.99,4.7,2.17,7.84,6.11-1.04-.73-1.69-.59-1.27.27,1.09.33,2.21.75,3.28,1.14-2.44-.03-.7,3.88-.07,6.24.64,2.44.34,3.61-6.92-.78,1.4-3.2-4.02-8.57-9.71-14.17-5.69-5.62-11.76-11.47-10.39-16.78-.46,6.51-8.6-7.07-12.15-9.91-3.7.6,4.79,6.55.06,6.5-2.75-2.54-4.14-6.27-5.53-9.63-1.4-3.34-2.79-6.32-6.01-6.97,8.09,8.38,4.29,9.03,9.24,15.46-3.94-.24-5.52-5.03-8.97-6.64-.59,1.46,2.72,5.39.71,5.33l-4.8-5.38c-6.37-.49-4.64,1.82-2.22,4.61,2.4,2.84,5.47,6.2,1.8,8.42,7.52,5.8,7.12,2.7,7.6-1.02,8.66,5.98,11.63,11.39,15,16.65,3.38,5.34,7.25,10.53,16.7,16.8.01,2.95-1.56,1.52-4.16-.74-2.56-2.2-5.96-5.31-9.67-4.86-6.68-2.73-9.45-5.5-11.36-8.67-1.9-3.13-2.87-6.48-6.54-10.05-3.63-.07-7.38-.06-11.04.19-7.14-5.96-8.8-9.15-10.23-12.09-1.45-2.96-2.79-5.74-9.11-11.23-4.12,4.29-.14,6.4,2.37,14.76,8.31-.06,10.06,2.47,12.15,5.42,2.06,3.01,4.47,6.41,13.17,9.37-5.8.44-8.58-2.49-11.22,2.13-1.75-4.99-12.96-7.54-10.72-11.95-2.83,7.62,1.66,7.68-.62,15.11,5.3,3.91,9.94,4.09,13.74,4.96,3.8.81,6.75,2.31,9.22,7.74-.56,1.54-4.88-.82-4.43-1.71-3.48,1.51.32,2.91,5.54,4.72,5.21,1.79,11.78,4.18,14.22,6.91.64,2.46-4.36,1.13-6.84-.89,2.64,2.9,6.24,4.72,9.33,6.22,3.1,1.49,5.74,2.67,6.77,4.04l1.76-.15c1.63,1.03,6.88,2.82,11.67,4.84,4.79,2,9.13,4.13,9.02,5.58-.68,1.91-7.34-1.08-11.45-2.48,1.82,1.62,1.72,2.4.57,2.8-1.11.43-3.27.46-5.65.47,2.48.56,4.91,1.42,4.81,1.97,3.25,4-11.04-.96-13.22-.13-3.76,1.83,2.18,2.92,8.93,4.23,6.75,1.31,14.37,2.97,14.33,4.99.84-.65,1.62-1.28,2.47-1.89l2.57-1.73c6.04,1.73,15.27,4.08,15.28,3.4-4.6-1.26-8.79-2.75-11.57-4.14-2.76-1.37-4.22-2.69-3.26-3.18,5.31,1.54,7.94,3.38,10.86,4.86,2.88,1.53,6.01,2.6,11.98,3.54-1.98.02.75,1.56-.34,1.94-5.66-1.74-6.34-1.31-7.22-.9-.86.36-1.79.75-8.15-1.34.58,1.16.43,1.92.11,2.55-.28.63-.82,1.13-1.22,1.64-.09.11-.18.28-.24.37-.04.07-.07.13-.07.19,0,.12.09.28.31.43.42.3,1.65.76,3.74,1.11-3.57-.06-9.99-.44-14.93-1.43-4.79-.93-8.16-2.24-5.22-3.37l6.57.66c-3.77-2.02-5.67-1.8-8.07-1.1-1.2.35-2.52.79-4.23,1.04-1.69.18-3.75.19-6.56-.21,4.45,1.4,6.02,2.29,6.2,3.23.06.45-.28.92-.86,1.4-.52.48-1.31,1-2.18,1.57-1.82,1.13-3.72,2.41-4.96,3.76-1.04,1.27-1.4,2.7.51,3.43,5.78-1.89,9.42-1.74,15.52-2.95-1.8-.66-4.11-.39,3.31-2.27,8.31-1.04,5.24-.06,11.09-.96,4.56-.81,4.53-.83,4.05-.86-.48,0-1.54-.02.86-.4,2.44-.18,3.92-.41,5.75-.71h.14s-.04,0-.04,0h-.08s-.16.04-.16.04c-.12.01-.27.02-.41.06-.29.04-.64.11-1.11.19-.84.17-1.25.27-1.64.34-.9.2-1.76.42-2.78.65-1.61.38-3.37.82-5.35,1.34-.33.24.34.14,1.53-.19-1.18.35-2.3.69-3.18,1.03-.93.33-1.83.76-2.93,1.16-1.09.4-2.42.95-4.26,1.91,4.1-2-1.93.89,2.55-1.21-.83.36-1.65.74-2.47,1.18.8-.42,1.66-.82,2.59-1.23.46-.18.93-.37,1.39-.55l.71-.27c.12-.03.24-.1.36-.15l.18-.08.1-.05s-.06,0-.08,0c-2.01.69-3.92,1.26-6.04,1.58-3.17.47-5.91.88-7.82,1.17-3.23.5-7.24,1.18-12.54,2.53.58.51,1.93.67,3.44.76,1.54.04,3.27.02,5.04-.23,1.48-.21,3.01-.42,4.65-.65,1.27-.19,2.19-.45,2.35-.28l-3.77,1.71c-.26.65.97-.1,2.65-.95,1.7-.87,3.97-2.08,5.7-2.84.18-.08.36-.15.54-.23l.1-.05h-.08s-.2.13-.2.13c-.28.13-.52.25-.78.36-.5.25-.94.47-1.38.72-.42.24-.79.46-1.17.68-.71.43-1.39.84-2.04,1.25-1.81,1.07-3.35,2.09-3.62,2.32-.14.12.05.04.64-.36.32-.21.63-.43.99-.64-.16.12-.31.23-.49.37.67-.51,1.36-.99,2.05-1.42l1.03-.63c.34-.17.7-.39,1.11-.65-1.71,1.04-1.37.8-.87.53.52-.27,1.53-.94,1.07-.65-.85.57-1.53.88-2.36,1.4-.79.48-1.7,1.16-2.5,1.77-1.4.89-3.1,2.5-4.03,3.35-2.2,2.12-2.95,3.84-2.4,2.74-.05.13-.1.24-.2.39.07-.13.2-.35.33-.53-.13.16-.26.39-.11.13l.71-.95c-.15.18-.3.38-.45.6-.09.13-.13.18-.13.18l-.06.07s-.17.22-.31.48c.15-.24.2-.39.2-.39-.02.06-.18.35-.18.35.03-.09.05-.09.04-.06-.09.17-.02.04,0,0,.04-.07.07-.15.12-.26l.03-.11v-.04s.02,0,.02,0c15.99-38.14,31.84-75.93,47.53-113.34-15.71,37.47-31.54,75.22-47.53,113.32v.02s0,.04,0,.04l-.07.13c-.04.07-.05.11-.09.17l-.07.11s.06-.09.07-.11c.11-.2.22-.35.32-.46.24-.35.65-.91.98-1.23-.23.29,1.7-1.87-.06.07.04-.04.08-.09.13-.16.08-.09.17-.16.44-.47.46-.52,1.04-1.08,1.5-1.48-.23.19.18-.14.49-.42.17-.16.27-.25.12-.11-.17.18-.43.37-.97.85.25-.23.47-.41.64-.55.16-.12.4-.39.54-.5.31-.28.49-.42.66-.58.18-.14.37-.3.72-.58.18-.14.39-.28.67-.49.28-.19.59-.4,1.14-.82-.29.21,1.51-1.16,3.36-2.15,2.13-1.4,4.3-2.35,4.02-2.23.76-.33.78-.38,1.32-.65.54-.25,1.64-.88,4.75-2.04-.77.31-2.87,1.07-4.21,1.76-1.34.67-1.9.95.42-.2-.5.23-1,.48-1.5.75l-1.4.66c-3.91,2.11.99-.66-3.98,2.24.16-.1.34-.19.54-.29.24-.14.48-.29.73-.46.52-.31,1.05-.63,1.57-.9,1.04-.56,1.98-.97,2.32-1.13-.72.39,1.35-.8,3.67-1.72,1.13-.43,2.38-.94,3.35-1.32.97-.37,1.64-.59,1.72-.6,1.28-.36,2.96-1.04,6-1.79-.41.1,1.27-.31-1.1.28-1.97.56-3.41,1.03-5.69,1.76.63-.22,2.7-.89,5.16-1.63,2.57-.65,5.16-1.34,7.36-1.65-.64.09-.7.14.37-.07.57-.11,1.29-.23,2.03-.33.64-.07,1.3-.15,1.88-.22.89-.11,1.45-.12.99-.08l1.24-.1h.33c.08,0,.27.01.1,0-.19.02-.4,0-.65-.03l-.77-.04-.99-.09c.15,0,.32.04.63.05.33.01.73.04.98.04-.71-.02-1.44-.07-2.22-.17l-.29-.04,31.84,3.46.32.04.61.07c.27.04.08,0-.23-.02-11.62-1.26-26.3-2.86-32.52-3.53l32.56,3.52.82.14-.21-.04c.44.05,2.28.41,2.67.51,1.49.38,1.6.41,3.01.92-.02,0-.77-.29-1.2-.42.38.09,1.22.42,1.33.45.35.14.52.21.65.28l.07.04h.02s0,.02,0,.02l-1.17-.53c-3.33-1.49-6.45-2.94-9.02-4.23-.35-.43,1.93.67,4.58,2.01,1.11.55,2.74,1.35,4.13,2.03.67.32,1.28.6,1.71.82h.04c-.3-.15-.63-.31-.96-.46-1.54-.79-3.22-1.63-4.82-2.43-2.92-1.51-4.13-2.32,2.79,1.31-7.54-4.01-16.04-9.38-19.78-10.49.36-.38-4.12-3.97-8.34-6.84,14.44,9.37,6.24,2.87,18.1,10.48,1.36.53,3.07,1.37,2.46.52-.5-.77-3.19-3.27-9.92-9.62,4.68,4.15,9.39,8.25,14.14,12.29-.46-.48-.96-1.09-1.4-1.59,3.11,2.86,2.37,2.18,5.35,4.92.29.29.7.61.85.74-.94-.78-1.75-1.52-2.8-2.68.14.15.16.17.21.23,0,0,0,.02,0-.02l-.16-.15c-.2-.21-.41-.42-.62-.66-.68-.73-1.46-1.56-2.72-2.89-5.16-5.75-1.16-1.71-2.6-3.51,1.57,1.89,1.53,1.83,5.18,6.21l-.37-.45c-.28-.35.18.19.11.12.07.08.09.12.12.16,0-.02-.05-.06-.12-.14-.05-.06-.37-.43-.05-.06l-.16-.21.21.23.37.47c.77,1.02,0-.04-.23-.31.46.56.8,1.06,1.22,1.63.31.47-.07-.1.52.77,1,1.48,1.91,3.17,2.32,4.11l-.35-.76c.15.32.2.44.25.54-1.12-2.47-2.19-4.77-3.23-7.07-1-2.23-1.92-4.35-3.02-6.82.58.72.88.76,1.36,1.26.43.44,1,1.23,1.89,3.42.64,2.15,1.44,4.56,2.33,7.07.52,1.48.79,2.22,1.2,3.42,0,.02.03.08.05.16.03.12,0,.04,0,.04v-.04c-.22-.86-.46-1.77-.72-2.87-.2-.84-.42-1.8-.68-2.94.67,2.82,1.09,4.59,1.37,5.73,0,0,0-.08-.01-.12-.01-.12-.04-.22-.06-.26-.2-.94-.5-3.31-.37-6.25,0,.04-.03.88-.01.38.02-1.02.1-1.61.1-1.76.76-8.74,1.49-17.03,2.17-24.89v-.15c.07-.32.11-.59.13-.84.14-.78.24-1.37.31-1.83-.11.63-.17.97-.2,1.16-.03.13-.01.11,0,0,.14-.78.23-1.31.32-1.71.09-.44.16-.78.24-1.1.16-.55.27-1.46.87-3.63.16-.6-.2.66-.5,1.98-.23,1-.38,1.7-.48,2.18.2-.91.38-1.74.56-2.5.2-.87.42-1.68.65-2.45.44-1.76.95-3.36,1.57-5.18.27-.77-1.1,3.27-.18.6.56-2,1.43-4.07,2.25-6.26.43-1.1.88-2.17,1.39-3.28.52-1.08.93-2.14,1.47-3.18,2.13-4.21,4.2-7.69,5.95-10.12.36-.47.64-.86.9-1.24.48-.71.97-1.33,1.45-1.89.25-.29.47-.56.7-.81.17-.22.34-.42.49-.62.64-.78,1.24-1.39,1.74-1.87.96-.97.31-.32-.85.86,2.65-2.96,5.28-4.64,5.5-4.78-.1.07-.22.14-.38.24-.08.05-.16.12-.22.16-.12.07-.22.14-.32.21.42-.26.39-.28.61-.43.18-.12.38-.24.62-.36.18-.1.14-.1.36-.2-.54.25-.76.31-1.58.59-.35.11-.61.17-.94.26-.41.12-.77.23-1.12.3.35-.09.74-.18,1.1-.3-2.63.74-6.77,1.48-12.42,1.65-5.69.18-12.88-.14-22.57-1.65-2.3-.33-3.93-.69-5.5-.96-1.54-.27-2.69-.51-3.58-.68-1.61-.35-2.42-.53-3.35-.72-.93-.21-1.85-.41-3.48-.77-.38-.09-.81-.2-1.3-.31.45.11.83.18,1.11.28.58.18.84.32.65.36-3.71-1.02-6.44-1.76-11.59-3.16-1.45-.42-1.01-.17.09.39,2.05,1.33,6.6,4.26,4.11,3.8l3.83,1.18c5.05,2.62,4.8,3.58,2.66,3.44-2.15-.11-6.36-1.37-10.02-2.73-1.13.41-1.75,1.21-1.29,2.79.64,1.65,2.38,4.11,6.45,8.22l-4.65-3.63c1.32,1.39,1.81,2.2,1.89,2.71.04.5-.34.67-.7.87-.76.38-1.36.74.98,3.79-1.59-1.35-3.87-3.96-5.84-4.68-1.51.08-2.54.48-3.44.99-.96.45-1.5,1.29-2.07,2.11-1.07,1.71-1.6,4.1-2.29,6.6-.36,1.24-.64,2.63-1.12,3.79-.44,1.24-.92,2.51-1.57,3.5-.31.52-.64,1.03-1,1.52-.38.45-.79.79-1.22,1.14-.43.35-.88.65-1.36.88-.51.17-1.02.29-1.58.34-.52.04-1.03.09-1.57.13-.52-.02-1.06-.02-1.56-.02-.5,0-1.08.09-1.48.04-.38-.07-.76-.08-1.12-.16-1.39-.24-2.45-.65-2.65-1.07v-.08s-.04-.08,0,.02l.07.81.37,3.17c.24,2.1.29,4.32.44,6.35.09,2.09.08,4.24.12,6.17,0,1-.04,2-.1,3.03-.03.94-.06,1.83-.12,2.78-.51,7.45-2,13.37-3.29,16.66-.31.8-.5,1.31-.87,2.03-.07.17-.14.32-.25.52l-3.83,6.62c.24-.41.46-.74.67-1.01.33-.49.69-.95,1.02-1.29,1.54-1.79,3.83-3.52,5.33-4.29,1.51-.83,2.1-.82,1.24-.64-.86.2-3.01.43-5.3.17,0,0-.52-.02-1.39-.22-.17-.03-.38-.05-.57-.08-1.02-.23-2.08-.45-3.16-.67-1.76-.4-3.57-.83-5.4-1.32-3.68-.96-7.53-2.1-11.45-3.42-3.9-1.3-7.85-2.78-11.89-4.45-8.04-3.31-16.26-7.39-24.25-11.89-7.91-4.48-15.63-9.44-22.97-14.32-14.7-9.74-27.86-19.2-39.26-22.54l-.07.13Z"/>
        <path class="cls-2" d="M149.43,184.48c.24-.12.46-.23.81-.32-.5.04-.72.14-.81.32Z"/>
        <path class="cls-2" d="M231.22,127.49c-.48.02-.87.36-1.23.75.51.1.94-.04,1.23-.75Z"/>
        <path class="cls-2" d="M334.26,106.06l-3.02-.96c1.06.7,2.02.98,3.02.96Z"/>
        <path class="cls-2" d="M350,309.28c3.15,2.38,6.23,7.12,9.51,11.5,3.3,4.37,6.8,8.36,11.17,8.83,3.61-3.23,4.19-6.77,3.45-10.1-.76-3.37-2.91-6.71-5.06-10-2.15-3.29-4.27-6.53-5.05-9.71-.81-3.2-.31-6.3,2.89-9.41-4.26.41-8.46.74-12.61.96,5.45,4.46,8.63,9.12,9.81,13.54,1.2,4.39.45,8.49-1.65,11.58-2.94-1.84-5.91-3.73-8.84-5.63-1.29-2.97-2.17-5.58-2.85-8.04-2.62,1.01,3.5,6.35-.81,6.51l.04-.02Z"/>
        <path class="cls-2" d="M351.53,302.54c-.26-.06-.53-.1-.79-.18.08.16.06.27.09.39.22-.08.38-.18.71-.2h-.02Z"/>
        <path class="cls-3" d="M217.2,191.79c.35.47.64,1.42.91,2.48.09-.4.22-.64.28-1.13l-1.2-1.36Z"/>
        <path class="cls-3" d="M207.34,229.23s-.04-.04-.09-.05c.09.05.18.11.24.15q.09.05-.15-.09Z"/>
        <path class="cls-3" d="M218.3,237.29c.11.12.23.21.34.33-.04-.04-.16-.15-.34-.33Z"/>
        <path class="cls-3" d="M208.48,187.87c1.06,1.2,2.18,2.73,3.29,4.22-1.1-2.93-2.76-5.68-3.29-4.22Z"/>
        <path class="cls-3" d="M217.31,236.39c.27.23.68.61.99.9-.32-.29-.63-.57-.99-.9Z"/>
        <path class="cls-3" d="M167.73,51.83c-2.79,1.23-4.22,2.6-4.77,3.99-.55,1.38-.25,2.75.51,4.16.43-2.41,1.56-5.06,4.26-8.15Z"/>
        <path class="cls-3" d="M61.13,123.94c0-1.08-.19-2.27-.51-3.45-.29,2.06-.09,3.67.51,3.45Z"/>
        <path class="cls-3" d="M139.61,116.63c.87,1.18,1.71,2.06,2.54,2.79-.3-1.1-1.07-2.1-2.54-2.79Z"/>
        <path class="cls-3" d="M306.83,237.53l-.95-3.19c.39,1.67.7,2.6.95,3.19Z"/>
        <path class="cls-3" d="M338.05,283.52l-.18-.11s.24.15.18.11Z"/>
        <path class="cls-3" d="M191.57,223.69c.43-.04,1.52-.25,1.5-.27-.31.09-.63.16-1.02.21l-.5.04-.08.03c-.06,0,.68-.08.08,0h.02Z"/>
        <path class="cls-3" d="M122.28,444.79c3.72,1.69,6.14,1.65,7.8.83-2.59-.39-5.2-.92-7.79-1.23v.4Z"/>
        <path class="cls-3" d="M226.18,418.61c-.17.2-.34.42-.49.62.19-.02.36-.2.54-.23l-.07-.39h.02Z"/>
        <path class="cls-3" d="M112.15,446.98c-1.03.69-2.1,1.32-3.17,2.43,1.49.63,2.41-.61,3.17-2.43Z"/>
        <path class="cls-3" d="M220.05,161.58c.18-.56.34-1.13.61-1.65-.32.42-.5,1-.61,1.65Z"/>
        <path class="cls-3" d="M224.49,407.02c.49,3.85,1.05,7.71,1.67,11.57,1.09-1.4,2.22-2.85,3.67-4.71,3.07-7.74-2.36-8.62-5.36-6.86h.02Z"/>
        <path class="cls-3" d="M112.15,446.98c3.5-2.31,6.82-2.87,10.12-2.59l.28-6.64c-7.07-3.89-8.47,4.67-10.4,9.22Z"/>
        <path class="cls-3" d="M183.91,80.75c-1.54-1.31-1.63-3.05-.97-4.93.34-.94.86-1.92,1.45-2.91.27-.48.69-.99.86-1.46.09-.44.17-.91.24-1.35.64-3.55,1.08-6.62-1.17-7.64-3.88,4.94-7.38,9.99-10.44,15.07.4-3.24-1.38-6.4-3.77-9.36-2.37-2.99-5.28-5.66-6.68-8.18-.58,3.35.52,6.01,2.18,8.45,1.66,2.42,3.89,4.71,5.81,7.28,1.9,2.55,3.44,5.33,3.9,8.66.48,3.33-.16,7.15-2.16,11.95-.52,4.04-2.86,6.21-5.66,7.39-1.41.6-2.94.93-4.43,1.12-1.48.21-2.85.32-4.02.29,4.95-.64,5.8,2.33,5.25,5.78-.52,3.58-2.12,7.91-2.75,10.63-1.68-.69-3.4-.84-5.09-.78-1.66.12-3.25.5-4.83.75-3.16.53-6.24.68-9.48-2.09.82,2.93-1.61,6.5-4.62,7.04l-2.68-3.21c-1.55,3.37-.43,3.82,1.11,4.05,1.58.22,3.62.22,4.26,2.44-.68.91-1.86,1.4-3.36,1.71-1.43.35-3.16.53-4.99.81-3.66.53-7.91,1.38-10.17,4.23,2.24-2.83,3.76-6.2,4.85-9.93.55-1.86,1-3.76,1.44-5.69.47-1.91,1-3.79,1.52-5.6-4.21.7-6.95.08-8.84-1.62-1.89-1.69-2.93-4.46-3.41-7.77-.92-6.54.76-15.29-.37-21.04-4.99,6.44-7.27,12.1-8.43,17.71-.62,2.8-1.08,5.56-1.56,8.39-.44,2.7-.91,5.57-1.46,8.86-7.46,1.49-13.17-3.59-16.38-10.11-3.24-6.45-3.76-14.27-2.77-16.14-1.49,3.6-2.56,7.53-3.28,11.5-.73,3.97-1.09,7.95-1.07,11.74,0,7.57.66,14.05.91,18-2.2-4.15-3.95-7.47-5.58-10.31-1.63-2.84-3.1-5.19-4.49-7.49-2.76-4.62-5.28-8.9-7.19-16.96-7.42,1.49-9.31,4.85-8.98,8.54.31,3.74,2.82,7.94,3.96,11.88.36-3.42,2.5-8.03,5.8-6.95-4.7,4.9-1.1,10.66,4.16,16.27,5.3,5.66,12.36,11.4,15.56,16.6-5.08,1.48-9.85,5.37-15.2,8.1-5.3,2.71-10.79,4.53-17.49,1.12l14.65,6.11c-.03,10.17-9.44,1.65-14.88,1.23,4.39,3.69,10.64,5.73,15.65,8.92,5.05,3.18,8.84,7.36,8.9,14.7-6.02-2.21-9.38-2.59-11.43-1.9-1.98.68-2.59,2.4-3.13,4.19-1.08,3.58-1.8,7.47-13.23,5.28.04,4.03,3.38,7.39,6.12,10.5,2.82,3.14,4.95,5.98,3.53,9.73-6.71,3.97-14.59.96-20.01-4.67-5.31-5.49-7.96-13.4-5.62-15.76.73-6.24,3.38-5.27,5.77-3.49,2.42,1.8,4.78,4.37,5.06,2.04-1.61-4.09-3.11-8.35-4.49-12.71-3.12,2.59-6.75,6.84-10.78,10.19-4.08,3.31-8.37,5.87-13.56,4.24,1.6,7,4.69,4.56,7.88,2.57,3.2-2.05,6.47-3.63,8.64,3.44-2.28,2.43-4.53,4.97-6.73,7.59,2.57,7.13,7.21,6.52,11.25,6.54,4.12,0,7.73.55,9.23,8.57-5.55-5.45-5.73-1.08-6.29,4.78-.43,5.82-1.17,13.08-9.65,13.51,2.65-.2,4.72.15,6.38.86.82.35,1.55.81,2.17,1.34.64.47,1.19,1.02,1.66,1.63,1.91,2.42,2.69,5.81,3.43,9.28,1.58,6.79,3.12,14.05,11.82,13,.82-2.73,1.81-5.58,2.77-8.3-2.94,1.24-5.85,2.52-8.77,3.82-1.25-4.01-3.71-7.35-5.38-11.18-.86-1.88-1.59-3.84-1.95-5.89-.17-1.05-.27-2.06-.23-3.23.07-1.21.24-2.43.59-3.71,4.29,3.45,8.64,2.16,12.89,1.22,2.13-.49,4.24-.91,6.29-.79,2.05.14,4.05.83,6.02,2.31,14.67,10.89-10.63,5.5-10.19,7.25,4.34,3.12,8.91,5.77,13.41,8.23,2.36-2.98,4.77-5.84,7.23-8.56,5.35,6.71,8.69,15.94,11.24,25.32-3.01,8.94-5.7,9.89-8.79,10.11-3.02.29-6.31-.23-9.3,7.47,3.18,1.4,5.84,1.12,7.89,1.41,2.07.29,3.51,1.12,4.41,4.48,3.67-6.02-5.44-4.52-5.84-7.36,10.71-8.56,11.14,8,21.99,1.15-3.18,4.59-8.01,6.92-13.9,7.74,2.52,1.77,4.64,3.67,6.2,5.75,1.58,2.01,2.66,4.15,3.04,6.53.79,4.76-.9,10.23-6.33,16.89,5.32-1.92,10.6-4.04,15.79-6.24,3.17,8.56-1.46,8.73-7.03,8.65-5.5,0-11.99-.38-10.95,9.18,1.51,3.16,3.5,5.76,5.94,7.37,2.45,1.63,5.34,2.1,8.74.86-1.12-1.45-2.22-2.9-3.3-4.43,4.75-1.31,8.19-3.17,11.56-4.58,3.36-1.42,6.63-2.4,10.86-2.23,1.78,4.18-7.49,10.21,2.6,7.52,1.5,7.82-1.83,13.13-7.27,17.64-5.42,4.48-12.98,7.98-19.11,12.52,1.11,6.9-5.14,11.7-10.63,14.57-5.47,2.89-10.05,3.95-4.65,4.25l.91-4.13c8.01-2.37,15.82-4.87,23.44-7.78,2.05-10.24-1.42-7.87-4.5-4.97-3.03,2.89-5.5,6.3-.85-1.74-1.25-1.77-2.46-3.6-3.66-5.46,1.98-1.27,3.83-1.3,5.63-.74,1.79.52,3.53,1.62,5.28,2.66,3.51,2.14,7.09,3.84,10.96.32-3.41,4.13-12.78,12.73-18.26,8.62-3.56,5.85-7.02,11.79-10.41,17.73,1.89,4.23,12.61-4.21,8.47,4.12-1.82,6.93-6.82,9.51-10.43,11.95-3.57,2.44-5.76,4.89-1.11,11.99,2.74,3.64,5.52,4.72,8.44,4.86,2.9.09,5.84-.96,8.63-2.17,5.63-2.44,10.54-5.3,13.99-1.1,1.64-4.32-.79-5.32-3-7.78,6.6-3.58,5.19-11.47,12.59-12.54-5.24,12.75,4.3,18.24,11.53,22.09-5.71,5.19-4.74,14.18-9.22,16.49,4.73.71,9.39.74,13.96-3.71-4.96-8.64.15-9,5.62-9.66,2.74-.31,5.64-.78,7.54-2.27,1.9-1.49,2.78-3.97,1.64-8.39,10.64,6.23,7.28,18.47,11.92,28.26-1.1,1.78-5.49,2.14-8.6,3.27-3.06,1.04-4.97,3.07-.59,8.22,9.41-3.59,10.71-8.46,11.99-13.68,1.23-5.26,2.48-10.85,10.39-16.69-1.76-2.6-3.45-5.18-5.1-7.75,3.25-8.05,6.65-7.71,9.71-5.69,3.06,2.01,5.87,5.73,7.52,4.27,1.38,2.86-.59,3.42-2.96,4.8-2.36,1.38-5.13,3.48-5.18,9.89,2.72,3.12,6.01,2.46,8.81,1.95,2.79-.5,5.1-.84,6.25,3.02-4.1,4.77-5.15,6.27-6.16,7.62-1.03,1.35-2.08,2.54-6.52,6.53,8.63,3.05,7.36,6.15,5.17,10.06-2.14,3.86-5.38,8.49.64,14.28,5.25-.7,5.45-11.35,11.84-6.68-.49-13.44,1.29-17.12-9.43-21.06,4.9-7.96,7.97-5.9,11.36-2.73,3.36,3.13,7.13,7.38,12.45,2.94-5.72-2.96-.93-3.94-8.18-3.23,3.47-14.99,2.19-17.86,11.56-29.99-3.66,1.07-7.43,5.32-11.37,8.37-3.91,3.07-8.03,4.95-11.84,1.12,1.46-7.79,5.29-9.61,9.45-11.93,4.22-2.39,8.8-5.37,11.92-15.03,3.65-4.27,7.14-3.54,10.26-.85,3.14,2.65,5.89,7.46,7.45,11.7,5.64-5.06,10.92-7.46,15.9-10.51,4.95-3.05,9.73-7.27,13.77-15.89,2.38,3.38,7.7.94,13.28-1.64,2.79-1.23,5.69-2.68,8.53-3.43,2.83-.78,5.56-.77,8.16.45,1.7,8.99,13.37,5.3,7.2,15.5.42-1.51,2.89-2.78,4.83-4.75,1.98-2.04,3.36-4.67,1.83-8.62-.65,3.01-1.85.8-3.7,1.39l.79-11.34c2.61,2.07,4.99-.62,7.2-3.05,1.11-1.21,2.2-2.35,3.35-2.83,1.14-.51,2.35-.34,3.76,1.12,1.48,4.31-.45,6.13-2.22,8.13-1.76,1.93-3.42,3.96-1.08,9.03.65-4.28,2.18-8.17,4.15-11.51,1.98-3.32,4.38-6.02,6.88-8.04,4.97-4.32,10.39-5.6,14.34-3.16,4.45.96,9.5,14.11,11.9,14.89,2.31-1.23,4.68-2.59,7.02-3.97,2.65,3.8,4.85,8.71,8.7,13.26,2.71.54,4.36-.67,5.46-2.45s1.62-4.05,2.32-5.91c3.83.51,6.8,1.58,9.07,3.1,2.25,1.54,3.74,3.64,4.63,6.13.89,2.49,1.13,5.38,1.01,8.38-.11,2.96-.62,6.06-1.29,9.07-3.29-.02-6.4-.3-9.5-.52-2.56,8.28-11.29,8.82-2.03,18.8,3.31-2.81,1.13-7.77,1.25-11.02,2.44,1.57,4.89,3.17,7.47,4.62,1.16-3.63,4.49-7.63,6.82-12,1.12-2.11,1.99-4.35,2.15-6.5.16-2.14-.41-4.19-2.01-6.1,3.1.22,5.92-.7,8.49-2.08,2.52-1.31,4.93-3.36,7.19-5.3,2.28-1.94,4.58-4.1,7.09-5.72,2.53-1.71,5.33-3.1,8.74-3.68-5.02.48-6.42-1.84-7.59-4.57-1.15-2.77-2.1-6-5.6-8.02-3.47,2.1-6.98,4.03-10.41,5.6,1.23-1.97,2.42-4.28,3.62-6.85,1.21-2.51,2.39-5.09,3.71-7.59,1.34-2.44,2.75-4.74,4.51-6.68,1.78-1.87,3.84-3.4,6.5-4.32,4.57,4.36,5.94,6.12,13.88,5.15-5.55.65-5.29-4.74-6.36-9.19-.5-2.23-1.25-4.22-2.87-5.23-1.62-1.01-4.12-1.01-8.07.4.53,5.84-1.06,10.63-5.81,14.83-6.5-2.77-8.42-6.38-9.39-10.04-.49-1.85-.68-3.73-1.03-5.68-.37-1.97-.87-3.96-1.84-5.92.14-1.55.3-3.44.42-5.51.06-1,.12-2.07.17-3.18,0-1.1-.02-2.22-.05-3.35-.1-2.26-.16-4.5-.59-6.65-.41-2.15-.95-4.21-1.62-6.02,2.12-1.36,6.78-1.37,10.22-2.36,3.42-.95,5.52-3.02,1.55-7.22-7.05,3.35-11.94-.05-16.9-3.57-2.44-1.82-5.01-3.7-7.83-5.22-2.79-1.54-5.76-2.68-9.07-3.18,2.98-2.01.16-3.9-2.07-5.32-2.31-1.49-3.93-2.63,1.39-4.82,2.43.61,3.63,2.63,5.54,4.72,1.78,2.1,4.2,4.38,9.23,5.56,4.76.33,11.09.06,16.8.86,5.67.84,10.8,2.91,12.78,8.7,3-6.34,1.04-8.57-2.12-9.56-3.13-1.05-7.36-1.3-9.32-3.87l1.3,3.89c-3.79-1.79-11.1,1.11-11.27-2.02.44-1.49.97-2.83,1.62-4.09.56-1.23,1.22-2.35,1.99-3.41,1.51-2.14,3.35-4.02,5.35-5.81,2.04-1.83,4.32-3.64,6.77-5.72,2.39-2.05,4.91-4.32,7.42-7.19-3.21,1.68-6.6,1.77-9.29,1.31-2.67-.49-4.71-1.48-5.17-2.36,3.31-4.83,8.19-6.23,13.9-7.22,5.68-1.05,12.24-1.62,18.39-6.35-9.45-.88-8.7-7.43-14.76-3.35-1.25-3.25,2.94-2.7,4.77-5.99-4.15.2-7.53.12-10.04-.54-2.53-.64-4.22-1.86-4.95-3.98,4-1.18,10.07-2.87,9.6,2.2,1.49-5.87,13.98-13.37,22.34-14.02-.49,3.6-1.08,7.14-1.76,10.73,5.31.47,5.59-1.96,5.63-4.96.05-2.98-.25-6.3,4.26-7.9,3.75,3.25-.92,8.52,2.48,10.3,4.4-2.94,3.53-5.89,1.16-8.37-2.39-2.47-6.15-4.63-7.61-6.65-1.5-7.74,8.76-9.38,13.68-11.68-5.15-1.55-8.37-.72-10.56.98-2.19,1.72-3.46,4.47-4.72,7.17-2.51,5.45-5.11,10.45-14.5,8.29-6.28.39-10.07-1.83-13.08-4.72-1.48-1.48-2.78-3.1-4.07-4.68-1.28-1.56-2.54-3.2-3.89-4.25-4.4,5.75-8.7,7.94-12.69,8.29-4.01.43-7.74-.86-11.23-2.27,1.89,3.5-1.22,5.9-3.26,7.86-2.04,2.02-3.04,3.29,3.04,5.3l-9.4,5.23c-1.55-3.41.2-9.38-1.54-12.75,2.89-.86,4.49-2.91,6.65-2.76-3.41-2.4-6.85-4.69-10.29-6.82l6.51-3.1c-1.6-3.22-1.95-7.93-2.94-11.86-.95-3.94-2.23-7.3-5.22-7.66,3.19,2.07-3.36,11.05-7.94,10.25-4.93,1.39-11.17,2.15-12.35-.77,4.07-4.68,3.97-9.17,4.58-12.92.63-3.73,1.94-6.79,9.22-8.19-5.9-1.59-8.65-1.03-11.35-.47-2.7.6-5.45,1.3-11.49,1.05,2.26.58,4.59,1.12,6.82,1.83-3.14,3.84-8.47,7.86-12.98,12.04s-8.23,8.48-8.61,12.49c-4.3.17-8.73,4.22-12.96,7.75-4.23,3.53-8.22,6.59-11.42,5.21.91-3.11,4.22-6.86,8.06-9.61,3.79-2.75,8.07-4.45,10.55-3.93-1.08-1.99.94-7.54-5.25-3.79,1.97-3.64,5.11-5.75,8.05-7.18,2.9-1.4,5.65-2.17,6.65-3.48-2.94-3.31-3.48,4.03-8.33,3.52-6.3,2.14-4.43-1.71-2.4-6.1,2.1-4.38,4.32-9.16-.64-8.45,1.57.54,1.82,4.63-2.48,7.28-3.59-2.82-6.04-1.54-8.62.55-2.54,2.06-5.2,4.82-9.07,5.22,2.49-6.9,5.97-13.43,8.51-19.01,2.52-5.57,3.97-10.17,1.96-13.33l3.07,2.1c.79-3.77.94-6.78.51-8.96-.43-2.15-1.4-3.53-2.67-4.13-9.43,1.86-19,6.98-27.63,12.5-8.72,5.65-16.45,11.68-23.32,15.76,1.6-.82,3.28-1.71,4.92-2.43-.04,2.54-1.32,3.75-2.67,4.96-1.39,1.28-2.91,2.59-3.57,5.2-.19-2.27-.44-4.56-.71-6.85-3.05,9.96,2.57,10.89-1.51,20.24.08-1.28-.52-1.75-1.12-1.01.35,1.16.69,2.29,1,3.47-1.61-2.11-4.45,1.05-6.54,2.79-2.14,1.78-3.55,1.9-3.67-6.56,4.21-.22,6.25-7.53,8.34-15.27,2.13-7.75,4.24-15.93,10.36-17.08-3.37,1.28-2.93-1.48-1.59-5.13,1.32-3.64,3.7-8.13,3.97-10.42-2.83-3.03-3.54,7.26-6.41,3.11.84-3.67,3.69-6.71,6.15-9.47,2.43-2.8,4.51-5.43,3.22-8.63-3.33,11.13-6.27,8.01-9.65,15.53-2.16-3.65,1.65-7.29,1.12-11.12-1.78.15-3.69,4.94-4.85,3.11l2.44-6.8c-3.38-5.83-4.62-3.18-5.91.28-.67,1.74-1.4,3.67-2.51,4.93-1.11,1.21-2.56,1.77-4.81.77-1.26,9.44,1.63,7.42,5.65,6.15-.71,10.54-4.33,15.62-7.58,21.22-3.33,5.6-6.24,11.44-6.8,22.78-3.05,1.6-2.55-.58-1.84-3.9.68-3.34,1.75-7.8-1-10.82-1.32-7.19-.18-10.95,1.87-14.15,1.01-1.6,2.21-3.05,3.34-4.75,1.11-1.63,2.17-3.49,2.84-5.96-2.12-3.28-4.44-6.33-6.91-9.47,1.68-9.13,3.89-12.14,5.95-14.95,2.09-2.75,4.05-5.22,5.7-13.45-3.38-.8-4.98,0-6.6,1.77-1.62,1.76-3.3,4.45-6.68,7.6,5.05,7.17,3.58,9.98,1.89,13.26-1.79,3.27-3.75,7.03-1.48,16.08-3.96-4.79-2.69-8.53-8.96-8.54,1.93-2.03,1.96-5.76,2.13-9.04.17-3.28.54-6.1,3.46-6.26-4.69.68-6.35,2.07-7.98,3.51-1.63,1.47-3.21,2.76-7.64,3.88-.75,6.61,1.85,10.58,3.26,14.21,1.47,3.7,1.74,6.87-2.27,12.02-1.91.35-2.11-4.57-.93-4.67-3.64-2.15-2.77,1.79-1.45,7.17,1.32,5.38,2.86,12.22,1.57,15.7-2.11,1.92-3.76-2.93-3.22-6.18-1.32,3.88-1.02,7.82-.68,11.23.37,3.42.75,6.24-.01,7.88l1.22,1.38c-.09,1.92,1.27,7.34,2.13,12.45.86,5.09,1.3,9.9-.2,10.71-2.35.49-3.37-6.75-4.4-10.95-.55,2.44-1.37,2.88-2.46,2.18-1.1-.7-2.46-2.5-3.88-4.38.9,2.38,1.51,4.87.93,5.14-2.06,5.08-5.65-9.66-7.78-10.88-4.03-1.85-1.6,3.61,1.15,9.91,2.73,6.35,5.57,13.45,3.62,14.78,2.2.44,4.45,1.15,6.52,1.81,1.87,5.96,5.05,14.97,5.77,14.58-1.5-4.53-2.52-8.86-2.8-12-.31-3.18.19-4.97,1.25-4.53,1.65,5.29,1.38,8.56,1.6,11.76.21,3.31,1.02,6.53,3.61,11.93-1.17-1.55-1.07,1.61-2.09.9-3.27-11.36-3.44-1.09-6.92-13.86-.85,1.11-1.6,1.61-2.44,1.68-.8.13-1.56.07-2.28.08-.31.03-.81.09-.9.18-.12.09-.21.27-.23.56-.04.52.25,1.79,1.17,3.77-2.05-2.89-5.51-8.4-7.47-13-.98-2.25-1.62-4.28-1.71-5.54-.06-1.26.76-1.83,2.02-.98l3.27,5.74c-.3-4.38-1.62-5.77-3.72-7.24-2.04-1.48-4.9-3.07-7.34-8.13,1.29,4.57,1.36,6.38.6,7.19-.4.39-1.03.44-1.85.3-.8-.1-1.74-.33-2.78-.64-2.16-.67-4.48-1.25-6.5-1.25-1.82.15-3.34.9-2.93,3.09,5.19,3.25,7.13,6.36,11.84,10.44-.34-2.09-2.06-3.72,4.15.86,2.89,3.01,3.71,4.04,4.28,4.87.57.83.91,1.44,3.08,3.49,3.42,3.11,3.46,3.04,3.17,2.61-.24-.42-.82-1.31.96.34,1.57,1.89,2.64,2.94,3.95,4.21.7.63,1.31,1.18,2.05,1.85-.18-.15-.36-.32-.65-.57-1.38-1.13-2.05-1.68-2.68-2.19-2.32-1.87-4.77-3.81-8.03-6.22-.46.04-.16.6.86,1.38.51.39,1.15.82,1.86,1.28.29.18.55.35.84.53-.18-.11-.35-.22-.53-.31-.35-.2-.7-.4-1.07-.6-.33-.2-.68-.4-1.07-.64-.77-.46-1.94-1-3.3-1.64,3.21,1.5-1.62-.74,1.97.94-.61-.32-1.43-.63-1.93-.92.26.15.57.29.95.44l.54.25s.59.3.09.03c-1.15-.61-2.16-1.21-3.13-1.82-1.75-1.25-3.15-2.57-4.76-4.14-1.46-1.56-3.15-3.38-5.51-5.68-2.4-2.3-5.34-5.07-9.73-8.37-.07.92.51,2.18,1.31,3.51.41.67.88,1.36,1.4,2.05.56.7,1.16,1.4,1.73,2.06,1.01,1.14,2.07,2.3,3.19,3.56.93.98,1.56,1.7,1.42,2.11l-3.7-1.88c-.69.45.6.95,2.39,1.65,1.81.68,4.09,1.62,5.83,2.51,1.68.94,1.32.83-.03.42-2.1-.66-3.91-1.22-5.62-1.76-2.03-.58-3.83-1.01-4.25-.96-.37.03.53.6,4.35,1.7,1.13.07,2.37.2,3.37.41,4.24,1.69,4.64,1.68,5.65,2.07.19.07.41.15.62.24.11.05.22.09.32.12.17.07.26.1.11.05-.54-.23-1.16-.46-1.85-.68-.64-.18-1.34-.37-2.05-.58-.58-.16-1.25-.31-1.99-.42-.51-.1-.85-.18-1.39-.22-.31-.02-.61-.05-.92-.07-.1-.01-.73.02-.35-.01.15-.01.25-.02.29-.02.48-.04.97-.12,1.36-.22-.45.1-.8.17-1.19.2-.14.01-.17.01-.17.01h-.04s-.12.01-.19.02c.19-.01.25-.02.12-.01l-.23.02h-.08s.1,0,.1,0l.21-.02-.31.03.21-.02s.21-.02.37-.03c.68-.06,1.19-.2,1.23-.21-.41.1-.86.18-1.4.24-.06,0,.12-.01.39-.03.48-.04,1.09-.19,1.45-.31-.18.06-.43.12-.75.21-.19.02-.37.07-.58.09l-.33.03c-.17.01-.19.01-.18.04-.04,0-.14.01-.33.03-.19.02,0,0,.15-.01h.34s.12.03.21.04c.29.02.02,0-.25-.02.04,0,.13,0,.23.02.38.01.96.07,1.32.14-.38-.07,1.42.26-.29-.04.99.17,1.18.21,1.44.26.34.08.78.1,2.11.51-.38-.07,1.46.32,2.91.9l.54.23c.24.08.45.15.67.24.43.17.82.31,1.14.45.48.21.67.3.89.38.43.21.61.3.96.48.35.2,1.44.55,3.65,1.88-.53-.33-2.12-1.22-3.24-1.69-.56-.25-.8-.41-.85-.41.04,0,.18.13,1.19.57-.91-.38-1.44-.73-2.23-1.04-1.62-.68-1.44-.57-1.34-.53.04.02.06.01-.19-.07-.15-.05-.34-.12-.67-.24-.24-.1-.56-.25-1.01-.42.26.1.58.22.95.36.43.15.9.32,1.33.49.88.34,1.62.7,1.88.82-.26-.12,0,0,.48.25.52.25,1.49.67,2.34,1.14,1.68.94,3.67,2.11,3.74,2.16.46.29.97.63,1.61,1.09.66.45,1.52,1,2.5,1.75-.27-.21.82.62-.71-.54-1.37-.93-2.32-1.64-3.95-2.67.5.25,1.88,1.26,3.61,2.4.84.57,1.69,1.32,2.49,1.91.8.6,1.52,1.23,2.13,1.82-.36-.35-.43-.4.23.21.34.28.74.65,1.11,1.03.32.33.64.68.93.96.39.4.59.64.41.44l.35.41-.19-.23c-.23-.29-.45-.65-.69-1.02-.43-.61-.88-1.32-1.29-2.06.07.14.19.34.39.68.24.35.5.79.65,1.03-.24-.38-.48-.75-.72-1.15l-.34-.62-.17-.32-.08-.16v-.04s-.02,0-.02,0l15.61,27.54v.04c.22.34.39.63.52.94.2.4-.28-.58-.44-.82.29.52.44.82.7,1.36l-.12-.22c.1.2.4.76.58,1.24.26.58.5,1.21.55,1.39.35.91.51,1.43.64,1.92.09.31.2.61.29.99.09.39.2.88.36,1.53-.03-.16-.1-.45-.22-.88-.1-.41-.22-.88-.31-1.2.08.26.21.77.31,1.22.15.53.23.96.26,1.08.15.86.26,1.35.28,1.6v.19s.02.04.02.04c0,0,0,.08,0-.02l-.03-.35c-.14-.9-.28-1.83-.4-2.75-.49-3.64-.89-7.02-1.13-9.87.32-.46.54,1.97.79,4.97.25,3,.6,6.48.8,8.13.03.35-.5-4.78-.67-8.12-.22-3.35-.1-4.71.44,3.08-.41-8.47-.08-18.59-1.35-22.33.38.09.76-1.41,1.15-3.42.4-2.01.8-4.7.96-7.24-.8,17.23.99,6.72.54,20.86.19.75.38,1.59.63,2.09.23.54.51.83.87.39.36-.49.82-1.44,1.5-3.58.68-2.12,1.57-5.25,2.76-9.69-1.31,6.1-2.55,12.21-3.75,18.32.37-.59.75-1.23,1.2-1.87-.98,5.55-1.91,8.42-2.39,10.1-.51,1.68-.71,1.97-.87,2.53-.02,2.02.38.76.95.44,3.27-10.82,2.09-6.93,3.91-12.95,1.33-3.58,1.77-3.99,1.98-3.8.23.25.2,1.17.83.18-1.48,4.26-3.06,8.14-3.77,9.34.47-.66.97-1.35,1.5-2.04-2.16,5.36-3.27,8.11-4.13,10.26-.9,2.2-1.69,3.95-3.12,7.6.45-1.14.93-2.3,1.5-3.33-.42,1.45-1.41,3.59-2.43,5.88-.21.5-.47,1.08-.75,1.73l-.19.43c-.05.15,0-.04,0-.04l.1-.28c.14-.36.27-.71.36-.9-.63,1.68-1.34,3.19-2.05,4.7-.09.17-.14.3-.18.39.44-.93.69-1.45.89-1.86.59-1.23,1.08-2.25,1.55-3.23.94-1.95,1.68-3.55,2.63-4.92-1.02,2.31-1.68,3.88-2.07,4.96-.41,1.05-.56,1.54-.59,1.98-.07.71.43.86-.1,2.34,1.93-3.05,3.77-6.09,5.5-9.27-1.05,2.88,9.49-12.45,14.51-18.67.06,1.2.61,1.84.92,2.79.27,1.02.31,2.24-.74,4.39-3.48,2.99-7.17,7.29-10.65,11.57-3.48,4.3-6.71,8.52-9.19,11.76-.04,1.75,13.51-12.97,19.24-16.67-8.61,7.78-9.61,9.43-9.8,10.17-.19.76.68.65-3.97,4.82,1.06.43,3.44-.18,5.96-.51,2.37-.28,4.89-.26,5.37.99,2.84-1.71,5.37-4.31,8.59-5.64,1.86-.4.9.76-1.07,2.21-1.92,1.53-5.08,3.1-7.02,4.24.44-.24,1.22-.64,2.2-1.12.96-.47,2.14-1.03,3.49-1.64,2.71-1.2,5.91-2.61,9.03-3.91-2.11.74.82-.69,6.54-3.31,1.1,0-1.88,1.49-3.92,2.47-2,1-3.2,1.39,1.95-.33-5.73,2.22-7.26,2.68-8.67,3.23-.93.37-1.9.76-2.6,1.03-.95.39-1.71.7-2.27.96-1.39.59-.95.41-.99.41,1.21-.49,2.29-.96,3.3-1.38,1.13-.45,2.2-.85,3.25-1.2,2.4-.95,4.61-1.67,7.15-2.46,1.1-.32-4.57,1.42-.83.26,2.75-.96,5.83-1.81,9.05-2.66,3.23-.95,6.7-1.55,9.99-2.33,1.66-.35,3.34-.63,4.99-.85,1.6-.26,3.12-.55,4.65-.72,1.48-.21,3.01-.31,4.36-.44,1.3-.17,2.54-.27,3.7-.35.83-.07,1.68-.1,2.53-.11.79,0,1.48-.02,2.08-.07.62-.03,1.23-.04,1.81-.07,1.14-.01,2.21,0,3.19.05,1.03.08,1.78.08,2.47.09.69.03,1.32.06,1.88.09,2.69.28.56-.02-1.97-.11,1.63.03,3.41.2,5.16.45,1.45.11,2.94.32,4.38.64.79.18,1.25.25,1.78.35.51.1,1.02.23,1.49.36.47.13.92.26,1.35.39.45.17.57.16.85.24-.15-.05-.51-.12-1.28-.37-.68-.21-1.41-.38-1.79-.48.7.15,1.43.36,2.2.61.71.23,1.11.28,1.69.5.54.16,1.14.43,1.64.64.3.1.62.24.95.38l.5.25.24.15.07.04c.15.07.04.02.07.04.09.05-.2-.11-.29-.18-.11-.07-.2-.15-.29-.2l.29.2c-.84-.55-3.24-2.41-6.36-6.15-3.17-3.79-7.02-9.3-11.54-18.12-1.11-2.09-1.9-3.77-2.49-5.12-.7-1.46-1.21-2.58-1.6-3.44-.77-1.75-1.04-2.49-1.35-3.26-.36-.8-.7-1.61-1.45-3.48-.31-.72-1.17-3.08-.59-1.57.17.57.2.86.06.74-1.14-3.25-2.1-6-3.96-11.34-.45-1.44-.45-.94-.33.32-.19,2.43-.19,7.96-1.3,5.62l1.19,3.83c.46,5.6-.65,6-1.86,4.19-1.21-1.77-2.65-6.12-3.54-9.86-.57-.35-1.17-.51-1.81-.45-.67-.03-1.33.24-2.03.94-.67.74-1.42,1.76-2.18,3.3-.77,1.56-1.57,3.71-2.4,6.54l.78-5.89c-1.21,3.74-2.24,3.18-3.14,2.8-.45-.21-.91-.4-1.44-.09-.54.25-1.19.99-2.04,2.77.35-2.05,1.64-5.36.99-7.4-.61-.62-1.22-1.11-1.83-1.49-.62-.43-1.26-.85-1.9-1.11-.65-.28-1.31-.45-1.98-.59-.69-.21-1.38-.32-2.1-.39-.72-.09-1.46.02-2.21-.02-.75-.02-1.54,0-2.33.07-1.63.24-3.27.27-5,.48-6.86.73-15.02.78-19.81-4.31-1.14-1.19-2.15-2.57-3.29-3.78-.61-.61-.98-1.21-1.44-1.79-.46-.56-.85-1.16-1.27-1.72-1.63-2.3-3-4.51-3.94-6.31s-1.45-3.17-1.53-3.64c-.1-.14-.01-.19-.02-.21-.6.32-1.99.91-2.73,1.31-.86.42-1.76.85-2.67,1.24-1.98.79-3.42,1.45-5.1,2.04-1.85.59-2.98,1.06-4.48,1.47-2.81.82-4.98,1.24-6.63,1.49l-10.43,1.3h.1s.12-.02.12-.02c-.06,0,.21-.02.35,0,.58,0,1.35.24,1.06.16-.21-.09-1.62-.66-3.6-2.24-1.96-1.54-4.3-4.1-5.78-6.65,0,0-.35-.47-.78-1.41-.05-.12-.1-.24-.18-.38l-.15-.26-.13-.28c-.36-.8-.72-1.6-1.08-2.43-.7-1.65-1.4-3.36-2.07-5.13-2.71-7.08-5.11-15.22-6.81-23.65-1.75-8.51-2.85-17.61-3.39-26.84-.5-9.11-.43-18.29-.18-27.13.45-17.68,1.61-33.91-2.22-45.22l-.09.22Z"/>
        <path class="cls-3" d="M223.15,144.89c.26.14.5.29.81.49-.32-.39-.59-.53-.81-.49Z"/>
        <path class="cls-3" d="M330.93,193c-.33-.45-.91-.65-1.51-.83.25.54.66.9,1.51.83Z"/>
        <path class="cls-3" d="M414.69,278.38c-.38-1.05-.7-2.13-1.13-3.13.15,1.32.51,2.33,1.13,3.13Z"/>
        <path class="cls-3" d="M234.53,415.28c-.36,3.94-3.03,8.99-5.24,14.02-2.17,5.05-3.85,10.07-1.68,14.14,10.5,3.06,14.5-4.28,18.21-11.26,1.88-3.5,3.71-6.98,6.28-9.24,1.28-1.12,2.76-1.95,4.52-2.31,1.78-.4,3.84-.42,6.35.18-3.01-3.43-5.88-6.9-8.58-10.52-.99,6.97-3.58,12.05-7.09,15.29-3.5,3.24-7.9,4.69-12.05,4.22-.02-3.51,0-7.03.05-10.53,2.05-2.6,4.03-4.64,5.95-6.4-2.53-1.89-3.93,6.13-6.71,2.45v-.04Z"/>
        <path class="cls-3" d="M241.87,413.38c-.08-.24-.23-.52-.3-.81-.11.14-.21.18-.31.26.2.17.4.26.63.53l-.02.02Z"/>
      </g>
    </g>
  </g>
</svg>