<?xml version="1.0" encoding="UTF-8"?>
<svg id="Vrstva_2" xmlns="http://www.w3.org/2000/svg" version="1.1" viewBox="0 0 163.1 89.1">
  <!-- Generator: Adobe Illustrator 29.0.1, SVG Export Plug-In . SVG Version: 2.1.0 Build 192)  -->
  <defs>
    <style>
      .st0 {
        fill: none;
        stroke: #1c1c1c;
        stroke-linecap: round;
        stroke-linejoin: round;
        stroke-width: 3px;
      }
    </style>
  </defs>
  <path class="st0" d="M1.6,1.5c-.3,4.3,0,10.9,4,16.2,4.5,5.8,12.1,8.2,30.1,8.7,31.9.9,34.4-5.6,52.6-2.7,19,3,20,10.7,37.3,10.5,3,0,25.5-.6,32.5-13.9,2.4-4.6,3.7-11.9.7-14.4-2.2-1.8-5.8-.4-6-.3-6.1,2.4-7.6,11.7-8,14.2-3.5,22,21.3,35.6,16.1,48.9-4.4,11.1-26.2,13-26.2,12.8,0,0,3.8-1.2,7.9-4.7,2.9-2.5,4.5-5.1,4.5-5.1s-1.5,2.7-4.5,5.1c-4.1,3.3-8,3.6-7.9,4.7,0,1,3.3.9,7.8,2.6,2.8,1.1,4.9,2.5,6.3,3.4"/>
</svg>