<?xml version="1.0" encoding="UTF-8"?>
<svg id="Vrstva_2" data-name="Vrstva 2" xmlns="http://www.w3.org/2000/svg" xmlns:xlink="http://www.w3.org/1999/xlink" viewBox="0 0 60 46">
  <defs>
    <style>
      .cls-1 {
        fill: #f39936;
      }

      .cls-2 {
        fill: none;
      }

      .cls-3 {
        clip-path: url(#clippath);
      }
    </style>
    <clipPath id="clippath">
      <rect class="cls-2" width="60" height="46"/>
    </clipPath>
  </defs>
  <g id="Vrstva_1-2" data-name="Vrstva 1">
    <g class="cls-3">
      <g>
        <path class="cls-1" d="M14.47,31.13h.03c.01-.06.03-.12.04-.17l-.06.17Z"/>
        <path class="cls-1" d="M18.57,31.34h.03s0-.06-.03,0Z"/>
        <path class="cls-1" d="M5.8,31.94s-.01,0-.03.03c0,0,.01-.03.03-.03Z"/>
        <path class="cls-1" d="M13.68,14.89h0s.03.01.05-.01h-.05Z"/>
        <path class="cls-1" d="M13.75,15.01c-.09.06-.07-.06-.07-.1-.13.05-.18.13-.2.25.09.05.17-.13.25-.14h.01Z"/>
        <path class="cls-1" d="M19.15,2.22l.03.05s0-.04-.03-.05Z"/>
        <path class="cls-1" d="M18.23,4.19l.14.08s-.09-.06-.14-.08Z"/>
        <path class="cls-1" d="M14.55,30.97l.03-.06s-.01.04-.03.06Z"/>
        <path class="cls-1" d="M22.33,31.2s.01.09.03.12l-.04-.12h.01Z"/>
        <path class="cls-1" d="M41.55,31.89v-.06l-.08.12s.06-.04.08-.06h0Z"/>
        <path class="cls-1" d="M27.54,31.5s.01-.04.01-.05c-.09-.05-.33-.04-.62,0v.19l.61-.13h0Z"/>
        <path class="cls-1" d="M33.64,35.51l-.6-.34c1.77-.36,2.64-.05,4.14-.53l-.08.09c.23.06.26-.82,2.83-.04v.04c.09-.01.08-.09.26,0l-.46-.18c.25-.13.44-.34.78-.42.08.04.12.12.13.17l.82-.17.29.22c.23-.17.05-.69.77-.48-.3-.34.31-.26.2-.44.04.04.13.1.19.16.4-.09,1.14-.3,1.3-.51,0,0-1.68-.57-2.15-.91.57.03.14-.06.01-.17l-.03.09c-.35-.05-.38-.29-.56-.32,0,.01,0,.04.01.06v-.04s.04.06.01.09c0,.05,0,.09-.09.09v-.03c-.12.05-.38.04-.48.04l-.03-.19c-.21.4-1.76-.36-2.09-.34-.36-.21-.75.14-1.18.08-.68.01-.36-.25-.73-.38-.43-.08.1.22-.05.25l-.53-.22c.29-.05.12-.16.05-.22-.44.01-1.16-.27-1.26.13-.61-.12-.62-.29-.88-.27.09.06.26.1.27.18-.25-.14-.1.05,0,.08-.34.21-1.94-.52-1.96-.09v-.08c-.06.32.1.62-.13.82l-.18-.13-.23.16c-.18-.09-.1-.18-.1-.22-.4.18-.99.06-1.48.06l.61.82c-.44-.16-1.24-.49-1.3-.21l-.27-.27c-.9-.48-.57.3-.92.16l-.46-.29.42-.03c-.43-.13-.61-.21-.96-.39,0,0,.04.04.04.05h-.05c-.04.17-.25.3-.55.31-.43,0-.74.25-1.43-.03l-.14.34-.52-.16-.03-.26c.49-.01,1.42-.19,2.05-.26v-.12c-.38.03-.79.18-1.04.17-.13-.04-.46-.29-.25-.48l-.21.27c-1.25.12-1.26.14-2.6-.06l.12.12c-.26.09-.51.18-.6-.03-.79,0-1.61-.09-2.15-.39l-.09.31c-.17,0-.44-.45-.49-.03l-.35.16c-.23,0-.36.17-.62.01l-.05-.04v.03c-.52-.1.03.27-.57.13-.19-.21-.18.4-.48.35l-.31-.43c-.53-.22-.6.22-1.35.26-.36-.14-.56-.51-.34-.84-.31.42-.14.27-.56.48-.08-.16-.03-.19.07-.35-.4-.17-.23.16-.52.17-.06.31-.14.82-.25.84l.12.09c-.3.18-.64.27-1,.13v-.16l-.38.09-.03-.19-.55.09.08.05c-.13.03-.55.12-.79.03v-.12c-.69-.32-1.24.16-2.04.22l.1-.23c-.27-.22-.07.35-.39.25l-.03-.27c-.27.38-.38-.06-.57-.19l.1.36-.38-.06c-.42-.1-.26-.45-.21-.65l-.27.3-.07-.32c-.2.38-.21-.05-.56.16-.03-.12.05-.19-.07-.25-.2.16-.36.31-.53.47l.31-.21-.03.47c-.34.36-.44-.05-.65.08l.14-.14c-.34.1-.34-.1-.48-.22.04.09.1.23-.01.27-.09.01-.03-.17-.09-.23-.08.31-.21.45-.26.29.01-.04.04-.08.04-.1-.04.04-.08.12-.09.04l.14-.32c-.05.1-.12.19-.18.29,0-.1-.2.09-.07-.12l.05-.05c-.08-.08-.14-.16-.16-.25l.22-.18c-.35.22.08-.16-.35.09.22-.14-.23-.16.3-.26,0-.08-.1-.03-.2-.21-.08-.18-.1-.42.1-.7.49-.09.57-.77.85-1.19.12-.47.25-.88.39-1.27.16-.42.4-.93.66-1.49.95-.3.82-1.73,1.55-2.23l-.1-.32c.62-.26.64-1.22,1.35-1.67,0-.22.01-.32.03-.36-.03.03-.09.04-.25-.03.21-.13.31-.58.57-.39v.06c.27.19.2-.65.56-.73l-.36-.05.26-.32v.13c.22-1.93,1.56-2.11,1.74-3.93.23.38-.03-.39.35-.21.66-.13.26-.75.3-1.12-.01,0-.04-.03-.05-.05l.33-.52c.3.56-.18-.58.05-.09,1.07-1.23,1.63-3.27,2.56-4.85h-.16c.22-.39.31-.99.65-1.22.34-.23,0-.84.04-.97-.05-.44.51-.58.42-.44.1-.4-.17-.95.23-1.39.48,0,.21-1.61.68-1.43l-.04-.03c.6-.54.31-1.4.9-2.02,0,0,.03.03.05.06l-.82-2.04-1.72-.18-1.76.77c-.36,1.17-.74,2.32-1.13,3.49l-1.66,2.45c-.92,2.17-1.91,4.32-2.95,6.45l.1.62c-1.24.92-1.42,2.85-2.57,3.94l.26.18c-.2.38-.35.26-.46.31-.95,1.73-1.87,3.5-2.86,5.19-.26.42-.51.83-.75,1.25-.23.38-.59.93-.85,1.4-.55.99-1.05,1.98-1.44,3.14-.16.21-.29.67-.36,1.19-.08.48-.1,1.21-.17,1.45.55,2.22,2.13,4.09,4.23,4.72h-.09c.34.09.66.14,1.01.18.04.03.03.06,0,.09,1-.13,2.12.09,2.85.19l-.04.04c4.51-.06,8.66-.86,13.13-.69,2.11.39,4.47-.51,6.88-.27.47.29,5.25-.39,5.66-.6l.05.06Z"/>
        <path class="cls-1" d="M40.64,34.3h-.01c.01.14.04.09.01,0Z"/>
        <path class="cls-1" d="M30.4,31.64h.04l-.14-.18.1.18Z"/>
        <path class="cls-1" d="M36.67,30.9c-.29,0-.3.03-.25.08.1,0,.19-.03.25-.08Z"/>
        <path class="cls-1" d="M42.93,33.75c.16,0,.08-.08-.01-.16-.16.04-.26.05-.26.05.09.03.18.08.27.1Z"/>
        <path class="cls-1" d="M42.09,31.99l.03-.12c-.08.04-.08.08-.03.12Z"/>
        <path class="cls-1" d="M44.55,41.04h-.01c0,.08.03.13.03.17v-.17h-.01Z"/>
        <path class="cls-1" d="M41.61,41.84h-.03s.03.06.03,0Z"/>
        <path class="cls-1" d="M50.65,37.68s.03-.03.04-.05c0,.01-.01.04-.04.05Z"/>
        <path class="cls-1" d="M49.64,24.34h.01v-.05.05h-.01Z"/>
        <path class="cls-1" d="M49.75,24.27c.03.08-.07.06-.1.06.01.12.08.17.16.17.05-.08-.08-.16-.06-.23h.01Z"/>
        <path class="cls-1" d="M40.17,20.09l.04-.03s-.03.01-.04.03Z"/>
        <path class="cls-1" d="M48.31,33.34s.01-.03.03-.04c-.03,0-.03.03-.03.04Z"/>
        <path class="cls-1" d="M41.68,20.72l.08-.14s-.07.1-.08.14Z"/>
        <path class="cls-1" d="M39,42.78s-.04-.08-.05-.1l.06.1h-.01Z"/>
        <path class="cls-1" d="M25.02,45.12l.03.05v-.13s-.03.04-.03.06h0Z"/>
        <path class="cls-1" d="M35.19,43.51v.05c.08.03.25-.03.44-.1l-.05-.18-.4.23h.01Z"/>
        <path class="cls-1" d="M29.75,40.64l.51.23c-1.14.6-1.83.43-2.77,1.08l.03-.1c-.18-.04.03.84-1.99.38v-.04c-.07.03-.04.1-.2.04l.36.13c-.14.16-.23.38-.46.48-.07-.03-.1-.09-.13-.16l-.55.25-.25-.18c-.13.18.12.67-.44.53.29.3-.16.29-.05.44-.04-.04-.12-.08-.17-.13-.26.13-.75.4-.82.62,0,0,1.33.4,1.74.67-.42.03-.09.08.03.17v-.09c.26,0,.34.23.47.26,0-.01-.01-.04-.03-.06v.04s-.03-.06-.03-.09c-.01-.05-.03-.09.05-.09v.03c.08-.06.26-.08.34-.09l.07.18c.05-.42,1.35.16,1.59.09.31.16.51-.23.83-.22.48-.1.33.19.61.27.34.01-.13-.19-.03-.25l.44.14c-.2.09-.05.17.01.22.31-.08.91.1.87-.3.47.04.52.18.7.14-.08-.05-.22-.06-.25-.14.22.1.06-.06-.01-.08.19-.25,1.53.21,1.44-.21l.03.08c-.05-.32-.25-.58-.13-.8l.17.09.13-.19c.16.05.13.16.14.19.23-.25.69-.22,1.05-.31l-.66-.69c.35.08,1.03.27.98,0l.27.21c.78.31.33-.38.61-.3l.4.19-.29.1c.35.04.49.09.81.21,0,0-.04-.03-.04-.04l.04-.03c-.03-.16.09-.32.3-.39.31-.06.44-.38,1.03-.23v-.35l.42.05.09.25c-.34.12-.95.45-1.38.64l.04.12c.26-.1.52-.31.69-.36.1.01.42.18.33.42l.07-.3c.86-.36.86-.38,1.87-.45l-.13-.09c.16-.14.3-.29.43-.1.56-.18,1.18-.25,1.65-.08l-.04-.31c.12-.03.47.32.36-.09l.19-.22c.17-.04.2-.25.44-.16l.05.03v-.03c.39-.03-.12-.25.35-.26.21.14,0-.42.22-.43l.36.32c.46.09.35-.35.86-.56.31.04.57.34.53.71.06-.47,0-.29.22-.58.12.13.09.18.09.34.34.06.1-.21.31-.29-.06-.31-.2-.79-.13-.84l-.12-.05c.14-.25.35-.42.65-.38l.05.14.23-.18.09.18.35-.22-.08-.03c.08-.06.34-.25.55-.22l.04.1c.6.12.79-.47,1.33-.74l.03.23c.27.13-.09-.34.17-.34l.13.25c.04-.42.29-.04.47.03l-.21-.31.29-.04c.33,0,.36.35.4.53l.07-.35.17.27c-.01-.4.16,0,.33-.3.06.1.04.19.14.21l.21-.6-.16.3-.17-.44c.1-.44.35-.1.48-.31l-.06.18c.25-.23.34-.06.55-.04-.09-.05-.22-.14-.13-.25.08-.06.12.13.22.14-.12-.3.03-.54.27-.49.01.04.03.08.03.12.03-.06.01-.16.13-.12l.1.34.03-.38c.14.04.2-.26.29-.04l-.03.09.85-.3.13.25c-.08-.39.51-.08.27-.49.26.17.52-.45.66.08.06-.03.13-.05.18-.1.1-.06.2-.13.29-.19.18-.13.34-.27.51-.4.34-.26.68-.51,1.34-.67.79.13,1.86-.56,2.6-.92.53-.4,1.01-.77,1.47-1.1l.33-.25c.09-.09.33-.14.07-.3-.29-.26-.59-.53-.9-.82.16-.31-.36-.79-.87-1.22-.52-.44-1.04-.82-1.2-1.25l-.47-.1c-.03-.31-.36-.61-.7-.92-.35-.31-.7-.64-.92-1.1-.26-.08-.38-.14-.39-.14,0,.03.01.09-.08.23-.08-.22-.4-.31-.17-.54h.05c.23-.22-.48-.22-.44-.54l-.14.32-.21-.25h.1c-1.52-.26-1.34-1.5-2.8-1.67.35-.21-.31.01-.09-.32.04-.62-.56-.25-.85-.27,0,.01-.03.04-.05.05l-.35-.3c.51-.29-.51.18-.07-.05-.81-.97-2.35-1.44-3.5-2.21v.14c-.3-.19-.77-.22-.92-.53-.16-.31-.68.05-.77.04-.36.09-.42-.43-.31-.36-.31-.06-.77.26-1.08-.09.03-.47-1.25-.03-1.08-.49v.04c-.42-.52-1.11-.13-1.56-.61,0,0,.03-.03.05-.05-.55.36-1.07.73-1.57,1.09l-.17,1.69c.18.53.34,1.05.49,1.57.82.17,1.64.38,2.46.6.55.43,1.09.86,1.61,1.3,1.47.65,2.91,1.4,4.29,2.26l.51-.12c.4,1.09,1.85,1.21,2.34,2.24l.22-.23c.23.17.09.31.12.4l.39.32.2.16s.04.03.06.04l.17.08c.13.05.27.14.42.25.07.05.16.12.18.16-.05.04-.12.06-.2.09-.14.05-.34.09-.52.06-.2-.14-.21,0-.33-.19-.52.67-1.38,1.09-2.15,1.39v-.05l-.33.22s-.04-.05-.04-.08c-.29.44-1.05.48-1.6.61v-.04c-2.93,1.26-5.44,2.98-8.56,3.75-1.56.06-2.9,1.36-4.64,1.54-.4-.18-3.52,1.22-3.77,1.45l-.09-.04Z"/>
        <path class="cls-1" d="M25.12,42.69c-.05-.08-.04-.13,0,0h0Z"/>
        <path class="cls-1" d="M33.11,43.86h-.03l.14.16-.12-.16Z"/>
        <path class="cls-1" d="M28.79,45.51c.21-.03.21-.06.17-.1-.08.01-.13.05-.17.1Z"/>
        <path class="cls-1" d="M23.62,43.46c-.1.03-.04.09.05.16.1-.05.17-.08.17-.08-.06,0-.14-.06-.22-.08Z"/>
        <path class="cls-1" d="M24.6,45.08v.12s.04-.08,0-.12Z"/>
      </g>
    </g>
  </g>
</svg>