<?xml version="1.0" encoding="UTF-8"?>
<svg id="Vrstva_2" data-name="Vrstva 2" xmlns="http://www.w3.org/2000/svg" xmlns:xlink="http://www.w3.org/1999/xlink" viewBox="0 0 73 84">
  <defs>
    <style>
      .cls-1 {
        fill: none;
      }

      .cls-2 {
        clip-path: url(#clippath);
      }
    </style>
    <clipPath id="clippath">
      <rect class="cls-1" width="73" height="84"/>
    </clipPath>
  </defs>
  <g id="Vrstva_1-2" data-name="Vrstva 1">
    <g class="cls-2">
      <path d="M29.91,32.33v13.8c-.24-.03-.44-.04-.64-.09-8.17-2.18-15.9,4.13-15.51,12.65.26,5.71,4.85,10.79,10.44,11.55,7.68,1.04,14.11-4.6,14.16-12.49.04-6.83.03-13.67.03-20.51,0-3.33-.13-14.29,0-36.24,0-.18,0-.84,0-1.01.41,0,.75.01.96.02,3.57.05,5.7.01,11.82-.01.15,0,.65,0,.8,0,0,.18,0,.45.01.77.19,5.36,2.5,9.3,3.08,10.24,1.76,2.87,4.26,5.28,7.5,7.22,1.62.97,3.32,1.69,5.09,2.15,2,.52,3.87.58,4.48.6.36.01.65.02.86.01,0,4.55,0,9.1,0,13.65-2.42,0-5.59-.23-9.15-1.21-5.48-1.51-9.47-4.09-11.89-5.95.03,9.95.06,19.91.09,29.86.03,2.64-.29,7.56-3.02,12.76-1.94,3.69-4.33,6.06-5.46,7.09-1.73,1.58-3.69,2.92-5.88,4-6.05,3.01-12.37,3.59-18.85,1.76-5.74-1.63-10.4-4.93-13.93-9.79C1.07,67.86-.51,61.87.14,55.35c.69-6.87,3.71-12.59,8.92-17.05,5.76-4.94,12.47-6.86,19.95-6.12.29.03.59.09.9.15h0Z"/>
    </g>
  </g>
</svg>