<svg width="458" height="411" viewBox="0 0 458 411" fill="none" xmlns="http://www.w3.org/2000/svg">
<g clip-path="url(#clip0_304_15)">
<path opacity="0.44" d="M256.771 23.8016L86.0884 50.7866C80.1024 51.733 75.0867 55.7965 72.9031 61.4653L10.9289 222.759C8.7687 228.424 9.77763 234.805 13.5764 239.505L122.285 373.813C126.088 378.536 132.136 380.85 138.122 379.904L308.805 352.919C314.791 351.972 319.806 347.909 321.99 342.24L383.964 180.946C386.124 175.281 385.116 168.9 381.317 164.201L272.608 29.892C268.805 25.1696 262.757 22.8552 256.771 23.8016Z" fill="#0DBAB5" fill-opacity="0.25"/>
<path opacity="0.44" d="M303.633 31.0272L132.95 58.0122C126.964 58.9586 121.948 63.0221 119.764 68.6909L57.7901 229.984C55.6299 235.65 56.6388 242.031 60.4376 246.73L169.146 381.039C172.949 385.761 178.997 388.075 184.983 387.129L355.666 360.144C361.652 359.198 366.668 355.134 368.851 349.465L430.825 188.172C432.986 182.507 431.977 176.125 428.178 171.426L319.469 37.1176C315.667 32.3952 309.619 30.0808 303.633 31.0272Z" fill="#0DBAB5" fill-opacity="0.25"/>
<g filter="url(#filter0_d_304_15)">
<path d="M235.965 195.417L196.843 215.854L196.743 218.09C196.694 218.838 196.575 219.597 196.333 220.327C194.907 224.898 190.032 227.435 185.484 226.005C183.273 225.305 181.459 223.801 180.395 221.749C179.326 219.674 179.102 217.346 179.802 215.134C180.503 212.923 182.007 211.109 184.059 210.045C186.111 208.98 188.466 208.775 190.674 209.453C191.405 209.695 192.1 210.015 192.736 210.416L194.622 211.622L233.767 191.181L227.433 179.052L152.165 189.066L139.434 213.639L121.308 223.117L145.484 269.427L163.614 259.972L190.89 263.371L242.299 207.545L235.965 195.417ZM148.786 258.903L131.833 226.419L145.22 219.432L157.219 196.265L223.039 187.506L223.242 187.879L194.836 202.707C194.245 202.443 193.635 202.205 193.008 202.017C188.813 200.699 184.339 201.096 180.434 203.122C176.532 205.171 173.685 208.606 172.367 212.801C171.025 217 171.442 221.446 173.468 225.351C175.494 229.256 178.932 232.126 183.127 233.444C191.792 236.156 201.056 231.326 203.792 222.657C203.979 222.031 204.143 221.408 204.257 220.769L232.663 205.942L232.861 206.292L187.869 255.135L162.173 251.916L148.786 258.903Z" fill="#F0F8FF"/>
<path d="M312.935 270.621C311.876 271.171 310.764 271.538 309.623 271.718C308.016 271.972 306.35 271.854 304.768 271.364C302.031 270.507 299.778 268.643 298.47 266.105C297.134 263.547 296.868 260.653 297.724 257.915C298.313 256.055 299.366 254.409 300.792 253.157L277.866 209.323C282.444 239.036 273.856 270.187 253.336 293.365L252.569 294.25L248.463 290.626L249.253 289.737C273.398 262.453 280.046 223.564 267.059 190.047C266.966 190.062 266.873 190.077 266.78 190.091C262.238 190.809 257.546 188.615 255.294 184.34C252.997 179.928 253.979 174.664 257.372 171.359C237.3 141.349 201.468 124.455 165.071 128.753L163.899 128.89L163.255 123.454L164.427 123.316C195.224 119.689 225.664 130.417 247.446 151.156L224.897 108.05C224.715 108.103 224.505 108.136 224.319 108.166C219.893 108.865 215.306 106.726 213.115 102.536C212.566 101.477 212.199 100.366 212.026 99.2709C211.323 94.8225 213.489 90.2545 217.656 88.0679C220.191 86.7361 223.108 86.4658 225.846 87.3221C228.584 88.1784 230.813 90.0461 232.148 92.6042C233.48 95.139 233.723 98.0369 232.867 100.774C232.281 102.657 231.225 104.281 229.78 105.56L262.696 168.488C264.541 168.077 266.467 168.178 268.323 168.744C271.134 169.613 273.421 171.543 274.787 174.144C277.141 178.618 276.058 183.993 272.521 187.298L305.643 250.623C310.257 249.607 315.179 251.742 317.472 256.13C320.212 261.378 318.18 267.858 312.932 270.598L312.935 270.621Z" fill="#F0F8FF"/>
</g>
</g>
<defs>
<filter id="filter0_d_304_15" x="121.308" y="86.8301" width="201.384" height="211.42" filterUnits="userSpaceOnUse" color-interpolation-filters="sRGB">
<feFlood flood-opacity="0" result="BackgroundImageFix"/>
<feColorMatrix in="SourceAlpha" type="matrix" values="0 0 0 0 0 0 0 0 0 0 0 0 0 0 0 0 0 0 127 0" result="hardAlpha"/>
<feOffset dx="2" dy="2"/>
<feGaussianBlur stdDeviation="1"/>
<feComposite in2="hardAlpha" operator="out"/>
<feColorMatrix type="matrix" values="0 0 0 0 0 0 0 0 0 0.364706 0 0 0 0 0.352941 0 0 0 0.1 0"/>
<feBlend mode="normal" in2="BackgroundImageFix" result="effect1_dropShadow_304_15"/>
<feBlend mode="normal" in="SourceGraphic" in2="effect1_dropShadow_304_15" result="shape"/>
</filter>
<clipPath id="clip0_304_15">
<rect width="424.674" height="347.635" fill="white" transform="translate(-16 66.9268) rotate(-8.98409)"/>
</clipPath>
</defs>
</svg>
