<?xml version="1.0" encoding="UTF-8"?>
<svg id="Vrstva_2" data-name="Vrstva 2" xmlns="http://www.w3.org/2000/svg" xmlns:xlink="http://www.w3.org/1999/xlink" viewBox="0 0 687 702">
  <defs>
    <style>
      .cls-1 {
        opacity: .4;
      }

      .cls-1, .cls-2 {
        fill: #2a94f4;
      }

      .cls-1, .cls-3 {
        isolation: isolate;
      }

      .cls-4 {
        fill: #fcbaa2;
      }

      .cls-5 {
        stroke: #fff;
        stroke-miterlimit: 10;
        stroke-width: .5px;
      }

      .cls-5, .cls-6 {
        fill: #0b4870;
      }

      .cls-7 {
        fill: #f2f0f0;
      }

      .cls-8 {
        fill: #e9d6b8;
      }

      .cls-9 {
        fill: #fff;
      }

      .cls-10 {
        fill: #fcd2b1;
      }

      .cls-11 {
        fill: none;
      }

      .cls-3 {
        fill: #b0ddff;
        opacity: .37;
      }

      .cls-12 {
        fill: #f2f2f2;
      }

      .cls-13 {
        fill: #d3d3d3;
      }

      .cls-14 {
        fill: #0e538c;
      }

      .cls-15 {
        fill: #f28c1b;
      }

      .cls-16 {
        fill: #ff957e;
      }

      .cls-17 {
        fill: #cce9ff;
      }

      .cls-18 {
        fill: #eb4747;
      }

      .cls-19 {
        clip-path: url(#clippath);
      }

      .cls-20 {
        fill: #f7f7f7;
      }

      .cls-21 {
        fill: #ffe3ca;
      }
    </style>
    <clipPath id="clippath">
      <rect class="cls-11" width="687" height="702"/>
    </clipPath>
  </defs>
  <g id="Vrstva_1-2" data-name="Vrstva 1">
    <g class="cls-19">
      <g>
        <path class="cls-3" d="M60.89,571.39c1.5,3.71,3.15,7.42,4.97,10.98,26.97,52.99,81.71,86.4,140.07,92.4,46.69,4.74,92.12-10.5,131.16-35.38,38.96-24.8,70.19-59.7,113.49-77.87,61.04-25.51,129.11-45.65,176.98-99.66,54.42-61.36,75.4-154.39,49.77-232.89-24.92-76.6-107.65-101.4-171.93-135.12C389.85,33.11,229.83-7.25,109.55,64.06-34.54,149.43-8.36,343.23,37.31,477.73c10.41,30.64,11.67,63.65,23.58,93.66Z"/>
        <path class="cls-15" d="M187.63,142.47l-1.66-4.34c-1.5-.16-2.92-.55-4.34-1.03l-3.39,3.16-9.78-7.03,1.89-4.26c-.95-1.19-1.74-2.45-2.37-3.79l-4.65-.16-1.97-11.93,4.34-1.66c.16-1.5.55-2.92,1.03-4.34l-3.15-3.4,7.02-9.87,4.26,1.9c1.18-.95,2.44-1.74,3.79-2.37l.16-4.66,11.91-1.97,1.66,4.34c1.5.16,2.92.55,4.34,1.03l3.39-3.16,9.78,7.03-1.89,4.26c.95,1.19,1.74,2.45,2.37,3.79l4.65.16,1.97,11.92-4.34,1.66c-.24,1.5-.55,2.92-1.03,4.34l3.15,3.4-7.02,9.87-4.26-1.9c-1.18.95-2.44,1.74-3.79,2.37l-.16,4.66-11.91,1.97ZM180.85,133.3l.95.4c1.74.71,3.63,1.11,5.52,1.26l1.03.08,1.42,3.71,6.55-1.1.16-3.95.95-.4c1.74-.79,3.31-1.82,4.81-3l.79-.63,3.63,1.66,3.87-5.37-2.76-2.92.39-.95c.71-1.74,1.1-3.63,1.26-5.53l.08-1.03,3.71-1.42-1.1-6.56-3.94-.16-.39-.95c-.79-1.74-1.81-3.32-3-4.82l-.63-.79,1.66-3.63-5.36-3.87-2.92,2.69-.95-.39c-1.74-.71-3.63-1.11-5.52-1.26l-1.03-.08-1.42-3.71-6.55,1.11-.16,3.95-.95.39c-1.74.79-3.31,1.82-4.81,3l-.79.63-3.63-1.66-3.86,5.37,2.76,2.92-.39.95c-.71,1.74-1.1,3.63-1.26,5.53l-.08,1.03-3.71,1.42,1.1,6.56,3.94.16.39.95c.79,1.74,1.81,3.32,3,4.82l.63.79-1.66,3.63,5.36,3.87,2.92-2.69ZM189.05,127.78c-2.68,0-5.36-.87-7.57-2.45-5.92-4.19-7.26-12.4-3.07-18.32,4.18-5.92,12.38-7.27,18.3-3.08,2.84,2.05,4.73,5.05,5.36,8.53.55,3.47-.24,6.95-2.21,9.79-2.05,2.84-5.05,4.74-8.52,5.37-.87.08-1.58.16-2.29.16ZM189.05,104.8c-3.08,0-6.07,1.42-7.97,4.11-1.5,2.13-2.13,4.74-1.66,7.35.47,2.61,1.81,4.82,3.94,6.32,2.13,1.5,4.73,2.13,7.34,1.66s4.81-1.82,6.31-3.95c1.5-2.13,2.13-4.74,1.66-7.35-.47-2.61-1.81-4.82-3.94-6.32-1.74-1.18-3.71-1.82-5.68-1.82Z"/>
        <path class="cls-15" d="M557.6,276.41l-3.71-9.71c-3.94-.47-7.89-1.34-11.59-2.68l-7.57,7.11-20.51-14.61,4.26-9.48c-2.45-3.08-4.58-6.48-6.31-10.11l-10.33-.32-4.18-24.88,9.7-3.71c.47-3.95,1.34-7.9,2.68-11.61l-7.1-7.58,14.59-20.53,9.47,4.26c3.08-2.45,6.47-4.58,10.09-6.32l.32-10.35,24.84-4.18,3.71,9.71c3.94.47,7.89,1.34,11.59,2.68l7.57-7.11,20.51,14.61-4.26,9.48c2.44,3.08,4.57,6.48,6.31,10.11l10.33.32,4.18,24.88-9.7,3.71c-.47,3.95-1.34,7.9-2.68,11.61l7.1,7.58-14.59,20.53-9.46-4.26c-3.08,2.45-6.47,4.58-10.09,6.32l-.32,10.35-24.84,4.18ZM541.2,258.96l1.26.47c4.18,1.58,8.6,2.61,13.09,3l1.42.16,3.39,8.85,17.67-3,.32-9.48,1.26-.55c4.1-1.82,7.97-4.26,11.44-7.19l1.02-.87,8.68,3.87,10.41-14.61-6.47-6.95.47-1.26c1.58-4.19,2.6-8.61,3-13.11l.08-1.42,8.83-3.4-3-17.69-9.46-.32-.55-1.26c-1.81-4.11-4.26-7.98-7.18-11.45l-.87-1.03,3.87-8.69-14.59-10.42-6.94,6.48-1.26-.47c-4.18-1.58-8.6-2.61-13.09-3l-1.42-.08-3.39-8.85-17.67,3-.32,9.48-1.26.55c-4.1,1.82-7.97,4.26-11.44,7.19l-1.02.87-8.68-3.87-10.25,14.61,6.47,6.95-.47,1.26c-1.58,4.18-2.6,8.61-3,13.11l-.08,1.42-8.83,3.4,3,17.69,9.46.32.55,1.26c1.81,4.11,4.26,7.98,7.18,11.45l.87,1.03-3.86,8.69,14.59,10.42,6.78-6.56ZM559.81,242.69c-5.76,0-11.52-1.74-16.56-5.29-12.85-9.16-15.85-27.09-6.7-39.96,9.15-12.87,27.05-15.87,39.91-6.71,12.86,9.16,15.85,27.09,6.7,39.96-5.6,7.82-14.43,12-23.34,12ZM559.89,189.86c-7.57,0-15.06,3.55-19.72,10.19-3.79,5.29-5.21,11.69-4.18,18.08,1.1,6.4,4.58,11.93,9.86,15.72,10.88,7.74,26.03,5.21,33.76-5.69,3.71-5.29,5.21-11.69,4.18-18.08-1.1-6.4-4.57-11.93-9.86-15.72-4.34-3.08-9.23-4.5-14.04-4.5Z"/>
        <path class="cls-15" d="M173.59,454.1c-3.79-10.66-8.12-22.67-3.31-34.98,6.47-16.58-7.26-25.11-19.32-32.77-10.41-6.48-20.19-12.64-16.88-22.82,3.63-11.06,3.39-19.58-.71-25.19-3.47-4.74-9.62-7.27-17.83-7.19-6.55.08-12.38-7.98-18.61-16.43-7.33-9.95-14.83-20.22-24.29-17.93-1.66.39-3,1.34-3.79,2.84-3.31,6.24,1.89,21.09,7.49,36.88,5.99,17.06,12.86,36.33,8.36,44.54-4.89,9,3.94,17.22,13.33,25.98,9.94,9.24,21.22,19.74,18.22,32.93-2.84,12.32-3.47,16.9-1.74,19.58,1.34,2.13,4.1,2.61,8.28,3.4,2.84.55,6.47,1.18,10.88,2.61,19.01,5.92,24.53,18.24,24.61,18.4l.24.55.55-.08c9.15-1.42,14.51-4.03,17.04-8.21.16-.24.24-.47.39-.71,2.68-5.61.08-12.95-2.92-21.4Z"/>
        <path class="cls-2" d="M125.01,430.57c3.15,4.9,5.44,9.16,5.21,15.16-.16,5.61-1.03,11.14-1.5,16.66-.08,1.18-.16,2.29-.24,3.4-1.58-1.34-3.08-2.68-4.65-4.03-.71-.08-1.42-.08-2.21-.08,2.21,1.82,4.5,3.79,6.7,5.77-.24,3.87-.32,7.74-.32,11.61,0,2.29-.08,4.74.08,7.03-2.05-1.26-4.18-2.53-6.15-3.79-6.15-3.79-11.91-7.34-16.33-9.24-3.39-1.42-7.18-2.68-10.81-3.87-9.46-3.08-19.16-6.24-22.4-12.95-1.66-3.48-1.5-7.66.47-12.71,4.97-13.03.32-15.24-7.49-19.03-5.68-2.76-13.41-6.48-21.14-15.87-3.39-4.11-6.39-7.66-9.07-10.74-7.97-9.4-12.38-14.53-11.83-17.53.16-.71.55-1.34,1.34-1.97.39-.32.87-.63,1.5-.95,3-1.66,5.99-.39,9.39,1.03,4.57,1.9,10.17,4.34,17.98.32,6.15-3.16,13.01-6.08,17.11-3.71,2.84,1.58,4.5,5.69,5.05,12.4.16,2.13.87,3.63,2.05,4.5,1.74,1.26,4.42,1.11,7.49.47,2.13,2.92,4.89,4.34,8.2,5.53,4.65,1.66,8.12,3.16,11.51,6.95,7.26,8.21,14.28,16.58,20.03,25.67Z"/>
        <path class="cls-9" d="M99.85,443.6c-4.73-3.16-8.83-10.82-12.78-18.24-5.36-10.11-10.96-20.53-18.61-20.3-12.3.32-23.27-14.21-23.42-14.29l-1.03.79c.47.63,11.51,15.16,24.45,14.85,6.86-.16,12.3,9.87,17.43,19.66,4.02,7.5,8.2,15.32,13.17,18.72,3,1.98,8.52,6,15.06,11.14v-1.66c-5.76-4.82-10.88-8.45-14.28-10.66Z"/>
        <path class="cls-15" d="M515.48,541.45s7.1-17.69-5.84-42.8c-13.01-25.11-23.5-21.24,7.81-40.59,31.31-19.35.16-80.16,26.82-87.9,26.66-7.74,49.77-106.22,70.04-93.66,20.27,12.56-6.78,60.81,7.73,75.34,14.43,14.53,16.4,32.93-13.49,47.86-29.89,14.93,21.22,71.94-19.32,89.32-40.54,17.37-28.87,85.53-73.74,52.44Z"/>
        <path class="cls-9" d="M527.87,560.16c-.08-.24-4.42-22.82,9.39-52.04,14.04-29.77,20.74-62.31,17.98-87.11-1.5-13.43,7.1-18.64,15.38-23.69,8.2-4.98,16.64-10.19,16.17-23.38-.39-11.93,4.65-39.88,4.81-41.07l1.81.32c-.08.32-5.21,28.98-4.81,40.67.47,14.29-8.44,19.74-17.04,24.95-8.2,4.98-15.85,9.71-14.51,21.96,2.84,25.03-3.94,57.97-18.14,88.05-13.49,28.67-9.31,50.7-9.23,50.94l-1.81.39Z"/>
        <path class="cls-14" d="M635.52,413.43c11.28-5.37,23.27-2.92,17.04,8.37-6.23,11.29-15.54,12.16-13.8,21.09,1.74,8.92,6.31,18.64-8.36,24.32-14.67,5.61-21.53,4.66-30.44,21.16-8.99,16.51-12.07,28.75-27.45,24.8-15.38-4.03-2.6-24.32,5.36-32.85,0,0,10.8-9.16,10.65-25.67-.16-16.51-6.94-27.56,14.35-26.46,21.29.95,25-11.14,32.65-14.77Z"/>
        <path class="cls-9" d="M570.06,524.71c.63-2.13,15.46-53.23,27.6-58.76,12.38-5.69,19.09-20.53,22-28.83,3.79-10.82,19.95-12.95,20.59-13.03l.24,1.82c-.16,0-15.7,2.05-19.09,11.77-3.63,10.5-10.57,24.24-22.95,29.93-11.36,5.21-26.42,57.1-26.58,57.65l-1.81-.55Z"/>
        <path class="cls-9" d="M179.43,483.56c-24.29-6.08-24.61-19.19-24.92-31.83-.24-10.35-.47-20.14-13.65-26.14-17.43-7.98-17.82-22.74-18.22-35.77-.32-9.71-.55-18.88-7.81-23.85-17.43-11.92-32.18-40.83-32.34-41.14l1.34-.71c.16.32,14.67,28.82,31.86,40.59,7.89,5.37,8.2,14.93,8.44,25.04.39,13.19.79,26.93,17.35,34.43,13.96,6.4,14.27,17.14,14.51,27.48.32,12.64.63,24.64,23.82,30.4l-.39,1.5Z"/>
        <path class="cls-20" d="M146.7,471.87h398.99V183.46c0-4.11-3.31-7.5-7.49-7.5H154.19c-4.1,0-7.49,3.32-7.49,7.5v288.41Z"/>
        <path class="cls-5" d="M530.84,190.42H160.79v227.68h370.05v-227.68Z"/>
        <path class="cls-12" d="M545.69,429.15H146.85l-43.69,163.4h486.15l-43.62-163.4Z"/>
        <path class="cls-5" d="M161.92,457.82h24.53c1.03,0,1.81.79,1.58,1.66l-2.37,10.66c-.16.63-.79,1.11-1.58,1.11h-24.92c-1.03,0-1.81-.79-1.58-1.74l2.76-10.66c.16-.55.79-1.03,1.58-1.03Z"/>
        <path class="cls-5" d="M197.65,457.82h18.53l-2.45,13.51h-18.93l2.84-13.51Z"/>
        <path class="cls-5" d="M225.41,457.82h18.53l-1.89,13.51h-18.93l2.29-13.51Z"/>
        <path class="cls-5" d="M253.25,457.82h18.53l-1.42,13.51h-18.93l1.81-13.51Z"/>
        <path class="cls-5" d="M281.01,457.82h18.53l-.87,13.51h-18.93l1.26-13.51Z"/>
        <path class="cls-5" d="M308.77,457.82h18.53l-.31,13.51h-18.93l.71-13.51Z"/>
        <path class="cls-5" d="M531.18,457.82h-27.84l3,13.51h28.31l-3.47-13.51Z"/>
        <path class="cls-5" d="M494.11,457.82h-18.53l2.45,13.51h18.93l-2.84-13.51Z"/>
        <path class="cls-5" d="M466.35,457.82h-18.53l1.89,13.51h18.93l-2.29-13.51Z"/>
        <path class="cls-5" d="M438.51,457.82h-18.53l1.42,13.51h18.93l-1.81-13.51Z"/>
        <path class="cls-5" d="M410.75,457.82h-18.53l.87,13.51h18.93l-1.26-13.51Z"/>
        <path class="cls-5" d="M382.99,457.82h-18.53l.32,13.51h18.93l-.71-13.51Z"/>
        <path class="cls-5" d="M336.61,457.82h18.53l.24,13.51h-18.77v-13.51Z"/>
        <path class="cls-5" d="M153.79,481.35h38.64l-2.21,13.9h-39.43l3-13.9Z"/>
        <path class="cls-5" d="M537.17,481.35h-47.8l2.68,13.9h48.82l-3.71-13.9Z"/>
        <path class="cls-5" d="M479.76,481.35h-19.09l2.13,13.9h19.56l-2.6-13.9Z"/>
        <path class="cls-5" d="M451.05,481.35h-19.09l1.58,13.9h19.56l-2.05-13.9Z"/>
        <path class="cls-5" d="M422.34,481.35h-19.09l1.1,13.9h19.48l-1.5-13.9Z"/>
        <path class="cls-5" d="M393.63,481.35h-19.09l.55,13.9h19.48l-.95-13.9Z"/>
        <path class="cls-5" d="M147.96,506.07h39.59l-2.92,13.82h-40.3l3.63-13.82Z"/>
        <path class="cls-5" d="M197.41,506.07h19.8l-2.29,13.82h-20.19l2.68-13.82Z"/>
        <path class="cls-5" d="M227.14,506.07h148.35l.55,13.82h-151.11l2.21-13.82Z"/>
        <path class="cls-5" d="M385.43,506.07h19.8l1.1,13.82h-20.19l-.71-13.82Z"/>
        <path class="cls-5" d="M415.08,506.07h19.8l1.66,13.82h-20.19l-1.26-13.82Z"/>
        <path class="cls-5" d="M444.82,506.07h19.8l2.13,13.82h-20.11l-1.81-13.82Z"/>
        <path class="cls-5" d="M474.47,506.07h19.8l2.68,13.82h-20.11l-2.37-13.82Z"/>
        <path class="cls-5" d="M504.13,506.07h39.59l3.63,13.82h-40.3l-2.92-13.82Z"/>
        <path class="cls-5" d="M365,481.35h-19.01v13.9h19.32l-.32-13.9Z"/>
        <path class="cls-5" d="M336.3,481.35h-19.17l-.55,13.9h19.56l.16-13.9Z"/>
        <path class="cls-5" d="M307.59,481.35h-19.17l-1.1,13.9h19.56l.71-13.9Z"/>
        <path class="cls-5" d="M278.88,481.35h-19.17l-1.66,13.9h19.56l1.26-13.9Z"/>
        <path class="cls-5" d="M250.17,481.35h-19.17l-2.21,13.9h19.56l1.81-13.9Z"/>
        <path class="cls-5" d="M221.46,481.35h-19.16l-2.68,13.9h19.48l2.37-13.9Z"/>
        <path class="cls-5" d="M162.79,449.36l3.15-12h8.99l-2.92,12h-9.23Z"/>
        <path class="cls-5" d="M183.92,437.36h17.98l-2.45,12h-18.38l2.84-12Z"/>
        <path class="cls-5" d="M210.97,437.36h17.98l-2.05,12h-18.3l2.37-12Z"/>
        <path class="cls-5" d="M237.95,437.36h17.98l-1.58,12h-18.3l1.89-12Z"/>
        <path class="cls-5" d="M264.92,437.36h17.98l-1.11,12h-18.3l1.42-12Z"/>
        <path class="cls-5" d="M291.89,437.36h17.98l-.63,12h-18.3l.95-12Z"/>
        <path class="cls-5" d="M318.87,437.36h17.98l-.16,12h-18.3l.47-12Z"/>
        <path class="cls-5" d="M345.84,437.36h17.98l.31,12h-18.3v-12Z"/>
        <path class="cls-5" d="M372.81,437.36h17.98l.79,12h-18.3l-.47-12Z"/>
        <path class="cls-5" d="M399.79,437.36h18.06l1.18,12h-18.3l-.95-12Z"/>
        <path class="cls-5" d="M426.84,437.36h17.98l1.73,12h-18.3l-1.42-12Z"/>
        <path class="cls-5" d="M453.81,437.36h17.98l2.21,12h-18.3l-1.89-12Z"/>
        <path class="cls-5" d="M480.78,437.36h17.98l2.68,12h-18.3l-2.37-12Z"/>
        <path class="cls-5" d="M507.76,437.36h17.98l3.15,12h-18.3l-2.84-12Z"/>
        <path class="cls-13" d="M576.61,605.26H115.86c-7.02,0-12.7-5.69-12.7-12.71h486.15c0,7.03-5.68,12.71-12.7,12.71Z"/>
        <path class="cls-13" d="M402.78,539.71c-.47-2.84-3-4.98-5.84-4.98h-101.35c-2.92,0-5.36,2.13-5.84,4.98l-6.31,38.3c-.63,3.63,2.21,6.95,5.84,6.95h113.89c3.71,0,6.47-3.32,5.84-6.95l-6.23-38.3Z"/>
        <path class="cls-20" d="M226.98,209.76h-41.25v4.26h41.25v-4.26Z"/>
        <path class="cls-20" d="M268.31,241.59h-29.73v4.26h29.73v-4.26Z"/>
        <path class="cls-20" d="M292.68,241.59h-19.72v4.26h19.72v-4.26Z"/>
        <path class="cls-20" d="M205.93,321.67h-19.72v4.27h19.72v-4.27Z"/>
        <path class="cls-20" d="M344.34,241.59h-47.71v4.26h47.71v-4.26Z"/>
        <path class="cls-20" d="M216.89,305.63h-30.68v4.26h30.68v-4.26Z"/>
        <path class="cls-20" d="M247.65,337.54h-18.69v4.26h18.69v-4.26Z"/>
        <path class="cls-20" d="M223.28,337.54h-37.07v4.26h37.07v-4.26Z"/>
        <path class="cls-20" d="M206.64,353.49h-20.43v4.26h20.43v-4.26Z"/>
        <path class="cls-20" d="M264.29,209.76h-29.26v4.26h29.26v-4.26Z"/>
        <path class="cls-20" d="M264.29,257.54h-29.26v4.26h29.26v-4.26Z"/>
        <path class="cls-20" d="M232.9,273.41h-12.54v4.27h12.54v-4.27Z"/>
        <path class="cls-20" d="M235.98,289.6h-28.08v4.26h28.08v-4.26Z"/>
        <path class="cls-20" d="M279.04,289.6h-38.8v4.26h38.8v-4.26Z"/>
        <path class="cls-20" d="M215.47,273.57h-29.26v4.26h29.26v-4.26Z"/>
        <path class="cls-20" d="M203.56,289.6h-17.35v4.26h17.35v-4.26Z"/>
        <path class="cls-20" d="M255.22,273.57h-16.4v4.26h16.4v-4.26Z"/>
        <path class="cls-20" d="M203.16,369.36h-16.4v4.27h16.4v-4.27Z"/>
        <path class="cls-20" d="M215.39,241.59h-29.26v4.26h29.26v-4.26Z"/>
        <path class="cls-20" d="M241.26,321.67h-29.26v4.27h29.26v-4.27Z"/>
        <path class="cls-20" d="M241.65,353.49h-29.26v4.26h29.26v-4.26Z"/>
        <path class="cls-20" d="M293.63,353.49h-29.26v4.26h29.26v-4.26Z"/>
        <path class="cls-20" d="M227.85,257.54h-41.72v4.26h41.72v-4.26Z"/>
        <path class="cls-20" d="M410.9,209.76h-29.26v4.26h29.26v-4.26Z"/>
        <path class="cls-20" d="M306.64,369.36h-29.26v4.27h29.26v-4.27Z"/>
        <path class="cls-20" d="M439.53,209.76h-19.56v4.26h19.56v-4.26Z"/>
        <path class="cls-20" d="M505.86,225.71h-19.56v4.26h19.56v-4.26Z"/>
        <path class="cls-20" d="M309.48,209.76h-37.31v4.26h37.31v-4.26Z"/>
        <path class="cls-20" d="M454.76,225.71h-37.31v4.26h37.31v-4.26Z"/>
        <path class="cls-20" d="M409.01,241.59h-37.3v4.26h37.3v-4.26Z"/>
        <path class="cls-20" d="M360.51,257.54h-37.3v4.26h37.3v-4.26Z"/>
        <path class="cls-20" d="M440.17,241.59h-26.5v4.26h26.5v-4.26Z"/>
        <path class="cls-20" d="M374.31,209.76h-37.3v4.26h37.3v-4.26Z"/>
        <path class="cls-20" d="M316.34,257.54h-21.85v4.26h21.85v-4.26Z"/>
        <path class="cls-20" d="M299.23,321.9h-21.85v4.26h21.85v-4.26Z"/>
        <path class="cls-20" d="M329.99,209.76h-13.64v4.26h13.64v-4.26Z"/>
        <path class="cls-20" d="M285.82,257.54h-13.65v4.26h13.65v-4.26Z"/>
        <path class="cls-20" d="M477.39,225.71h-13.64v4.26h13.64v-4.26Z"/>
        <path class="cls-20" d="M207.11,225.71h-21.37v4.26h21.37v-4.26Z"/>
        <path class="cls-20" d="M259.64,305.71h-16.88v4.26h16.88v-4.26Z"/>
        <path class="cls-20" d="M219.26,225.71h-6.86v4.26h6.86v-4.26Z"/>
        <path class="cls-20" d="M410.9,225.71h-57.02v4.26h57.02v-4.26Z"/>
        <path class="cls-20" d="M356.25,353.49h-57.02v4.26h57.02v-4.26Z"/>
        <path class="cls-20" d="M231.32,225.71h-7.02v4.26h7.02v-4.26Z"/>
        <path class="cls-20" d="M348.6,225.71h-18.61v4.26h18.61v-4.26Z"/>
        <path class="cls-20" d="M367.29,241.59h-18.61v4.26h18.61v-4.26Z"/>
        <path class="cls-20" d="M271.39,369.36h-18.61v4.27h18.61v-4.27Z"/>
        <path class="cls-20" d="M325.1,225.71h-39.67v4.26h39.67v-4.26Z"/>
        <path class="cls-20" d="M271.62,321.9h-23.19v4.26h23.19v-4.26Z"/>
        <path class="cls-20" d="M258.61,353.49h-11.59v4.26h11.59v-4.26Z"/>
        <path class="cls-20" d="M279.75,225.71h-13.64v4.26h13.64v-4.26Z"/>
        <path class="cls-20" d="M233.85,241.59h-13.64v4.26h13.64v-4.26Z"/>
        <path class="cls-20" d="M236.53,305.71h-13.64v4.26h13.64v-4.26Z"/>
        <path class="cls-20" d="M260.98,225.71h-23.82v4.26h23.82v-4.26Z"/>
        <path class="cls-15" d="M436.85,257.7s6.94,11.77,9.86,13.66c3.94,2.61,1.5,5.21-.39,5.29-1.89,0-11.51.71-13.64-1.74-2.13-2.45-3.15-9.64-5.13-11.53-1.97-1.9-4.02-9.4.95-11.21,4.34-1.66,8.36,5.53,8.36,5.53Z"/>
        <path class="cls-21" d="M433.78,252.56s7.97,13.82,9.31,15.8c1.34,2.05-2.6,2.05-5.05,1.1-2.45-.95-8.6-10.82-9.46-12.64-1.03-2.13-.16-4.58-.16-4.58l5.36.32Z"/>
        <path class="cls-15" d="M425.73,259.91l1.89,14.14.95.08-.32-10.19-2.52-4.03Z"/>
        <path class="cls-15" d="M368,257.7s6.94,11.77,9.86,13.66c3.94,2.61,1.5,5.21-.39,5.29-1.89,0-11.51.71-13.64-1.74-2.13-2.45-3.15-9.64-5.13-11.53-1.97-1.89-4.1-9.63.95-11.21,4.42-1.42,8.36,5.53,8.36,5.53Z"/>
        <path class="cls-21" d="M365.4,252.56s7.49,13.74,8.91,15.8c1.34,2.05-2.6,2.05-5.05,1.1-2.44-.95-8.6-10.82-9.46-12.64-1.02-2.13-.16-4.58-.16-4.58l5.76.32Z"/>
        <path class="cls-15" d="M356.96,259.91l1.81,14.14,1.02.08-.32-10.19-2.52-4.03Z"/>
        <path class="cls-21" d="M337.24,150.53l62.78,28.67s7.02,2.29,7.81,10.11c2.44,24.32,20.58,62.86,20.58,62.86,5.84,2.84,5.36.39,5.36.39-3.71-11.85-8.12-60.49-9.78-80-.32-4.11-.55-6.95-.63-7.9,0-.63-.71-1.42-1.89-2.37-8.6-7.03-44.09-21.48-44.09-21.48-26.42-.71-40.14,9.71-40.14,9.71Z"/>
        <path class="cls-21" d="M325.41,162.85c1.97,16.98,26.18,15.08,26.18,15.08h29.34s-7.73,17.22-10.73,31.67c-3.16,15.4-10.65,42.57-10.65,42.57,0,0,.47.95,5.84.39,0,0,23.03-45.96,31.86-57.57,1.89-2.45,7.33-16.03,8.28-24.09.32-2.69.16-4.82-.87-5.69-1.03-.87-3.39-2.45-6.47-4.42-9.23-5.84-25.16-14.77-34.07-16.74-11.91-2.68-30.76-7.74-30.76-7.74,0,0-9.94,9.56-7.97,26.54Z"/>
        <path class="cls-14" d="M345.36,31.91s-4.42-8.37-2.29-17.22c2.13-8.92,10.41-17.77,22.48-13.66,12.07,4.11,21.85,13.43,14.59,24.32-7.26,10.82,6.55,15.79,3,20.93-3.55,5.13-2.21,10.58-.71,11.77,1.5,1.18,6.31,5.45,5.76,10.58-.55,5.05-23.42-14.77-23.42-14.77,0,0-12.38-25.19-19.4-21.95Z"/>
        <path class="cls-18" d="M382.2,138.68s-1.81,8.85-48.74-2.29c0,0,15.7-5.21,48.74,2.29Z"/>
        <path class="cls-9" d="M332.9,138.84c-.71,1.42-1.42,2.76-2.21,4.18,17.11.47,34.31,1.03,51.42,1.5-2.68-9.08-1.81-21.4-1.34-30.72.55-11.45,6.86-19.35,6.23-30.88,3.39.55,3.94.63,7.33,1.18-5.21-14.85-6.94-22.19-23.11-27.88-5.28-1.9-8.68-2.21-14.35-1.74-18.69,1.58-24.29,1.74-33.52,18.72,14.35,2.29,11.99,7.42,16.33,21.8,2.13,6.95,4.34,14.77,3.23,22.11-1.1,7.19-10.02,15.16-10.02,21.72Z"/>
        <path class="cls-21" d="M362.72,59.79c-7.65-1.42-5.99-5.69-5.99-5.69,0,0,.32-2.37.47-5.45,0-.79.08-1.58.08-2.45,0-1.26-.08-2.53-.24-3.79-.63-5.13,13.88-2.05,13.88-2.05,0,0-.87,10.42,1.18,13.5,1.97,3.16-1.73,7.42-9.39,5.92Z"/>
        <path class="cls-21" d="M348.13,54.1s15.46,17.85,21.14,21.95c0,0,6.55-5.92,2.52-21.56,0,0-7.41-3.79-23.66-.39Z"/>
        <path class="cls-21" d="M348.6,11.14s-8.05,15.48-.08,30.09c7.97,14.61,23.58-6.4,24.53-8.85,1.02-2.45,6.39-16.43-4.26-20.61-10.65-4.26-17.9-4.82-20.19-.63Z"/>
        <path class="cls-10" d="M364.06,42.81s-1.42,3.08-6.86,5.84c0-.79.08-1.58.08-2.45,0,0,3.71-.39,6.78-3.4Z"/>
        <path class="cls-21" d="M283.06,124.94s-3.79,1.66-5.6.95c-1.81-.79-4.57-.95-5.44-.95-1.18,0-4.89-1.34-4.81.16.08,1.42,5.99,2.45,7.18,2.92,1.18.47-3.63,3.08-4.1,4.26-.47,1.18,5.05,8.92,8.12,6.71,3.08-2.21,4.73-6.63,5.36-6.95.63-.32,2.29-1.5,2.29-1.5l-3-5.61Z"/>
        <path class="cls-21" d="M270.91,131.58s-8.91,7.42-9.07,8.45c-.16,1.03.32,1.5,1.18.79.87-.63,8.83-6.95,8.83-6.95,0,0-8.91,10.58-9.23,11.37-.16.47.71,1.42,1.18,1.1s10.02-10.27,10.02-10.27c0,0-8.36,9.87-8.36,10.66-.08.63.95,1.34,1.66.63.71-.71,8.99-9.4,8.99-9.4,0,0-5.6,7.58-5.21,8.29.24.39.95,1.26,2.29-.71,1.34-1.97,5.13-6.4,5.13-6.4l-7.41-7.58Z"/>
        <path class="cls-14" d="M377.86,177.85h-26.26s-24.21,1.98-26.18-15.08c-1.97-16.98,7.97-26.46,7.97-26.46,0,0,12.78,3.4,23.98,6.08,5.6-1.18,12.3-1.97,20.19-1.74,0,0,47.32,15.64,45.9,23.93,0,.08-19.8-10.5-45.59,13.27Z"/>
        <path class="cls-12" d="M360.74,148.48l50.16-.79-25.32,12.87-24.84-12.08Z"/>
        <path class="cls-9" d="M376.36,142s-11.28,4.34-25.08.4l-.63-5.13,28.47,1.58-2.76,3.16Z"/>
        <path class="cls-13" d="M385.59,160.56l-24.84-9.63v-2.45l26.82,9.63-1.97,2.45Z"/>
        <path class="cls-15" d="M376.12,144.45c-.16,1.82,1.74,3.16,3.47,2.45l2.92-1.26c.87-.4,1.42-1.26,1.26-2.21-1.18-7.58-3.78-37.12,0-42.25,1.42-1.9,2.29-3.55,2.76-4.97,2.52,6.48,5.6,14.85,6.86,19.35l23.66,31.59,7.97,2.05c-9.94-23.93-17.9-36.57-17.9-36.57-1.58-4.18-5.99-16.82-9.94-28.04-2.52-7.11-4.73-13.66-5.99-17.14-.63-1.82-1.81-3.32-3.47-4.26-3.71-2.21-9.78-5.69-15.3-8.37h-.08c-.16-.08-.32-.16-.55-.24,10.57,15.87,6.47,60.97,4.34,89.87q0-.05,0,0Z"/>
        <path class="cls-15" d="M337.01,55.84c-3.39.55-11.75,8.69-16.17,16.9-5.05,9.4-10.25,20.06-14.12,23.53-7.1,6.48-27.05,29.3-28,28.75-.39-.24,5.44,6.79,6.23,7.11.39.16,32.73-27.96,35.89-32.22,2.92-4.03,10.8-21.09,13.17-20.69.16.39,3.08,6.63,5.76,15.72.08.16.08.32.16.47,1.89,6.32,1.73,13.27.71,21.01-.79,5.84-5.13,15.4-7.73,20.06-.32.55-.24,1.66.08,2.45.24.47.47.87.87,1.03l9.54,3.55,2.21.79c1.58.63,3.31.32,4.57-.63,1.03-.71,1.81-1.9,1.97-3.32,2.13-16.27,4.81-32.93,6.94-39.17,9.39-27.48-3.63-48.17-3.63-48.17,0,0-15.46,1.74-18.45,2.84Z"/>
        <path class="cls-15" d="M385.59,160.56l14.91-40.75,48.03.79-14.2,37.59-48.74,2.37Z"/>
        <path class="cls-7" d="M415.87,137.82c-1.5,2.92-1.03,6.16,1.02,7.11,2.05,1.03,4.81-.55,6.31-3.47,1.5-2.92,1.03-6.16-1.02-7.11-2.05-1.03-4.89.55-6.31,3.47Z"/>
        <path class="cls-14" d="M386.69,60.82c-3.55-5.37-6.07-9.63-6.39-17.3-.24-5.05-1.34-11.92-4.81-15.32,3.63-9.48-.63-12.32-2.37-15.4-2.13-3.87-17.9-13.19-24.13-3.4-6.23,9.71-4.02,19.9-4.02,19.9.63-5.37,6.15-12.64,6.15-12.64.87,5.61,12.46,14.77,17.51,18.48-.08.08-.16.24-.16.32-2.84,4.11.71,8.21,1.34,12.56.63,4.34-11.91,16.03,2.05,21.88,13.96,5.92,18.38-3.79,14.83-9.08Z"/>
        <path class="cls-14" d="M132.81,520.84s-.32,3.32-15.77,3.32-37.94-4.03-37.94-4.03l35.88-3.48s13.8-.71,17.82,4.19Z"/>
        <path class="cls-14" d="M93.46,522.02c-8.75,0-12.46,4.5-15.93,5.92-3.47,1.42-6.94,3.55-6.94,3.47,1.97-3.87,4.73-3.95,6.15-5.21,1.42-1.26,1.03-.63-2.05-.87-1.74-.16-4.89,3.08-7.1,4.9-1.97,1.5-3.15,1.66-3.15,1.66,0,0,2.29-3.24,5.13-5.84,3.47-3.16,7.81-5.77,8.83-6.24,1.89-.79,7.73-.95,11.83-.39,4.73.63,9.54,2.61,3.23,2.61Z"/>
        <path class="cls-14" d="M78.95,519.97s-6.7,1.74-7.89,2.68c-.79.63-4.26,4.34-4.26,4.34,0,0,2.52-.39,3.94-1.82,1.5-1.5,8.2-5.21,8.2-5.21Z"/>
        <path class="cls-14" d="M120.12,514.04s16.88,1.11,15.69,11.53c-.63,5.92-4.5,7.98-9.62,7.5-9.47-.79-20.19-2.21-20.19-2.21l-4.81-16.19,18.93-.63Z"/>
        <path class="cls-14" d="M123.67,515.47l16.56-53.47s2.45-7.82,6.47-6.4c5.76,2.13,2.92,8.53,2.44,12.32-1.02,7.74-.32,11.14-5.68,29.77-3.31,11.53-6.15,24.8-8.99,32.38-1.97,5.21-5.36-2.29-10.49-4.34-9.62-3.87-.32-10.27-.32-10.27Z"/>
        <path class="cls-14" d="M124.93,432.94c3.23,9.32,13.25,14.14,22.48,10.74,9.15-3.4,14.04-13.74,10.81-23.06-3.23-9.32-13.25-14.14-22.48-10.74-9.15,3.4-14.04,13.74-10.81,23.06Z"/>
        <path class="cls-14" d="M106.79,433.81c5.05,7.58,15.14,9.48,22.48,4.26l-1.02-8.92c7.33-5.29,9.15-15.72,4.1-23.3l-3.47-5.13c-5.05-7.58-15.14-9.48-22.48-4.26l-3.31,2.37c-7.33,5.29-9.15,15.72-4.1,23.3l7.81,11.69Z"/>
        <path class="cls-21" d="M100.16,408.93c.87,1.26,1.81,2.45,2.92,3.63,7.26,7.9,16.96,10.9,23.11,7.66,2.84,3.87,6.07,6.95,8.99,9.32,3.39,2.76,12.07,3.87,12.07,3.87,5.05,5.53-13.88,37.83-15.22,37.67-2.76-.24-6.31-18.09-3.71-24.56,1.18-2.92,3.08-6.4,2.52-7.98-1.97-5.45-4.73-4.5-4.73-4.5,0,0-3.63,4.26-6.47,4.11-2.92-.24-7.96-4.82-8.2-4.9-.87-.71-1.66-1.58-2.37-2.61l-7.57-11.37c-1.97-3.16-2.45-6.95-1.34-10.35Z"/>
        <path class="cls-7" d="M158.05,545s-6.15,7.42-8.04,8.21c-2.52,1.11-10.25-1.26-10.25-1.26,0,0-2.05-34.04-4.42-47.3-2.37-13.27-5.84-16.74-5.99-20.93-.24-6.71-5.84-9.4-4.89-14.61.95-5.21,2.6-23.85,3.15-21.4,4.81,21.17,10.73,3.55,12.07.79.71-1.5,18.38,96.51,18.38,96.51Z"/>
        <path class="cls-14" d="M130.05,441.39s-7.49,8.21-6.94,11.45c.47,3.24-3.23,13.35.47,27.4,4.18,16.03,6.39,26.93,7.18,37.43.79,10.5-2.76,20.14-1.34,33.01,1.1,10.11,3.39,10.66,3.39,10.66,0,0,4.49,1.1,7.65-2.84,3.15-3.87-1.58-38.3-3.15-46.83-1.58-8.61-6.62-28.67-7.97-34.59-1.66-7.27-1.34-14.69-1.26-16.82.4-7.5,1.34-12.16,2.13-15.01.08-.39.47-4.82-.16-3.87Z"/>
        <path class="cls-14" d="M143.15,451.02c4.1,11.85,16.88,17.93,28.55,13.58,11.67-4.34,17.82-17.45,13.72-29.3s-16.88-17.93-28.55-13.58c-11.67,4.27-17.82,17.45-13.72,29.3Z"/>
        <path class="cls-4" d="M103,654.62l4.18,33.41-18.14,8.61-10.02,2.21,17.82-13.82-5.84-30.17,11.99-.24Z"/>
        <path class="cls-14" d="M108.36,693.08l-3.94,1.03-2.68-2.45-14.51,7.26-12.86,3.08s-.16-1.03.24-1.58c1.58-2.13,10.65-6.79,10.65-6.79,0,0,.16,3.08,1.42,3.16,1.26.08,12.38-5.77,14.98-7.35,4.42-2.76,5.28-4.58,5.6-4.34.95.47,1.1,7.98,1.1,7.98Z"/>
        <path class="cls-4" d="M59.23,608.18l-14.43,28.43-19.87-.95-9.94-2.92,22-3.71,11.99-24.32,10.25,3.47Z"/>
        <path class="cls-14" d="M43.61,641.66l-3.94-.95-1.26-3.47-17.9-.24-10.65-2.53s1.26-1.42,2.05-1.82c2.37-1.03,10.8-1.5,10.8-1.5,0,0-.87,2.45.24,3.08,1.1.71,13.41,1.11,16.4.87,5.21-.39,6.7-1.5,6.86-1.18.55,1.11-2.6,7.74-2.6,7.74Z"/>
        <path class="cls-15" d="M164.52,523.13l-10.73,4.82.08,14.77-73.9-12.08s-7.02-2.29-11.51,9.32c-6.39,16.43-22.64,67.52-22.64,67.52l10.25,11.14,32.26-57.73s66.09,32.14,87.86,25.19c8.36-2.69,14.75-18.01,13.57-33.48-.95-12.16-3.31-23.3-3.31-23.3l-21.93-6.16Z"/>
        <path class="cls-15" d="M155.13,585.75l-52.92-3.95,4.57,84.66-15.62.55-11.51-99.19s3.08-14.77,13.17-12.56c10.17,2.29,34.62,21.72,62.31,30.48Z"/>
        <path class="cls-2" d="M190.78,606.99s-27.76-31.19-34.94-48.8c-8.6-21.09-7.89-47.54-9.46-56.31-2.92-16.11-6.47-47.38-7.1-51.25-.71-3.87,1.74-8.21,1.74-8.21,0,0-1.81-11.69,3.39-10.42,7.49,1.82,14.91,5.92,17.51,7.19,4.89,2.21,14.91,61.12,15.46,63.97,2.05,10.27,9.54,19.59,14.91,29.14,12.62,22.67,15.85,49.44,15.85,49.44,0,0-1.58,19.59-17.35,25.27Z"/>
        <path class="cls-21" d="M162.15,525.42s-.24,3.79-17.9,2.92c-17.67-.95-43.54-6.87-43.54-6.87l40.93-1.9s15.7.08,20.51,5.84Z"/>
        <path class="cls-21" d="M114.6,523.52c-8.44-.16-12.07,4.19-15.38,5.53-3.31,1.34-6.7,3.32-6.7,3.32,1.89-3.71,4.57-3.79,5.99-4.98,1.34-1.18,1.03-.55-1.97-.87-1.74-.16-4.73,2.92-6.86,4.66-1.89,1.5-3.08,1.58-3.08,1.58,0,0,2.21-3.16,4.97-5.69,3.39-3,7.49-5.53,8.52-5.92,1.81-.71,7.41-.79,11.44-.16,4.5.63,9.15,2.68,3.08,2.53Z"/>
        <path class="cls-21" d="M100.48,521.23s-6.47,1.58-7.57,2.45c-.79.63-4.1,4.18-4.1,4.18,0,0,2.37-.4,3.79-1.74,1.42-1.26,7.89-4.9,7.89-4.9Z"/>
        <path class="cls-14" d="M148.04,521.23l26.18-13.82s.08,16.74.24,23.14c.16,6.4,2.84,15.4-2.21,16.74-5.05,1.34-7.65.63-2.44,3.71,5.21,3,4.02,6.16,2.05,8.77-1.97,2.61,6.62,29.14,4.57,30.64-8.12-10.27-16.88-22.98-20.66-32.22-4.81-12-6.7-25.74-7.73-36.96Z"/>
        <path class="cls-2" d="M156.48,514.52l-1.03-53.39s.08-16.66.39-21.56c.32-5.05,8.91.87,8.91.87,0,0,12.07,16.35,12.3,55.76.16,26.38-1.26,40.12-13.41,39.01-11.28-1.03-24.13-2.76-24.13-2.76l-5.6-14.61,22.56-3.32Z"/>
        <path class="cls-13" d="M153.79,542.71l-90.15-11.29.24-1.9,90.15,11.29-.24,1.9Z"/>
        <path class="cls-13" d="M114.28,535.76c-.16,1.5-1.34,2.61-2.6,2.45l-46.22-5.77c-1.26-.16-2.84-1.34-3.94-5.29l-17.82-46.2c.24-1.9,1.74-2.84,3-2.37l47.24,7.42c1.26.47,2.13,1.58,2.6,3.63l17.74,46.12Z"/>
        <path class="cls-13" d="M108.44,537.03l.47.08,45.11,5.69c-1.74.71-4.49.95-7.57.55l-37.78-4.74-.47-.08-37.78-4.74c-3.08-.39-5.68-1.34-7.26-2.37l45.27,5.61Z"/>
        <path class="cls-14" d="M156.48,514.52l-1.03-53.39s.79-4.5,2.37-8.53c.39,5.84,3.08,47.94,3.39,53.46.4,6,5.29,6.63,6.31,8.61,1.1,1.9.16,2.29-3.47,1.58-3.55-.79-2.29-.16-1.5,1.74.79,1.97-1.18,1.42-8.12-1.1-5.05-1.82-14.75,0-19.64,1.1l21.69-3.47Z"/>
        <path class="cls-17" d="M468.16,383.5c-8.67,2.29-24.68,10.35-28.08,24.17-5.05,20.77,5.05,51.17-10.88,81.03-5.13,9.48,88.1,22.27,88.1,22.27l17.98-104.88s-22.48-22.74-27.05-24.32c-9.54-3.16-22.71-2.84-40.07,1.74Z"/>
        <path class="cls-2" d="M535.36,406.17c3.23,8.37,11.44,58.2,2.29,69.97-1.03,1.34,4.73,3.48,3.71,9.64-.16,1.03-1.89,6-1.89,6l-7.41,1.97-16.17-18.72s6.55-10.19,15.14-48.8c2.52-11.37,3.63-21.96,4.34-20.06Z"/>
        <path class="cls-10" d="M474.16,465.71s7.81,20.61,26.66,26.14c3.23.95,5.28,4.58,3.71,5.77-2.05,1.5-4.73,1.82-9.46,1.82-9.86,0-23.27-3.16-32.49-12.48-13.72-13.74-18.06-20.06-16.64-26.93,1.26-7.03,28.23,5.69,28.23,5.69Z"/>
        <path class="cls-2" d="M442.77,400.72c-4.02,6.79-6.31,17.69-6.23,33.33,0,12.08,10.1,31.91,11.59,37.99.24,1.03.87,5.37.87,5.37l11.12,11.37,22.32-15.72-6.78-10.82-2.05.24s-1.26-6-.95-8.29c.32-2.29-6.15-33.49-9.39-53.47-1.81-11.61-16.56-6.71-20.51,0Z"/>
        <path class="cls-14" d="M462.8,462l6.55-2.05,2.68-.71c.16,1.9,1.73,3.16,1.73,3.16l-5.13.63-5.92,1.89-6.94,4.98,7.02-7.9Z"/>
        <path class="cls-10" d="M499.4,491.77l11.36-3.24s3.23,4.5,2.6,5.61c-.63,1.11,0,7.74,0,7.74l-5.52,4.9-4.5-1.58s-.32-2.05,1.18-2.21c1.58-.24-1.02-1.34-1.81-1.82-.79-.55-7.34-4.03-3.31-9.4Z"/>
        <path class="cls-16" d="M481.89,382.48c-1.26,3.71.63,7.9,4.26,9.16l6.47,2.37c3.63,1.34,7.57-.71,8.83-4.42l5.76-17.06c1.26-3.71-.63-7.9-4.26-9.24l-6.47-2.37c-3.63-1.34-7.57.71-8.83,4.42l-5.76,17.14Z"/>
        <path class="cls-10" d="M510.12,397.48c-.63,2.45-3.15,3.95-5.52,3.24l-19.48-5.61c-2.37-.71-3.79-3.24-3.15-5.76l7.97-29.93c.63-2.45,3.15-3.95,5.52-3.24l19.48,5.53c2.37.71,3.79,3.24,3.15,5.77l-7.96,30.01Z"/>
        <path class="cls-15" d="M520.22,364.47c.16-.16-1.81-2.37-.79-6.71,1.34-5.84-3-8.21-6.23-8.29-1.89-.08-8.28,3-11.67,4.03s-3.08-.32-9.23-1.42c-4.1-.79-5.05,1.5-6.47,4.66-1.42,3.24-1.58,15.56-1.58,15.56.55.79,1.42,1.42,1.97.79.55-.63,2.76-10.5,4.58-13.42,1.73-2.92,8.83,1.74,12.7,4.03,3.79,2.29,7.18,2.68,13.25,1.42.71.79,1.34,1.66,1.34,2.05,0,.79-1.73,6.4-1.73,6.4,0,0,3.39-2.13,4.34-3.79.47-.55.63-3.24-.47-5.29Z"/>
        <path class="cls-10" d="M488.12,383.11c-.24.79-1.02,1.34-1.81,1.11l-4.18-1.18c-.79-.24-1.26-1.11-1.02-1.9l2.13-7.98c.24-.79,1.03-1.34,1.81-1.11l4.18,1.18c.79.24,1.26,1.11,1.03,1.9l-2.13,7.98Z"/>
        <path class="cls-15" d="M485.52,375.52s-3.16,11.77-4.18,15.72c-.95,3.55-1.66,11.77,17.67,17.3,11.44,3.24,13.33-5.61,14.12-8.45.55-2.21-.08-9.4-.95-10.98,0-.08-1.26,4.9-1.26,4.9,0,0-1.1-5.45-6.55-6.95-8.75-2.53-12.22,2.29-16.01,1.03-3-1.03-3.86-6.71-2.84-12.56Z"/>
        <path class="cls-10" d="M498.69,393.61l5.99,1.74c.79.24,1.66-.24,1.81-1.1l.24-.87-8.91-2.53-.24.87c-.16.87.32,1.66,1.11,1.9Z"/>
        <path class="cls-6" d="M593.72,513.25c-2.76,7.98-51.34,37.28-67.67,35.54l-49.13,2.45c-41.72-5.29-61.52-72.58-61.52-72.58,1.66-16.9,42.83,7.58,57.49,15.16,23.19,12,37.93,12.64,37.93,12.64,15.54,1.66,33.52-10.82,53.16-11.21,21.53-.55,34.15,5.45,29.73,18.01Z"/>
        <path class="cls-13" d="M486.93,505.2q0-.05,0,0v-2.21l84.47-1.58v2.21l-.24.4c-1.03,1.9-3,2.21-5.21,2.29l-73.51,1.42c-2.21.08-4.18-.24-5.28-2.05l-.24-.47Z"/>
        <path class="cls-13" d="M507.28,505.12l-.24.4c-.32.47-.71.87-1.18,1.11l-12.86.24c-2.13.08-4.02-.16-5.13-1.66l-.24-.32-.08-.08v-1.03l19.56-.4.16,1.74Z"/>
        <path class="cls-13" d="M518.72,504.33l42.2-.79v-1.5l-42.27.87.08,1.42Z"/>
        <path class="cls-13" d="M507.76,502.51l10.17-43.28c.24-1.11,1.34-2.05,2.44-2.13l59.31-1.11c1.1,0,1.73.87,1.5,2.05l-10.17,43.28-63.25,1.18Z"/>
        <path class="cls-10" d="M469.5,562.38c5.84,1.03,10.33-6,10.33-6l15.14-12.32-3.23-8.37-29.5,13.74s1.34,11.92,7.26,12.95Z"/>
        <path class="cls-15" d="M479.76,555.9s0,.71-1.1,3.95c-1.1,3.24-2.52,4.34-3.94,4.82-5.68,1.74-9.7.87-23.27,3.55-13.57,2.69-17.67.63-21.61-5.84-3.94-6.47.16-11.61,6.78-12.08,9.54-.71,14.91.39,19.88-.4,5.21-.79,5.52-2.05,8.6-4.03,2.84-1.82,5.52,9.08,2.84,11.61-2.45,2.21,9.86,2.53,11.83-1.58Z"/>
        <path class="cls-9" d="M476.92,562.14c-5.6,1.74-9.7.87-23.27,3.55-13.57,2.68-17.67.63-21.61-5.84-1.81-3-1.89-5.69-.87-7.74-3,2.13-4.02,5.84-1.34,10.27,3.94,6.48,8.04,8.53,21.61,5.84,13.57-2.68,17.67-1.82,23.27-3.55,1.1-.32,2.21-1.11,3.15-2.92-.32.16-.63.32-.95.39Z"/>
        <path class="cls-8" d="M479.76,556.14v-.16c0,.08-.08.16-.16.24.08-.08.16-.08.16-.08Z"/>
        <path class="cls-9" d="M450.5,560.95c-.39.16-.79-.71-.95-1.89-.24-2.45-.79-4.82-1.58-7.27-.39-1.19-.39-2.21.08-2.37.47-.16,1.26.71,1.58,1.89.79,2.37,1.26,4.82,1.5,7.19.16,1.18-.24,2.29-.63,2.45Z"/>
        <path class="cls-9" d="M454.68,560.16c-.47.08-.87-.71-1.02-1.82-.24-2.29-.79-4.58-1.58-6.79-.39-1.11-.39-2.05.16-2.13.47-.08,1.26.79,1.66,1.89.71,2.21,1.26,4.5,1.5,6.71.08,1.11-.24,2.05-.71,2.13Z"/>
        <path class="cls-9" d="M459.09,560.01c-.47.08-.95-.79-1.1-1.97-.39-2.37-.95-4.66-1.81-7.03-.39-1.18-.39-2.13.08-2.13.55,0,1.34.87,1.74,2.05.87,2.29,1.42,4.66,1.74,6.95.16,1.11-.16,2.05-.63,2.13Z"/>
        <path class="cls-14" d="M470.53,542.24s103.87-44.3,109.79-44.38c20.03-.16,15.46,20.85,5.28,30.8-11.99,11.69-103.16,33.09-103.16,33.09l-11.91-19.51Z"/>
        <path class="cls-10" d="M511.7,549.98l-28.39-27.96,12.15-12.4,30.92,33.8-14.67,6.55Z"/>
        <path class="cls-14" d="M517.53,528.02s-72.16-68.63-76.98-70.68c-16.48-6.95-26.66,11.92-26.1,18.48.79,8.45,74.06,77.16,74.06,77.16l29.02-24.96Z"/>
        <path class="cls-15" d="M560.28,552.11c1.66,1.58,1.97,6.4,1.97,6.4,0,0-24.06,9.48-32.49,9.64-2.21.08-6.15-.87-9.94-1.97-.63-.16-2.13-1.9-2.76-2.05-1.18-.32-1.42.79-2.37.47-2.52-.87-4.42-1.58-4.5-1.74-5.13-11.21-3.39-16.74-3.39-16.74,0,0,11.04,3.32,9.15.71-4.02-5.53,7.57-11.14,10.09-8.21,10.41,11.77,29.34,8.85,34.23,13.5Z"/>
        <path class="cls-9" d="M561.62,554.48c-7.41,3.08-22.95,9.32-26.03,9.55-12.7.95-21.53-3.71-27.45-6.48.55,1.58,1.18,3.4,2.05,5.29.08.16,1.89.87,4.49,1.74,1.03.32,1.26-.87,2.37-.47.63.16,2.05,1.9,2.76,2.05,3.79,1.1,7.73,1.97,9.94,1.97,8.44-.16,32.49-9.64,32.49-9.64,0,0,0-2.21-.63-4.03Z"/>
        <path class="cls-9" d="M544.67,547.21c.24.47-.71.95-2.05,1.26-2.76.55-5.44,1.42-8.12,2.53-1.34.55-2.52.71-2.68.24-.16-.47.71-1.34,2.05-1.9,2.6-1.11,5.36-1.9,8.04-2.45,1.26-.39,2.52-.16,2.76.32Z"/>
        <path class="cls-9" d="M539.22,545.24c.24.47-.71,1.11-2.05,1.5-2.68.79-5.28,1.89-7.89,3.24-1.26.63-2.45.87-2.6.39-.16-.47.71-1.5,1.97-2.13,2.52-1.26,5.13-2.37,7.81-3.08,1.34-.55,2.6-.4,2.76.08Z"/>
        <path class="cls-9" d="M534.02,543.5c.16.47-.71,1.18-1.97,1.66-2.6,1.03-5.13,2.29-7.57,3.79-1.18.79-2.29,1.03-2.45.47-.16-.47.63-1.58,1.89-2.37,2.44-1.5,4.97-2.76,7.49-3.71,1.26-.4,2.45-.32,2.6.16Z"/>
        <path class="cls-1" d="M98.48,228.34c-1.17-.98-2.67-1.06-3.86-.45l-.78-.41,3.81-7.2c.7-1.32.19-2.96-1.13-3.66l-8.05-4.27.42-.8c1.32-.17,2.52-1.08,2.93-2.54.36-1.26-.06-2.67-1.06-3.53-1.77-1.53-4.37-.96-5.39.98-.55,1.04-.52,2.24-.02,3.22l-.42.8-7.2-3.81c-1.32-.7-2.96-.2-3.65,1.12l-3.81,7.2.54.28c1.18-.61,2.69-.53,3.86.45,1.01.84,1.45,2.24,1.11,3.51-.61,2.26-3.07,3.25-5.01,2.22-1.04-.55-1.69-1.56-1.83-2.65l-.54-.28-4.26,8.06c-.7,1.32-.19,2.96,1.13,3.66l7.2,3.81.29-.55c-.61-1.19-.53-2.69.45-3.86.84-1.01,2.24-1.45,3.51-1.11,2.26.61,3.25,3.08,2.22,5.02-.55,1.04-1.56,1.69-2.65,1.83l-.29.55,8.05,4.27c1.32.7,2.95.2,3.65-1.12l4.26-8.06.78.41c.14,1.09.78,2.1,1.83,2.65,1.94,1.03,4.41.04,5.01-2.22.34-1.27-.11-2.67-1.11-3.51Z"/>
        <path class="cls-15" d="M100.27,218.94c-.84-.44-1.88-.11-2.32.73l-4.22,8.1.54.28c1.16-.6,2.62-.54,3.78.37,1.1.86,1.58,2.35,1.18,3.69-.65,2.18-3.06,3.13-4.97,2.14-1.05-.55-1.7-1.55-1.84-2.64l-.54-.28-4.67,8.96c-.44.84-.11,1.88.73,2.32l8.1,4.22.29-.56c-.6-1.16-.55-2.62.36-3.79.86-1.1,2.35-1.58,3.69-1.18,2.18.65,3.13,3.06,2.13,4.97-.55,1.05-1.55,1.7-2.64,1.85l-.29.56,8.95,4.67c.84.44,1.88.11,2.32-.73l10.73-20.62c.44-.84.11-1.88-.73-2.32l-20.6-10.74Z"/>
        <path class="cls-6" d="M93.38,178.4l-.87.19c-.74-.7-1.78-1.06-2.85-.9-1.87.28-3.24,2.24-2.88,4.12.37,1.91,2.21,3.13,4.08,2.73,1.14-.24,2.03-1.04,2.45-2.04l.87-.19,2,9.63c.17.84.99,1.37,1.82,1.2l9.44-2.03.11.51c-.7.75-1.05,1.8-.9,2.88.27,1.89,2.2,3.27,4.06,2.9,1.89-.38,3.1-2.24,2.71-4.14-.24-1.15-1.02-2.05-2.01-2.48l-.11-.51,9.44-2.03c.83-.18,1.36-1,1.19-1.84l-4.76-22.98c-.17-.84-.99-1.37-1.82-1.2l-22.74,4.9c-.83.18-1.36,1-1.19,1.84l1.96,9.45Z"/>
      </g>
    </g>
  </g>
</svg>