<?xml version="1.0" encoding="UTF-8"?>
<svg id="Vrstva_2" data-name="Vrstva 2" xmlns="http://www.w3.org/2000/svg" viewBox="0 0 75.06 75.26">
  <defs>
    <style>
      .cls-1 {
        fill: #28a6df;
      }

      .cls-2 {
        fill: #f28c1b;
      }
    </style>
  </defs>
  <g id="Vrstva_1-2" data-name="Vrstva 1">
    <g>
      <path class="cls-2" d="M29.2,56.44c-5.02-2.21-8.9-6.28-10.9-11.44-2.01-5.17-1.9-10.78.32-15.8,2.21-5.02,6.28-8.89,11.45-10.9,5.17-2,10.78-1.89,15.8.32,5.03,2.22,8.9,6.29,10.91,11.48,2.01,5.19,1.88,10.82-.36,15.85l-3.84-1.71c1.78-4,1.88-8.49.29-12.63-1.6-4.13-4.68-7.39-8.68-9.15-3.99-1.76-8.46-1.84-12.58-.25-4.13,1.6-7.37,4.68-9.13,8.68-1.76,4-1.85,8.46-.24,12.59,1.6,4.12,4.69,7.36,8.68,9.12l-1.69,3.84Z"/>
      <path class="cls-1" d="M37.63,49.46c-3.11,0-6.06-1.23-8.3-3.46-2.26-2.25-3.51-5.23-3.53-8.39-.02-3.17,1.2-6.17,3.44-8.46,2.24-2.28,5.22-3.54,8.37-3.55v1.68c-2.7,0-5.26,1.09-7.18,3.06-1.93,1.96-2.98,4.54-2.96,7.26.02,2.71,1.1,5.27,3.04,7.21,1.93,1.92,4.46,2.97,7.12,2.97h.07c5.6-.04,10.13-4.66,10.1-10.31h1.67c.02,3.15-1.2,6.15-3.43,8.43-2.23,2.28-5.19,3.54-8.33,3.56h-.08,0Z"/>
      <path class="cls-2" d="M37.54,75.25h-.13c-9.98-.03-19.39-4.01-26.49-11.22C3.81,56.83-.07,47.34,0,37.32l2.94.02c-.07,9.24,3.51,17.99,10.07,24.63,6.55,6.64,15.22,10.31,24.42,10.34h.12c9.13,0,17.76-3.59,24.32-10.12,6.59-6.56,10.24-15.25,10.27-24.45.06-19.12-15.41-34.74-34.49-34.79V0c9.97.03,19.37,3.99,26.46,11.16,7.1,7.16,10.99,16.61,10.96,26.59-.03,9.99-3.99,19.41-11.14,26.53-7.12,7.08-16.49,10.98-26.39,10.98h0Z"/>
      <path class="cls-1" d="M37.25,68.08h-.26c-8.09-.07-15.69-3.33-21.42-9.18-5.73-5.84-8.84-13.53-8.77-21.63.07-8.13,3.33-15.77,9.18-21.52,5.77-5.67,13.32-8.77,21.29-8.77h.38l-.07,5.88c-6.56-.07-12.76,2.44-17.5,7.09-4.73,4.65-7.37,10.81-7.42,17.37-.05,6.53,2.46,12.73,7.09,17.46,4.63,4.73,10.77,7.36,17.29,7.42h.21c13.46,0,24.47-10.93,24.58-24.46l5.86.05c-.14,16.75-13.78,30.29-30.44,30.29h0Z"/>
    </g>
  </g>
</svg>